<?xml version="1.0" encoding="utf-8"?>
<!-- Generator: Adobe Illustrator 24.0.1, SVG Export Plug-In . SVG Version: 6.00 Build 0)  -->
<svg version="1.1" id="Camada_1" xmlns="http://www.w3.org/2000/svg" xmlns:xlink="http://www.w3.org/1999/xlink" x="0px" y="0px"
	 viewBox="0 0 30 30" style="enable-background:new 0 0 30 30;" xml:space="preserve">
<style type="text/css">
	.st0{fill:#010202;stroke:#010202;stroke-width:0.2;}
	.st1{fill:none;stroke:#010202;}
	.st2{fill:none;stroke:#020304;}
	.st3{fill:none;stroke:#010202;stroke-linecap:round;stroke-linejoin:round;}
	.st4{fill:none;stroke:#010202;stroke-width:0.5;}
	.st5{fill:none;stroke:#010202;stroke-linecap:round;}
	.st6{fill:none;stroke:#020304;stroke-linecap:round;}
	.st7{fill:#010202;}
</style>
<g>
	<path class="st2" d="M9.4,12.2h9.8"/>
	<path class="st2" d="M9.4,9.9h9.8"/>
	<path class="st2" d="M9.4,14.8h4.3"/>
	<path class="st2" d="M19,3.5v3.9h3.9"/>
	<path class="st2" d="M23.4,15.8v-7V7.1c0-0.1-3.7-4.1-3.9-4.1l-9,0c-0.2,0-1.6,0-1.9,0H7.5C7,3,6.6,3.4,6.6,3.9c0,1.1,0,2.9,0,3
		v15.3c0,0.4,0.4,0.8,0.8,0.8h6.3"/>
	<path class="st1" d="M25.3,19.7c0.1-0.1,0.1-0.1,0.1-0.2c0-0.1,0-0.2-0.1-0.3l-1.6-2c-0.1-0.1-0.2-0.1-0.2-0.1
		c-0.1,0-0.2,0-0.3,0.1c0,0-7.5,6.1-7.5,6.1c-0.1,0.1-1.6,2.9-1.6,3c-0.1,0.1-0.1,0.3,0,0.4c0.1,0.1,0.2,0.2,0.4,0.1
		c0.1,0,3.2-0.9,3.3-1C17.9,25.8,25.2,19.8,25.3,19.7z"/>
	<path class="st1" d="M23.7,19.4l-6.7,5.5"/>
	<path class="st1" d="M15.7,23.3l2.1,2.6"/>
	<path class="st1" d="M14.4,25.8l0.7,0.9"/>
</g>
</svg>
