<svg version="1.1" id="Camada_1" xmlns="http://www.w3.org/2000/svg" xmlns:xlink="http://www.w3.org/1999/xlink" x="0px" y="0px"
	 viewBox="0 0 13.2 9.5" style="enable-background:new 0 0 13.2 9.5;" xml:space="preserve">
<style type="text/css">
	.st0{fill-rule:evenodd;clip-rule:evenodd;}
</style>
<g>
	<g>
		<g>
			<path d="M12,7h-0.5V0.8c0-0.1-0.1-0.1-0.2-0.1H1.8c-0.1,0-0.1,0.1-0.1,0.1V7H1.1V0.8c0-0.3,0.3-0.6,0.6-0.6h9.5
				c0.3,0,0.7,0.3,0.7,0.6V7z"/>
		</g>
		<g>
			<path d="M12.4,9.5H0.7C0.4,9.5,0,9.1,0,8.8v-1h6.1v0.4H7V7.8H13v1C13,9.1,12.7,9.5,12.4,9.5z M0.5,8.3v0.5C0.5,8.9,0.6,9,0.7,9
				h11.7c0.1,0,0.1-0.1,0.1-0.2V8.3H7.4c0,0.2-0.2,0.4-0.4,0.4H6.1c-0.2,0-0.4-0.2-0.4-0.4H0.5z"/>
		</g>
		<g>
			<g>
				<path class="st0" d="M5.4,4.1c0,0.2-0.2,0.4-0.4,0.4c-0.2,0-0.4-0.2-0.4-0.4c0-0.2,0.2-0.4,0.4-0.4C5.2,3.7,5.4,3.9,5.4,4.1"/>
			</g>
		</g>
	</g>
	<g>
		<g>
			<path d="M5.8,6C5.7,5.9,5.5,5.8,5.4,5.6l0.5-0.3C5.9,5.4,6,5.5,6.1,5.5c0.1,0.1,0.2,0.1,0.4,0.1c0.2,0,0.4-0.1,0.5-0.2
				C7.1,5.2,7.2,5,7.2,4.8V1.9h0.6v2.9c0,0.3-0.1,0.5-0.2,0.7C7.5,5.7,7.4,5.9,7.2,6C7,6.1,6.7,6.2,6.5,6.2C6.2,6.2,6,6.1,5.8,6z"/>
		</g>
	</g>
</g>
</svg>