<?xml version="1.0" encoding="utf-8"?>
<!-- Generator: Adobe Illustrator 23.0.6, SVG Export Plug-In . SVG Version: 6.00 Build 0)  -->
<svg version="1.1" id="Camada_1" xmlns="http://www.w3.org/2000/svg" xmlns:xlink="http://www.w3.org/1999/xlink" x="0px" y="0px"
	 viewBox="0 0 17 17" style="enable-background:new 0 0 17 17;" xml:space="preserve">
<style type="text/css">
	.st0{fill:none;stroke:#000000;stroke-width:0.75;}
	.st1{fill:none;stroke:#000000;stroke-width:0.5;}
	.st2{fill-rule:evenodd;clip-rule:evenodd;}
</style>
<g>
	<path class="st1" d="M12.4,11V4.8c0-0.2-0.2-0.4-0.4-0.4H2.5c-0.2,0-0.4,0.2-0.4,0.4V11"/>
	<path class="st1" d="M7.9,12.3c0,0.1-0.1,0.2-0.2,0.2H6.8c-0.1,0-0.2-0.1-0.2-0.2v-0.2H1v0.7c0,0.2,0.2,0.4,0.4,0.4h11.7
		c0.2,0,0.4-0.2,0.4-0.4v-0.7H7.9V12.3z"/>
	<g>
		<path class="st2" d="M7.9,8.8c0,0,0,0.1,0,0.2c0,0.1,0,0.1,0,0.2c0,0.1,0,0.2-0.1,0.2c0,0.1-0.1,0.1-0.1,0.2
			C7.5,9.6,7.5,9.7,7.4,9.7c-0.1,0-0.1,0-0.2,0c-0.1,0-0.2,0-0.3-0.1C6.8,9.6,6.7,9.6,6.7,9.5L6.5,9.3L6.1,9.8l0.1,0.1
			c0.1,0.1,0.2,0.2,0.4,0.3c0.2,0.1,0.3,0.1,0.5,0.1c0.2,0,0.4,0,0.5-0.1C7.8,10.2,8,10,8.1,9.9c0.1-0.1,0.2-0.3,0.3-0.5
			c0.1-0.2,0.1-0.4,0.1-0.6V6.1H7.9V8.8"/>
		<path class="st2" d="M6.1,8.1c0,0.2-0.2,0.4-0.4,0.4c-0.2,0-0.4-0.2-0.4-0.4c0-0.2,0.2-0.4,0.4-0.4C5.9,7.7,6.1,7.9,6.1,8.1"/>
	</g>
</g>
</svg>
