<svg xmlns="http://www.w3.org/2000/svg" width="53.222" height="56.445" viewBox="0 0 53.222 56.445">
  <g id="Grupo_2004" data-name="Grupo 2004" transform="translate(3138 -14539.893)">
    <path id="Caminho_12422" data-name="Caminho 12422" d="M-2784.765,14216.817h22.024l15.591,14.593v37.51l-3.466,1.168h-31.856l-2.292-1.168-1.607-2.326v-45.924Z" transform="translate(-339 324)" fill="#fff"/>
    <g id="_.arq" data-name=".arq">
      <g id="Grupo_1999" data-name="Grupo 1999">
        <rect id="Retângulo_2505" data-name="Retângulo 2505" width="33" height="20" transform="translate(-3136 14561)" fill="#8652ff"/>
        <path id="Caminho_12411" data-name="Caminho 12411" d="M255.706-281.618c-2.735,0-5.173.019-7.611,0-3.035-.029-4.267-1.209-4.284-4.177q-.043-7.336,0-14.672c.017-2.9,1.248-4.113,4.1-4.128,2.5-.013,5,0,7.8,0v-2.218c0-4.164-.033-8.328.011-12.491a4.4,4.4,0,0,1,4.708-4.72c6.738-.036,13.478-.045,20.215.039A3.736,3.736,0,0,1,283-322.941q6.606,6.7,13.047,13.572a3.6,3.6,0,0,1,.914,2.227q.088,17.447.034,34.895a4.333,4.333,0,0,1-4.587,4.621q-16.053.034-32.108-.014a4.307,4.307,0,0,1-4.583-4.613C255.665-275.281,255.706-278.31,255.706-281.618Zm2.441-.011c0,3.027,0,5.726,0,8.424,0,2.678.426,3.115,3.078,3.116q15.164.01,30.328,0c2.583,0,3.008-.4,3.011-2.954q.018-15.863.005-31.726c0-.51-.064-1.021-.094-1.469-.24-.113-.354-.214-.47-.215q-5.746-.04-11.493-.061c-3.032-.01-3.034,0-3.036-3.063,0-3.941,0-7.883,0-12-6.639,0-13.034-.056-19.423.085a2.666,2.666,0,0,0-1.811,1.871c-.155,4.934-.084,9.874-.084,15.014h2.107c5.22,0,10.44-.015,15.66.009,2.471.011,3.752,1.2,3.766,3.576.032,5.354,0,10.707-.017,16.061a3.076,3.076,0,0,1-2.852,3.23,12.035,12.035,0,0,1-2.172.09C269.241-281.627,263.835-281.629,258.147-281.629Zm3.692-20.531c-4.494,0-8.989.062-13.481-.032-1.679-.035-2.169.568-2.138,2.189q.128,6.84,0,13.684c-.032,1.687.454,2.338,2.24,2.323q13.382-.115,26.765-.006c1.719.014,2.157-.644,2.135-2.214-.064-4.56-.081-9.124.005-13.684.032-1.692-.457-2.342-2.245-2.3C270.7-302.084,266.267-302.16,261.839-302.16Zm20.2-18.325v11.373h10.924Z" transform="translate(-3381.79 14863.95)"/>
        <text id="_.ARQ-2" data-name=".ARQ" transform="translate(-3121 14575)" fill="#fff" font-size="11" font-family="Montserrat-Bold, Montserrat" font-weight="700" letter-spacing="-0.03em"><tspan x="-14.019" y="0">.ARQ</tspan></text>
      </g>
    </g>
  </g>
</svg>
