<?xml version="1.0" encoding="utf-8"?>
<!-- Generator: Adobe Illustrator 24.0.1, SVG Export Plug-In . SVG Version: 6.00 Build 0)  -->
<svg version="1.1" id="Camada_1" xmlns="http://www.w3.org/2000/svg" xmlns:xlink="http://www.w3.org/1999/xlink" x="0px" y="0px"
	 viewBox="0 0 30 30" style="enable-background:new 0 0 30 30;" xml:space="preserve">
<style type="text/css">
	.st0{fill:none;stroke:#020304;stroke-width:1.2;}
	.st1{fill:none;stroke:#010202;stroke-width:1.2;}
	.st2{fill:none;stroke:#020304;stroke-width:0.8;}
	.st3{fill:none;stroke:#020304;}
	.st4{fill:none;stroke:#020304;stroke-linecap:round;}
	.st5{fill:none;stroke:#010202;stroke-width:1.2;stroke-linecap:round;}
</style>
<g>
	<g>
		<g>
			<path class="st0" d="M6.9,11.1h10.4"/>
			<path class="st0" d="M6.9,8.5h10.4"/>
			<path class="st0" d="M6.9,14h4.6"/>
		</g>
		<path class="st0" d="M17.2,1.5v4.3h4.2"/>
		<path class="st0" d="M21.8,15.1V7.4V5.5c0-0.1-3.9-4.4-4.2-4.4C17.6,1.1,7,1,6.1,1C5.4,1,4.9,1,4.9,1C4.4,1,3.9,1.4,3.9,1.9
			c0,1.3,0,3.2,0,3.4v16.8c0,0.5,0.4,0.8,0.8,0.8h6.7"/>
	</g>
</g>
<g>
	<path class="st3" d="M24.6,19.2c0.1-0.1,0.1-0.2,0.2-0.3c0-0.1,0-0.2-0.1-0.3l-2.2-2.4C22.4,16,22.2,16,22.1,16
		c-0.1,0-0.2,0-0.3,0.1c0,0-9.1,8.3-9.1,8.3c-0.1,0.1-1.8,3.9-1.9,4c-0.1,0.2,0,0.4,0.1,0.5c0.1,0.1,0.3,0.2,0.5,0.1
		c0.1,0,4-1.4,4.2-1.5C15.6,27.5,24.6,19.3,24.6,19.2z"/>
	<path class="st4" d="M22.6,19l-8.2,7.4"/>
	<path class="st3" d="M12.7,24.4l2.9,3.1"/>
	<path class="st3" d="M11.1,27.7l1,1.1"/>
</g>
</svg>
