<svg xmlns="http://www.w3.org/2000/svg" width="40" height="39" viewBox="0 0 40 39">
    <g fill="none" fill-rule="evenodd">
        <path d="M0-1h40v40H0z"/>
        <g stroke="#FF9300" stroke-width="1.5" transform="translate(.606 .818)">
            <path d="M11.06 20.227h16.667M22.428 31.742c3.163 0 3.89 2.425 4.865 4.401 0 .33-.327.6-.73.6H12.221c-.404 0-.731-.327-.731-.657 1.002-1.95 1.777-4.344 4.865-4.344h6.072zM35.884.227H2.899C1.38.227.227 1.516.227 3.033v21.316c0 1.518 1.154 2.545 2.672 2.545h32.985c1.519 0 2.677-1.027 2.677-2.545V3.033c0-1.517-1.158-2.806-2.677-2.806zM19.394 31.742V28.41"/>
            <circle cx="19.392" cy="11.111" r="5.84"/>
            <path d="M18.439 13.372l3.56-3.805M18.439 13.372l-1.653-1.767"/>
        </g>
    </g>
</svg>
