<?xml version="1.0" encoding="utf-8"?>
<!-- Generator: Adobe Illustrator 23.1.1, SVG Export Plug-In . SVG Version: 6.00 Build 0)  -->
<svg version="1.1" id="Camada_1" xmlns="http://www.w3.org/2000/svg" xmlns:xlink="http://www.w3.org/1999/xlink" x="0px" y="0px"
	 viewBox="0 0 24 24" style="enable-background:new 0 0 24 24;" xml:space="preserve">
<style type="text/css">
	.st0{fill:none;stroke:#000000;}
</style>
<g>
	<path class="st0" d="M5.7,14.8c-2.9-0.5-4.6-2.9-4.6-5.9c0-3.3,2.3-6,5.2-6h5.4c3,0,5.4,2.5,5.4,5.9c0,3.3-2.4,5.8-5.4,5.8h-1.7
		l-4.4,4.5L5.7,14.8L5.7,14.8z"/>
	<path class="st0" d="M11.3,14.9c0,1,0.7,2,0.7,2c0.7,1,2,1.6,3.2,1.6h1.5l2.5,2.5v-2.7c1.9-0.1,3.7-1.9,3.7-4.3
		c0-2.3-1.6-4.1-3.6-4.2c-0.1,0-1.9,0-2,0"/>
	<path class="st0" d="M11.7,11L7.1,6.4"/>
	<path class="st0" d="M11.7,6.4L7.1,11"/>
	<path class="st0" d="M19.3,16.1l-3.2-3.2"/>
	<path class="st0" d="M19.3,12.7l-3.4,3.4"/>
</g>
</svg>
