<svg xmlns="http://www.w3.org/2000/svg" width="26.931" height="27.857" viewBox="0 0 26.931 27.857">
  <g id="Grupo_39665" data-name="Grupo 39665" transform="translate(-1170.572 -208.07)">
    <path id="Caminho_4233" data-name="Caminho 4233" d="M1706.889,4000.85c-.03,0-1.819,2.868-1.819,3.87a1.819,1.819,0,1,0,3.638,0c0-1-1.789-3.87-1.819-3.87Z" transform="translate(-533.998 -3771.111)" fill="#9fe49f" stroke="#9fe49f" stroke-width="1" fill-rule="evenodd"/>
    <path id="Caminho_4230" data-name="Caminho 4230" d="M1713.261,3977.186c1.956-4.455,2.654-8.451,1.562-8.928s-3.56,2.743-5.51,7.192-2.654,8.444-1.562,8.927S1711.311,3981.635,1713.261,3977.186Z" transform="translate(-534.872 -3757.937)" fill="none" stroke="#424242" stroke-width="1" fill-rule="evenodd"/>
    <path id="Caminho_4229" data-name="Caminho 4229" d="M1708.1,3984.41l16.251,7.121c1.389.608,4.091-2.5,6.047-6.954s2.409-8.552,1.02-9.16l-16.245-7.126" transform="translate(-535.221 -3757.969)" fill="none" stroke="#424242" stroke-width="1"/>
    <path id="Caminho_4232" data-name="Caminho 4232" d="M1721.688,3988.846a1.008,1.008,0,1,0-1.008-1.008A1.007,1.007,0,0,0,1721.688,3988.846Z" transform="translate(-540.299 -3765.452)" fill="none" stroke="#424242" stroke-width="1" fill-rule="evenodd"/>
    <path id="Caminho_4231" data-name="Caminho 4231" d="M1722.37,3967.738c3.512-2.857,8.456-3.263,10.651-.567s1.133,7.21-2.373,10.066a10.337,10.337,0,0,1-7.353,2.338" transform="translate(-540.981 -3756.784)" fill="none" stroke="#424242" stroke-width="1"/>
  </g>
</svg>
