<?xml version="1.0" encoding="utf-8"?>
<!-- Generator: Adobe Illustrator 24.0.1, SVG Export Plug-In . SVG Version: 6.00 Build 0)  -->
<svg version="1.1" id="Camada_1" xmlns="http://www.w3.org/2000/svg" xmlns:xlink="http://www.w3.org/1999/xlink" x="0px" y="0px"
	 viewBox="0 0 30 30" style="enable-background:new 0 0 30 30;" xml:space="preserve">
<style type="text/css">
	.st0{fill:#010202;stroke:#010202;stroke-width:0.2;}
	.st1{fill:none;stroke:#010202;}
	.st2{fill:none;stroke:#020304;}
	.st3{fill:none;stroke:#010202;stroke-linecap:round;stroke-linejoin:round;}
	.st4{fill:none;stroke:#010202;stroke-width:0.5;}
	.st5{fill:none;stroke:#010202;stroke-linecap:round;}
	.st6{fill:none;stroke:#020304;stroke-linecap:round;}
	.st7{fill:#010202;}
</style>
<g>
	<path class="st5" d="M19,20.9H5.9c-1.3,0-2.4-0.9-2.4-1.9l0-9.8c0-1,1.1-1.8,2.4-1.8l17.9,0c1.3,0,2.4,0.8,2.4,1.8v5.7"/>
	<path class="st1" d="M24,15.8c2.1,0,3.8,1.6,3.8,3.6s-1.7,3.6-3.8,3.6s-3.8-1.6-3.8-3.6S21.9,15.8,24,15.8z"/>
	<path class="st3" d="M3.9,15.8h16.7"/>
	<path class="st5" d="M3.9,18.1H19"/>
	<path class="st6" d="M21.8,19.1l1.4,1.7L26,18"/>
</g>
</svg>
