<?xml version="1.0" encoding="utf-8"?>
<!-- Generator: Adobe Illustrator 23.0.6, SVG Export Plug-In . SVG Version: 6.00 Build 0)  -->
<svg version="1.1" id="Camada_1" xmlns="http://www.w3.org/2000/svg" xmlns:xlink="http://www.w3.org/1999/xlink" x="0px" y="0px"
	 viewBox="0 0 24 24" style="enable-background:new 0 0 24 24;" xml:space="preserve">
<style type="text/css">
	.st0{clip-path:url(#SVGID_2_);}
	.st1{fill:none;stroke:#020304;stroke-width:2;}
	.st2{fill:none;stroke:#020304;}
	.st3{clip-path:url(#SVGID_4_);}
	.st4{fill:#020304;}
	.st5{fill:#010202;}
	.st6{fill:none;stroke:#020304;stroke-width:1.5;}
	.st7{fill:#020304;stroke:#020304;stroke-width:0.3;}
	.st8{clip-path:url(#SVGID_6_);}
	.st9{clip-path:url(#SVGID_8_);}
	.st10{clip-path:url(#SVGID_10_);}
	.st11{clip-path:url(#SVGID_12_);}
</style>
<g>
	<path class="st2" d="M22,13L21.9,1.9c0-0.4-0.5-0.9-0.9-0.9h-2.7c-4,0-13,0-13.3,0H1.9C1.4,1,1,1.3,1,1.8l0.1,17.6
		c0,0.4,0.4,0.8,0.8,0.8h10.4"/>
	<path class="st2" d="M21.8,5.2H1.1"/>
	<path class="st2" d="M18.3,23c2.6,0,4.6-2.1,4.6-4.6s-2.1-4.6-4.6-4.6s-4.6,2.1-4.6,4.6S15.8,23,18.3,23z"/>
	<path class="st2" d="M20.8,18.1h-2.7v-2.7"/>
	<path class="st2" d="M13.4,9l1.9-0.7v6.6"/>
	<path class="st2" d="M6.1,8.3h5l-3.2,4c0,0,3.6-0.3,3.2,2.6c-0.3,2.8-4.4,2.1-5.3,0.5"/>
</g>
</svg>
