<svg width="24" height="24" viewBox="0 0 24 24" fill="none" xmlns="http://www.w3.org/2000/svg">
<path fill-rule="evenodd" clip-rule="evenodd" d="M12.0514 23.2907C12.0514 23.2907 21.2687 23.5875 21.4171 18.739C21.5655 13.8905 15.0349 4.4865 15.0349 4.4865C14.9607 3.5465 17.3355 0.5 17.3355 0.5H6.76744C6.76744 0.5 9.14224 3.5465 9.06804 4.4865C9.06804 4.4865 2.53744 13.8762 2.68584 18.7247C2.83424 23.5732 12.0514 23.2907 12.0514 23.2907V23.2907Z" stroke="#424242"/>
<path d="M3.81738 6.49417C3.81738 6.49417 4.83778 7.48367 6.17358 6.09837C7.50938 4.71307 7.21258 4.48347 9.06788 4.51517H15.0349C15.0349 4.51517 17.1817 4.07567 17.9238 5.36207C18.6659 6.64837 18.3938 7.63787 19.4328 8.20687" stroke="#424242"/>
<path d="M10.2976 3.09283H13.6764" stroke="#424242"/>
<path d="M10.2976 5.99475H13.6764" stroke="#424242"/>
<path d="M10.2288 17.0966C10.8438 17.6319 11.7921 18.0339 12.4766 18.0339C13.5718 18.0339 14.4597 17.2576 14.4597 16.3001C14.4597 15.3425 13.5117 14.8688 12.4766 14.5663C11.4038 14.2301 10.4935 13.79 10.4935 12.8325C10.4935 11.875 11.3814 11.0987 12.4766 11.0987C13.2141 11.0987 13.8575 11.4506 14.1992 11.9729" stroke="#424242"/>
<path d="M12.4766 9.80927V19.3233" stroke="#424242"/>
</svg>
