<?xml version="1.0" encoding="utf-8"?>
<!-- Generator: Adobe Illustrator 23.0.6, SVG Export Plug-In . SVG Version: 6.00 Build 0)  -->
<svg version="1.1" id="Camada_1" xmlns="http://www.w3.org/2000/svg" xmlns:xlink="http://www.w3.org/1999/xlink" x="0px" y="0px"
	 viewBox="0 0 17 17" style="enable-background:new 0 0 17 17;" xml:space="preserve">
<style type="text/css">
	.st0{fill:none;stroke:#ffffff;stroke-width:0.75;}
	.st1{fill:none;stroke:#ffffff;stroke-width:0.5;}
	.st2{fill-rule:evenodd;clip-rule:evenodd;}
</style>
<g>
	<path class="st1" d="M8.5,11.9c1.3,0,2.3-1,2.3-2.3c0-1.3-1-2.3-2.3-2.3c-1.3,0-2.3,1-2.3,2.3C6.2,10.8,7.2,11.9,8.5,11.9z"/>
	<path class="st1" d="M2.4,5.1v7.1c0,0.5,0.4,0.8,0.8,0.8h11.3V6.1H3.3C2.8,6.1,2.4,5.6,2.4,5.1L2.4,5.1c0-0.6,0.4-1,0.8-1h11.3"/>
	<path class="st1" d="M14.6,5.1H3.4"/>
	<path class="st1" d="M7.2,9.5L8,10.3l1.8-1.8"/>
</g>
</svg>
