<?xml version="1.0" encoding="utf-8"?>
<!-- Generator: Adobe Illustrator 23.0.6, SVG Export Plug-In . SVG Version: 6.00 Build 0)  -->
<svg version="1.1" id="Camada_1" xmlns="http://www.w3.org/2000/svg" xmlns:xlink="http://www.w3.org/1999/xlink" x="0px" y="0px"
	 viewBox="0 0 24 24" style="enable-background:new 0 0 24 24;" xml:space="preserve">
<style type="text/css">
	.st0{clip-path:url(#SVGID_2_);}
	.st1{fill:none;stroke:#020304;stroke-width:2;}
	.st2{fill:none;stroke:#020304;}
	.st3{clip-path:url(#SVGID_4_);}
	.st4{fill:#020304;}
	.st5{fill:#010202;}
	.st6{fill:none;stroke:#020304;stroke-width:1.5;}
	.st7{fill:#020304;stroke:#020304;stroke-width:0.3;}
	.st8{clip-path:url(#SVGID_6_);}
	.st9{clip-path:url(#SVGID_8_);}
	.st10{clip-path:url(#SVGID_10_);}
	.st11{clip-path:url(#SVGID_12_);}
</style>
<g>
	<path class="st2" d="M6.7,10.3h9.8"/>
	<path class="st2" d="M6.7,8h9.8"/>
	<path class="st2" d="M6.7,13H11"/>
	<path class="st2" d="M16.6,23.3c2.6,0,4.7-2.1,4.7-4.7s-2.1-4.7-4.7-4.7c-2.6,0-4.7,2.1-4.7,4.7S14,23.3,16.6,23.3z"/>
	<path class="st2" d="M19.1,18.6h-2.5V15"/>
	<path class="st2" d="M16.4,1.6v3.9h3.9"/>
	<path class="st2" d="M20.8,14.3V6.9V5.2c0-0.1-3.7-4.1-3.9-4.1l-9,0c-0.2,0-1.6,0-2,0H4.8C4.3,1.1,3.9,1.5,3.9,2c0,1.1,0,2.9,0,3.1
		v15.4c0,0.4,0.4,0.8,0.8,0.8h6.5"/>
</g>
</svg>
