<svg xmlns="http://www.w3.org/2000/svg" xmlns:xlink="http://www.w3.org/1999/xlink" width="25" height="25" viewBox="0 0 25 25">
    <defs>
        <path id="a" d="M23.49 2.826A2.365 2.365 0 0 0 21.123.461H2.854A2.365 2.365 0 0 0 .49 2.826v18.27a2.365 2.365 0 0 0 2.366 2.365h18.27a2.365 2.365 0 0 0 2.364-2.365V2.826z"/>
    </defs>
    <g fill="none" fill-rule="evenodd">
        <path d="M1 2h24v22H1z"/>
        <g transform="translate(1 1)">
            <use fill="#9461F7" stroke="#f3f4f5" xlink:href="#a"/>
            <use stroke="#424242" xlink:href="#a"/>
            <use stroke="#9461F7" xlink:href="#a"/>
            <circle cx="6" cy="13" r="1" stroke="#FFF"/>
            <circle cx="12" cy="16" r="1" stroke="#FFF"/>
            <circle cx="18" cy="8" r="1" stroke="#FFF"/>
            <path stroke="#FFF" d="M18.5 8.5l5.317 4.242M13 15.671L17.338 9M7 13l4.5 2.5M0 16.737L4.885 13"/>
        </g>
    </g>
</svg>
