<?xml version="1.0" encoding="utf-8"?>
<!-- Generator: Adobe Illustrator 23.1.1, SVG Export Plug-In . SVG Version: 6.00 Build 0)  -->
<svg version="1.1" id="Camada_1" xmlns="http://www.w3.org/2000/svg" xmlns:xlink="http://www.w3.org/1999/xlink" x="0px" y="0px"
	 viewBox="0 0 24 24" style="enable-background:new 0 0 24 24;" xml:space="preserve">
<style type="text/css">
	.st0{fill:none;stroke:#000000;}
</style>
<g>
	<path class="st0" d="M6,3.1v19.6h12V3.1h0l-2-1.8l-2,1.8l-2-1.8l-2,1.8L8,1.3L6,3.1L6,3.1z"/>
	<path class="st0" d="M9.6,19h4.7"/>
	<path class="st0" d="M9.6,16.2h4.7"/>
	<path class="st0" d="M9.6,11.8c0.5,0.4,1.3,0.8,1.9,0.8c0.9,0,1.7-0.6,1.7-1.4c0-0.8-0.8-1.2-1.7-1.4C10.6,9.4,9.9,9,9.9,8.2
		s0.7-1.4,1.7-1.4c0.6,0,1.2,0.3,1.4,0.7"/>
	<path class="st0" d="M11.5,6v0.8"/>
	<path class="st0" d="M11.5,12.6v0.8"/>
</g>
</svg>
