<svg xmlns="http://www.w3.org/2000/svg" width="18" height="17" viewBox="0 0 18 17">
    <g fill="none" fill-rule="evenodd">
        <path d="M1 1h16v16H1z"/>
        <g stroke="#424242">
            <path d="M11.331 16.547v-.666a.45.45 0 0 0-.276-.42c-1.955-.78-3.049-1.747-3.231-2.35v-.632c.405-.428.725-1.024.914-1.723.452-.327.57-1.006.192-1.485V7.855c0-1.461-.79-2.461-2.593-2.461-1.757 0-2.593 1-2.593 2.461v1.416a1.046 1.046 0 0 0 .191 1.485c.19.699.51 1.295.915 1.723v.633c-.182.602-1.276 1.57-3.23 2.349a.45.45 0 0 0-.277.42v.666M10.531 7.996h.8v2.244l2.826-2.384c1.395-.271 2.455-1.603 2.455-3.207 0-1.799-1.334-3.257-2.98-3.257h-3.014c-1.463 0-2.68 1.153-2.932 2.673M10.049 4h3.877M10.049 5.333h1.939"/>
        </g>
    </g>
</svg>
