<?xml version="1.0" encoding="utf-8"?>
<!-- Generator: Adobe Illustrator 24.0.1, SVG Export Plug-In . SVG Version: 6.00 Build 0)  -->
<svg version="1.1" id="Camada_1" xmlns="http://www.w3.org/2000/svg" xmlns:xlink="http://www.w3.org/1999/xlink" x="0px" y="0px"
	 viewBox="0 0 30 30" style="enable-background:new 0 0 30 30;" xml:space="preserve">
<style type="text/css">
	.st0{fill:#010202;stroke:#010202;stroke-width:0.2;}
	.st1{fill:none;stroke:#010202;}
	.st2{fill:none;stroke:#020304;}
	.st3{fill:none;stroke:#010202;stroke-linecap:round;stroke-linejoin:round;}
	.st4{fill:none;stroke:#010202;stroke-width:0.5;}
	.st5{fill:none;stroke:#010202;stroke-linecap:round;}
	.st6{fill:none;stroke:#020304;stroke-linecap:round;}
	.st7{fill:#010202;}
</style>
<path class="st2" d="M7.8,12.6H18"/>
<path class="st2" d="M7.8,10.2H18"/>
<path class="st2" d="M7.8,15.4h4.5"/>
<path class="st2" d="M17.9,3.5v4.1H22"/>
<path class="st2" d="M22.4,16.4V9.1V7.3c0-0.1-3.8-4.2-4.1-4.2L9,3C8.8,3,7.3,3,7,3H5.8C5.3,3,4.9,3.4,4.9,3.9c0,1.2,0,3,0,3.2v16
	c0,0.5,0.4,0.8,0.8,0.8h6.6"/>
<path class="st1" d="M24.9,19.1L20.6,23c-0.3,0.3-0.8,0.3-1.2,0l-4.3-3.8"/>
<path class="st1" d="M22,23.3l2.9,2.4"/>
<path class="st1" d="M18.1,23.3l-2.9,2.4"/>
<path class="st1" d="M13.9,19.1v6.7c0,0.7,0.6,1.2,1.3,1.2H25c0.7,0,1.3-0.6,1.3-1.2v-6.7c0-0.7-0.6-1.2-1.3-1.2h-9.9
	C14.5,17.8,13.9,18.4,13.9,19.1L13.9,19.1z"/>
</svg>
