<?xml version="1.0" encoding="utf-8"?>
<!-- Generator: Adobe Illustrator 24.0.1, SVG Export Plug-In . SVG Version: 6.00 Build 0)  -->
<svg version="1.1" id="Camada_1" xmlns="http://www.w3.org/2000/svg" xmlns:xlink="http://www.w3.org/1999/xlink" x="0px" y="0px"
	 viewBox="0 0 30 30" style="enable-background:new 0 0 30 30;" xml:space="preserve">
<style type="text/css">
	.st0{fill:none;stroke:#020304;stroke-width:1.2;}
	.st1{fill:none;stroke:#010202;stroke-width:1.2;}
	.st2{fill:none;stroke:#020304;stroke-width:0.8;}
	.st3{fill:none;stroke:#020304;}
	.st4{fill:none;stroke:#020304;stroke-linecap:round;}
	.st5{fill:none;stroke:#010202;stroke-width:1.2;stroke-linecap:round;}
</style>
<g>
	<g>
		<g>
			<g>
				<path class="st0" d="M6.9,11.1h10.4"/>
				<path class="st0" d="M6.9,8.5h10.4"/>
				<path class="st0" d="M6.9,14h4.6"/>
			</g>
			<path class="st0" d="M17.2,1.5v4.3h4.2"/>
			<path class="st0" d="M21.8,15.1V7.4V5.5c0-0.1-3.9-4.4-4.2-4.4C17.6,1.1,7,1,6.1,1C5.4,1,4.9,1,4.9,1C4.4,1,3.9,1.4,3.9,1.9
				c0,1.3,0,3.2,0,3.4v16.8c0,0.5,0.4,0.8,0.8,0.8h6.7"/>
		</g>
	</g>
	<g>
		<path class="st1" d="M19.6,29c3.6,0,6.5-2.9,6.5-6.5c0-3.6-2.9-6.5-6.5-6.5s-6.5,2.9-6.5,6.5C13.1,26.2,16,29,19.6,29z"/>
	</g>
</g>
<path class="st5" d="M22.3,23.5h-3.1v-4.4"/>
</svg>
