<?xml version="1.0" encoding="utf-8"?>
<!-- Generator: Adobe Illustrator 24.0.1, SVG Export Plug-In . SVG Version: 6.00 Build 0)  -->
<svg version="1.1" id="Camada_1" xmlns="http://www.w3.org/2000/svg" xmlns:xlink="http://www.w3.org/1999/xlink" x="0px" y="0px"
	 viewBox="0 0 30 30" style="enable-background:new 0 0 30 30;" xml:space="preserve">
<style type="text/css">
	.st0{fill:#010202;stroke:#010202;stroke-width:0.2;}
	.st1{fill:none;stroke:#010202;}
	.st2{fill:none;stroke:#020304;}
	.st3{fill:none;stroke:#010202;stroke-linecap:round;stroke-linejoin:round;}
	.st4{fill:none;stroke:#010202;stroke-width:0.5;}
	.st5{fill:none;stroke:#010202;stroke-linecap:round;}
	.st6{fill:none;stroke:#020304;stroke-linecap:round;}
	.st7{fill:#010202;}
</style>
<path class="st2" d="M20.7,27c2.7,0,4.9-2.2,4.9-4.9c0-2.7-2.2-4.9-4.9-4.9c-2.7,0-4.9,2.2-4.9,4.9C15.8,24.8,18,27,20.7,27z"/>
<path class="st2" d="M22.7,22.7h-2.6V19"/>
<path class="st2" d="M9.4,12.3h9.9"/>
<path class="st2" d="M9.4,10h9.9"/>
<path class="st2" d="M9.4,15h4.3"/>
<path class="st2" d="M19.2,3.5v4h4"/>
<path class="st2" d="M23.6,16V8.9V7.2c0-0.1-3.7-4.1-3.9-4.1l-9.1,0c-0.2,0-1.7,0-2,0H7.5C7,3,6.6,3.4,6.6,3.9c0,1.1,0,3,0,3.1v15.5
	c0,0.4,0.4,0.8,0.8,0.8h6.4"/>
</svg>
