<svg xmlns="http://www.w3.org/2000/svg" width="23.622" height="23.779" viewBox="0 0 23.622 23.779">
  <g id="Grupo_1335" data-name="Grupo 1335" transform="translate(0.4 0.4)">
    <g id="Grupo_1353" data-name="Grupo 1353">
      <g id="Grupo_1359" data-name="Grupo 1359">
        <g id="Grupo_1334" data-name="Grupo 1334" transform="translate(9.446 9.077)">
          <path id="Caminho_11333" data-name="Caminho 11333" d="M4009.15,145.149a1.842,1.842,0,0,0,1.261.718c.544.179,1.261-.179,1.261-.718.172-.539-.358-.9-.9-1.257q-1.075-.271-1.076-1.078a1.136,1.136,0,0,1,1.434-.718,1.211,1.211,0,0,1,.9.718" transform="translate(-4009.15 -141.556)" fill="none" stroke="#424242" stroke-width="0.8"/>
          <path id="Caminho_11334" data-name="Caminho 11334" d="M4010.64,141.678v.539" transform="translate(-4008.662 -141.678)" fill="none" stroke="#424242" stroke-width="0.8"/>
          <path id="Caminho_11335" data-name="Caminho 11335" d="M4009.97,145.06v.539" transform="translate(-4008.881 -140.569)" fill="none" stroke="#424242" stroke-width="0.8"/>
        </g>
        <g id="Grupo_1333" data-name="Grupo 1333">
          <g id="Grupo_1352" data-name="Grupo 1352" transform="translate(4.05 6.271)">
            <g id="Grupo_1351" data-name="Grupo 1351">
              <path id="Caminho_11328" data-name="Caminho 11328" d="M4004.551,144.113a2.4,2.4,0,0,1,1.979,2.7" transform="translate(-4004.378 -138.006)" fill="none" stroke="#424242" stroke-width="0.8"/>
              <g id="Grupo_1350" data-name="Grupo 1350">
                <path id="Caminho_11327" data-name="Caminho 11327" d="M4019.5,143.466l-1.075,6.826-14.008-2.335,1.434-8.443,8.259,1.438" transform="translate(-4004.42 -139.513)" fill="none" stroke="#424242" stroke-width="0.8"/>
                <path id="Caminho_11329" data-name="Caminho 11329" d="M4013.08,147.853a2.481,2.481,0,0,1,2.867-1.976" transform="translate(-4001.583 -137.435)" fill="none" stroke="#424242" stroke-width="0.8"/>
              </g>
            </g>
            <path id="Caminho_11330" data-name="Caminho 11330" d="M4007.609,139.784a2,2,0,0,1-2.509,1.8" transform="translate(-4004.198 -139.425)" fill="none" stroke="#424242" stroke-width="0.8"/>
          </g>
          <path id="Caminho_11331" data-name="Caminho 11331" d="M4014.96,144.627a3.234,3.234,0,1,0-3.24-3.233A3.227,3.227,0,0,0,4014.96,144.627Z" transform="translate(-3998.894 -132.671)" fill="none" stroke="#424242" stroke-width="0.8"/>
          <path id="Caminho_11332" data-name="Caminho 11332" d="M4021.47,137.353a11.506,11.506,0,1,1-16.271,16.273,11.715,11.715,0,0,1,.172-16.273A11.337,11.337,0,0,1,4021.47,137.353Z" transform="translate(-4001.999 -134)" fill="none" stroke="#424242" stroke-width="0.8"/>
          <path id="Caminho_11336" data-name="Caminho 11336" d="M4013.62,141.58a1.314,1.314,0,0,0,.717.358c.358,0,.716-.179.716-.539s-.358-.538-.716-.538c-.359-.181-.717-.181-.717-.539s.358-.539.717-.539c.187,0,.544.179.544.358" transform="translate(-3998.264 -132.142)" fill="none" stroke="#424242" stroke-width="0.8"/>
          <path id="Caminho_11337" data-name="Caminho 11337" d="M4014.16,139.513v.36" transform="translate(-3998.086 -132.226)" fill="none" stroke="#424242" stroke-width="0.8"/>
          <path id="Caminho_11338" data-name="Caminho 11338" d="M4014.16,141.407v.36" transform="translate(-3998.086 -131.617)" fill="none" stroke="#424242" stroke-width="0.8"/>
        </g>
      </g>
    </g>
  </g>
</svg>
