<?xml version="1.0" encoding="utf-8"?>
<!-- Generator: Adobe Illustrator 24.0.1, SVG Export Plug-In . SVG Version: 6.00 Build 0)  -->
<svg version="1.1" id="Camada_1" xmlns="http://www.w3.org/2000/svg" xmlns:xlink="http://www.w3.org/1999/xlink" x="0px" y="0px"
	 viewBox="0 0 30 30" style="enable-background:new 0 0 30 30;" xml:space="preserve">
<style type="text/css">
	.st0{fill:#010202;stroke:#010202;stroke-width:0.2;}
	.st1{fill:none;stroke:#010202;}
	.st2{fill:none;stroke:#020304;}
	.st3{fill:none;stroke:#010202;stroke-linecap:round;stroke-linejoin:round;}
	.st4{fill:none;stroke:#010202;stroke-width:0.5;}
	.st5{fill:none;stroke:#010202;stroke-linecap:round;}
	.st6{fill:none;stroke:#020304;stroke-linecap:round;}
	.st7{fill:#010202;}
</style>
<path class="st2" d="M9.9,12.6h9.8"/>
<path class="st2" d="M9.9,10.3h9.8"/>
<path class="st2" d="M9.9,15.2h4.3"/>
<path class="st2" d="M19.8,3.8v3.8h3.8"/>
<path class="st2" d="M24,16.3v-7V7.5c0-0.1-3.7-4.1-3.9-4.1l-9,0c-0.2,0-1.6,0-2,0H8c-0.5,0-0.9,0.4-0.9,0.9c0,1.1,0,2.9,0,3.1v15.4
	c0,0.4,0.4,0.8,0.8,0.8h6.3"/>
<path class="st2" d="M20.7,27c2.6,0,4.7-2.1,4.7-4.7s-2.1-4.7-4.7-4.7S16,19.7,16,22.3S18.1,27,20.7,27z"/>
<path class="st2" d="M17.8,22l2,2.4l3.8-4"/>
</svg>
