<?xml version="1.0" encoding="UTF-8"?>
<svg width="18px" height="20px" viewBox="0 0 18 20" version="1.1" xmlns="http://www.w3.org/2000/svg" xmlns:xlink="http://www.w3.org/1999/xlink">
    <!-- Generator: Sketch 53 (72520) - https://sketchapp.com -->
    <title>ic-filter</title>
    <desc>Created with Sketch.</desc>
    <g id="Hotsite-Edinalva" stroke="none" stroke-width="1" fill="none" fill-rule="evenodd">
        <g id="Home" transform="translate(-667.000000, -1795.000000)">
            <g id="ic-filter" transform="translate(666.000000, 1795.000000)">
                <polygon id="Rectangle-path" points="0 -1.94216749e-15 20 -1.94216749e-15 20 20 0 20"></polygon>
                <g id="Group" transform="translate(0.833333, 0.000000)" stroke="#FFFFFF">
                    <path d="M17.5141667,2.61733333 C17.5141667,3.74333333 13.7768333,4.65608333 9.16666667,4.65608333 C4.5565,4.65608333 0.819166667,3.74325 0.819166667,2.61733333" id="Shape"></path>
                    <path d="M17.5141667,2.61725 C17.5141667,1.49133333 13.7768333,0.5785 9.16666667,0.5785 C4.5565,0.5785 0.819166667,1.49125 0.819166667,2.61725 C0.819166667,2.75425 0.875416667,2.88791667 0.980833333,3.01725 L0.979916667,3.01741667 L7.19325,12.51225 L7.19325,19.3575 L11.1681667,16.5800833 L11.1681667,12.5121667 L17.3530833,3.01733333 L17.3525,3.01733333 C17.4579167,2.888 17.5141667,2.75425 17.5141667,2.61725 L17.5141667,2.61725 Z" id="Shape"></path>
                </g>
            </g>
        </g>
    </g>
</svg>