<svg xmlns="http://www.w3.org/2000/svg" width="39.162" height="19" viewBox="0 0 39.162 19">
  <g id="Grupo_39789" data-name="Grupo 39789" transform="translate(-1517.301 -0.188)">
    <path id="Caminho_13978" data-name="Caminho 13978" d="M5.495,0H33.668c3.035,0,5.495,4.253,5.495,9.5S36.7,19,33.668,19H5.495C2.46,19,0,14.747,0,9.5S2.46,0,5.495,0Z" transform="translate(1556.463 19.188) rotate(180)" fill="#bbb"/>
    <g id="Grupo_39654" data-name="Grupo 39654" transform="translate(1538.756 1.188)">
      <circle id="Elipse_614" data-name="Elipse 614" cx="8.5" cy="8.5" r="8.5" transform="translate(17 17) rotate(180)" fill="#fff"/>
      <g id="Grupo_39645" data-name="Grupo 39645" transform="translate(2.491 3.188)">
        <path id="Shape" d="M133.576,306.9a2.057,2.057,0,0,0-1.781,1.034,1.14,1.14,0,0,0-1.138,0,2.077,2.077,0,1,0,.219.554.622.622,0,0,1,.7,0,2.056,2.056,0,1,0,2-1.587Z" transform="translate(-125.545 -301.044)" fill="#bbb"/>
        <path id="Shape-2" data-name="Shape" d="M100.114,140.586l-.808-2.627a1.178,1.178,0,0,0-1.586-.736l-.81.348a.567.567,0,0,1-.459,0l-.809-.349a1.178,1.178,0,0,0-1.586.736l-.808,2.628a5.082,5.082,0,0,0-2.174,1.322.294.294,0,0,0,.223.487h10.77a.294.294,0,0,0,.222-.487,5.082,5.082,0,0,0-2.173-1.323Z" transform="translate(-91 -137.128)" fill="#bbb"/>
      </g>
    </g>
  </g>
</svg>
