<svg xmlns="http://www.w3.org/2000/svg" width="16" height="16" viewBox="0 0 16 16">
    <path fill="#FFF" fill-rule="nonzero" d="M15.273 5.895H7.347v3.79h3.986c-.536 1.571-1.835 2.526-3.494 2.526-2.219 0-4.166-1.969-4.166-4.213 0-2.242 1.947-4.208 4.166-4.208 1.06 0 1.957.349 2.593 1.01l.289.3 2.733-2.82-.297-.298C11.863.685 10.025 0 7.839 0 3.444 0 0 3.513 0 7.998 0 12.485 3.444 16 7.839 16c4.051 0 6.93-2.452 7.513-6.4.075-.512.114-1.05.115-1.602 0-.605-.05-1.261-.135-1.755l-.06-.348z"/>
</svg>
