<svg xmlns="http://www.w3.org/2000/svg" width="76.917" height="99.848" viewBox="0 0 76.917 99.848">
  <g id="Grupo_37" data-name="Grupo 37" transform="translate(-155.614 -1434.19)">
    <path id="Caminho_1090" data-name="Caminho 1090" d="M682,1370.163v-8.973" transform="translate(-496.033 73)" fill="none" stroke="#9461f7" stroke-width="5"/>
    <path id="Caminho_1091" data-name="Caminho 1091" d="M671.19,1370.93h9.617" transform="translate(-508.596 84.319)" fill="none" stroke="#9461f7" stroke-width="5"/>
    <path id="Caminho_1092" data-name="Caminho 1092" d="M688.362,1370.93h9.619" transform="translate(-488.639 84.319)" fill="none" stroke="#9461f7" stroke-width="5"/>
    <path id="Caminho_1093" data-name="Caminho 1093" d="M686.608,1370.855l7.831-7.395" transform="translate(-490.678 75.638)" fill="none" stroke="#9461f7" stroke-width="5"/>
    <path id="Caminho_1094" data-name="Caminho 1094" d="M681.6,1370.855l-7.833-7.395" transform="translate(-505.597 75.638)" fill="none" stroke="#9461f7" stroke-width="5"/>
    <path id="Caminho_1095" data-name="Caminho 1095" d="M685,1393.973v-6.486a6.482,6.482,0,0,1,6.486-6.486h0a6.482,6.482,0,0,1,6.486,6.486V1398.3" transform="translate(-492.547 96.022)" fill="none" stroke="#9461f7" stroke-width="5"/>
    <path id="Caminho_1096" data-name="Caminho 1096" d="M703.973,1398.135v-8.648a6.486,6.486,0,1,0-12.973,0v6.486" transform="translate(-485.574 98.346)" fill="none" stroke="#9461f7" stroke-width="5"/>
    <path id="Caminho_1097" data-name="Caminho 1097" d="M679,1425.216v-49.729a6.486,6.486,0,0,1,12.973,0v32.432" transform="translate(-499.519 82.076)" fill="none" stroke="#9461f7" stroke-width="5"/>
    <path id="Caminho_1098" data-name="Caminho 1098" d="M692.872,1433.208a22.97,22.97,0,0,0-5.384-7.654c-9.842-11.481-17.9-34.075-17.9-34.075-2.517-6.573,5.777-9.362,8.419-5.189l3.6,5.989,8.869,15.135" transform="translate(-510.998 99.878)" fill="none" stroke="#9461f7" stroke-width="5"/>
    <path id="Caminho_1099" data-name="Caminho 1099" d="M697.523,1430.092a56.448,56.448,0,0,1,5.308-15.784c4.545-8.93,5.8-20.605,5.8-20.605,0-3.589-1.563-6.7-5.146-6.7a6.482,6.482,0,0,0-6.486,6.487" transform="translate(-478.601 102.995)" fill="none" stroke="#9461f7" stroke-width="5"/>
  </g>
</svg>