<svg xmlns="http://www.w3.org/2000/svg" width="14.505" height="17.126" viewBox="0 0 14.505 17.126">
  <g id="Grupo_39759" data-name="Grupo 39759" transform="translate(-39)">
    <path id="Caminho_13963" data-name="Caminho 13963" d="M392.633,0V2.665h2.676Z" transform="translate(-341.804)"/>
    <path id="Caminho_13964" data-name="Caminho 13964" d="M49.826,3.131V.023H39.587A.588.588,0,0,0,39,.61V10.754H53.5V3.69h-3.12A.56.56,0,0,1,49.826,3.131Z" transform="translate(0 -0.022)"/>
    <path id="Caminho_13965" data-name="Caminho 13965" d="M39,355.628a.588.588,0,0,0,.587.587h13.33a.588.588,0,0,0,.587-.587v-4.8H39Zm10.773-3.606a.174.174,0,0,1,.106-.161.607.607,0,0,1,.506,0,.174.174,0,0,1,.106.161v2.519h1.048a.169.169,0,0,1,.152.092.469.469,0,0,1,0,.441.169.169,0,0,1-.152.092H50.085a.408.408,0,0,1-.221-.057.182.182,0,0,1-.092-.163Zm-3.274.143a.335.335,0,0,1,.1-.271.382.382,0,0,1,.255-.087.643.643,0,0,1,.315.062.8.8,0,0,1,.241.3l.474.828.474-.828a.8.8,0,0,1,.241-.3.642.642,0,0,1,.315-.062.381.381,0,0,1,.255.087.335.335,0,0,1,.1.271v2.782a.179.179,0,0,1-.106.163.585.585,0,0,1-.506,0,.179.179,0,0,1-.106-.163v-1.724l-.441.754a.258.258,0,0,1-.239.133.235.235,0,0,1-.225-.133l-.437-.8v1.77a.179.179,0,0,1-.106.163.585.585,0,0,1-.506,0,.178.178,0,0,1-.106-.163Zm-2.648-.267a.177.177,0,0,1,.161-.092H46a.177.177,0,0,1,.161.092.411.411,0,0,1,.055.217.416.416,0,0,1-.058.226.178.178,0,0,1-.159.091h-.634v2.513a.18.18,0,0,1-.106.164.582.582,0,0,1-.506,0,.18.18,0,0,1-.106-.164v-2.513h-.634a.178.178,0,0,1-.159-.091.462.462,0,0,1,0-.442Zm-2.69.125a.174.174,0,0,1,.106-.161.608.608,0,0,1,.506,0,.174.174,0,0,1,.106.161v1.126h.915v-1.126a.174.174,0,0,1,.106-.161.608.608,0,0,1,.506,0,.174.174,0,0,1,.106.161v2.924a.178.178,0,0,1-.106.163.585.585,0,0,1-.506,0,.178.178,0,0,1-.106-.163V353.7h-.915v1.246a.178.178,0,0,1-.106.163.585.585,0,0,1-.506,0,.178.178,0,0,1-.106-.163Z" transform="translate(0 -339.089)"/>
  </g>
</svg>