<svg xmlns="http://www.w3.org/2000/svg" width="26.797" height="25.894" viewBox="0 0 26.797 25.894">
  <g id="baixa_definitiva" data-name="baixa definitiva" transform="translate(1.115 0.627)">
    <path id="Caminho_9688" data-name="Caminho 9688" d="M1563.936,2333H1545.23" transform="translate(-1539.004 -2308.483)" fill="none" stroke="#424242" stroke-linecap="round" stroke-width="1.5"/>
    <g id="Grupo_995" data-name="Grupo 995" transform="translate(1.086 0) rotate(3)">
      <path id="Caminho_6820" data-name="Caminho 6820" d="M15.489,9.2l-.143-.143a.908.908,0,0,0-1.126-.126l-7.4-7.4A.916.916,0,0,0,6.7.407L6.555.264a.915.915,0,0,0-1.286,0L.264,5.269a.915.915,0,0,0,0,1.286L.407,6.7a.908.908,0,0,0,1.121.126l7.4,7.4a.908.908,0,0,0,.126,1.121l.143.143a.905.905,0,0,0,1.286,0l5.005-5.005a.915.915,0,0,0,0-1.286" transform="translate(5 0)" fill="none" stroke="#424242" stroke-width="1.5"/>
      <path id="Caminho_6822" data-name="Caminho 6822" d="M8.994,0,0,8.994" transform="translate(0 11.758)" fill="none" stroke="#424242" stroke-linecap="round" stroke-width="1.5"/>
      <path id="Caminho_6824" data-name="Caminho 6824" d="M0,5.3,5.291,0" transform="translate(13.928 8.928)" fill="none" stroke="#424242" stroke-width="1.5"/>
      <path id="Caminho_6826" data-name="Caminho 6826" d="M0,5.291,5.3,0" transform="translate(6.527 1.533)" fill="none" stroke="#424242" stroke-width="1.5"/>
    </g>
  </g>
</svg>
