<svg xmlns="http://www.w3.org/2000/svg" width="25" height="22" viewBox="0 0 25 22">
    <g fill="none" fill-rule="evenodd">
        <path d="M.688 0h23.625v24H.688z"/>
        <path stroke="#000000" d="M4.656 4h15.688a2 2 0 0 1 2 2v11H2.656V6a2 2 0 0 1 2-2z"/>
        <path d="M10.532 4.484H3.84a.715.715 0 0 0-.71.72v11.8M21.875 17.021V5.204a.715.715 0 0 0-.708-.72h-6.67"/>
        <path stroke="#000000" d="M13.723 18.53v.304c0 .24-.191.434-.428.434h-1.583a.431.431 0 0 1-.428-.434v-.304H1.187v1.2c0 .442.353.8.787.8h21.059a.794.794 0 0 0 .787-.8v-1.2H13.723zM12.504 13.436V.894M15.475 10.417l-2.971 3.019-2.972-3.019"/>
    </g>
</svg>
