<svg xmlns="http://www.w3.org/2000/svg" width="73.885" height="97.172" viewBox="0 0 73.885 97.172">
  <g id="Grupo_1902" data-name="Grupo 1902" transform="translate(-1395.532 -795.555)">
    <path id="Caminho_7080" data-name="Caminho 7080" d="M1632.873,1130.15l-8.843,5.129,35.434,20.531,35.451-20.531-8.843-5.129" transform="translate(-226.998 -281.495)" fill="none" stroke="#000000" stroke-linecap="round" stroke-linejoin="round" stroke-width="3"/>
    <path id="Caminho_7081" data-name="Caminho 7081" d="M1632.873,1130.15l-8.843,5.129,35.434,20.531,35.451-20.531-8.843-5.129" transform="translate(-226.998 -299.18)" fill="none" stroke="#000000" stroke-linecap="round" stroke-linejoin="round" stroke-width="3"/>
    <path id="Caminho_7078" data-name="Caminho 7078" d="M1632.873,1140.67l-8.843,5.128,35.434,20.53,35.451-20.53-8.843-5.128" transform="translate(-226.998 -275.102)" fill="none" stroke="#000000" stroke-linecap="round" stroke-linejoin="round" stroke-width="3"/>
    <g id="Grupo_30" data-name="Grupo 30" transform="translate(1420.666 797.055)">
      <path id="Caminho_7073" data-name="Caminho 7073" d="M631.192,194.887a1.392,1.392,0,0,0,0-1.968l-7.051-7.049a1.394,1.394,0,0,0-.986-.408,1.376,1.376,0,0,0-.983.409l-26.263,26.262c-.325.324-4.9,11.859-5.076,12.284a1.39,1.39,0,0,0,1.811,1.81c.406-.164,11.976-4.764,12.281-5.078.191-.192,26.074-26.074,26.267-26.264Z" transform="translate(-590.73 -185.463)" fill="none" stroke="#000000" stroke-width="3" fill-rule="evenodd"/>
      <path id="Caminho_7075" data-name="Caminho 7075" d="M624.4,193.8l-23.5,23.47" transform="translate(-589.966 -184.837)" fill="none" stroke="#000000" stroke-width="3"/>
      <path id="Caminho_7076" data-name="Caminho 7076" d="M595.547,210.27l9.016,9.016" transform="translate(-590.368 -183.599)" fill="none" stroke="#000000" stroke-width="3"/>
      <path id="Caminho_7077" data-name="Caminho 7077" d="M591.6,219.774l3.051,3.052" transform="translate(-590.665 -182.885)" fill="none" stroke="#000000" stroke-width="3"/>
    </g>
  </g>
</svg>
