<!-- <svg xmlns="http://www.w3.org/2000/svg" width="68" height="54" viewBox="0 0 68 54">
    <g fill="none" fill-rule="evenodd">
        <path d="M-17-27H83V73H-17z"/>
        <path d="M-2-9h70v70H-2z"/>
        <g stroke="#9461F7" stroke-width="2">
            <path d="M41.174 33.292H.917M.917 1.208h65.625v32.084H47.814"/>
            <path d="M56.577 48.487l-4.14-5.463 3.718-.734a.7.7 0 0 0 .332-1.207L41.444 27.57c-.49-.442-1.272-.013-1.157.64l3.436 19.693a.7.7 0 0 0 1.183.375l2.975-2.98 3.716 6.527a.7.7 0 0 0 1 .234l3.813-2.569a.7.7 0 0 0 .167-1.003zM48.298 21.324a.857.857 0 0 0 1.385 0l5.72-7.06c.37-.507.067-1.359-.693-1.359H43.27c-.295 0-.59.2-.612.263a.848.848 0 0 0-.08 1.096l5.72 7.06zM31.538 32.976V1.208"/>
        </g>
    </g>
</svg> -->

<!-- Generator: Adobe Illustrator 25.2.1, SVG Export Plug-In . SVG Version: 6.00 Build 0)  -->
<svg version="1.1" id="Camada_1" xmlns="http://www.w3.org/2000/svg" xmlns:xlink="http://www.w3.org/1999/xlink" x="0px" y="0px"
	 viewBox="0 0 68 54" style="enable-background:new 0 0 68 54;" xml:space="preserve">
<style type="text/css">
	.st0{fill:#9461F7;}
</style>
<g>
	<path class="st0" d="M67.5,0.2H0.9v2h29.6v30.1H0.9v2h39.4l2.4,13.8c0.2,0.8,0.9,1.4,1.8,1.4c0.4,0,0.9-0.2,1.1-0.5l2.1-2.1
		l3.1,5.4c0.4,0.5,0.9,0.8,1.5,0.8c0.3,0,0.5-0.1,0.8-0.2l3.9-2.7c0.4-0.2,0.6-0.6,0.7-1.1c0.1-0.5,0-0.9-0.2-1.3l-3.3-4.3l2.2-0.4
		c0.8-0.2,1.4-0.9,1.4-1.8c0-0.5-0.3-0.9-0.5-1.1l-6.7-6.1h17.1V0.2z M50.6,42.3l5,6.5l-3.3,2.2l-4.2-7.4l-3.5,3.5l-3.2-18.3
		l13.9,12.5L50.6,42.3z M65.5,32.3H48.2l-6.1-5.5c-0.6-0.5-1.4-0.5-2-0.1c-0.6,0.4-0.9,1-0.8,1.7l0.7,3.9h-7.5V2.2h33V32.3z"/>
	<path class="st0" d="M47.5,21.9c0.3,0.4,0.7,0.7,1.2,0.7c0.1,0,0.2,0,0.3,0c0.4,0,0.8-0.1,1.1-0.4l6.1-7.5c0.4-0.5,0.5-1.3,0.2-2
		c-0.3-0.6-1-1-1.7-1H43.3c-0.5,0-1.2,0.3-1.5,0.8c-0.5,0.6-0.5,1.5,0,2.3L47.5,21.9z M54.4,13.8L49,20.6l-5.4-6.8H54.4z"/>
</g>
</svg>