<svg width="15" height="15" viewBox="0 0 15 15" fill="none" xmlns="http://www.w3.org/2000/svg">
<g id="logo">
<circle id="Ellipse" cx="7.5" cy="7.5" r="7" stroke="#979797"/>
<path id="Fill 1" fill-rule="evenodd" clip-rule="evenodd" d="M8.54018 8.91592C8.54018 8.9898 8.53309 9.09278 8.5193 9.22187C8.50588 9.34542 8.48584 9.45998 8.45928 9.56372C8.42442 9.70114 8.37176 9.83263 8.30279 9.95407C8.23541 10.0725 8.15171 10.1785 8.05375 10.2692C7.95794 10.358 7.8475 10.4299 7.72503 10.483C7.61058 10.5329 7.47767 10.558 7.32995 10.558C7.16824 10.558 7.02248 10.5202 6.88444 10.4424C6.72022 10.3501 6.55796 10.2276 6.40203 10.0784L6.13296 9.82086L5.45557 10.5822L5.70162 10.835C5.90545 11.0445 6.14069 11.2221 6.40073 11.3628C6.68089 11.5145 6.99358 11.5913 7.32995 11.5913C7.65588 11.5913 7.96186 11.5211 8.23941 11.3825C8.51305 11.2458 8.7509 11.0553 8.94709 10.816C9.13909 10.5816 9.28915 10.3044 9.3926 9.99245C9.49475 9.68516 9.54648 9.35174 9.54648 9.00148V4.09131H8.54018V8.91592" fill="#979797"/>
<path id="Fill 7" fill-rule="evenodd" clip-rule="evenodd" d="M5.64928 8.18182C5.64928 8.55838 5.34395 8.86364 4.96751 8.86364C4.59088 8.86364 4.28564 8.55838 4.28564 8.18182C4.28564 7.80526 4.59088 7.5 4.96751 7.5C5.34395 7.5 5.64928 7.80526 5.64928 8.18182" fill="#979797"/>
</g>
</svg>
