<svg width="12" height="12" viewBox="0 0 12 12" fill="none" xmlns="http://www.w3.org/2000/svg">
<circle cx="6" cy="6" r="3" stroke="#9461F7" stroke-width="6"/>
<path fill-rule="evenodd" clip-rule="evenodd" d="M6.83116 7.13313C6.83116 7.19223 6.8255 7.27461 6.81446 7.37789C6.80372 7.47673 6.78769 7.56837 6.76644 7.65136C6.73856 7.7613 6.69643 7.8665 6.64126 7.96365C6.58735 8.05836 6.52039 8.14318 6.44203 8.21576C6.36538 8.28681 6.27702 8.34431 6.17905 8.3868C6.08749 8.42669 5.98116 8.44682 5.86298 8.44682C5.73362 8.44682 5.617 8.41658 5.50658 8.35434C5.3752 8.28046 5.24539 8.18246 5.12065 8.0631L4.90539 7.85708L4.36348 8.46611L4.56032 8.66838C4.72339 8.83597 4.91158 8.97807 5.1196 9.09061C5.34374 9.21196 5.59389 9.27344 5.86298 9.27344C6.12372 9.27344 6.36851 9.21724 6.59055 9.10638C6.80947 8.99706 6.99975 8.84463 7.1567 8.65323C7.3103 8.46565 7.43034 8.24394 7.5131 7.99435C7.59482 7.74852 7.6362 7.48178 7.6362 7.20157V3.27344H6.83116V7.13313" fill="white"/>
<path fill-rule="evenodd" clip-rule="evenodd" d="M4.36337 7.09178C4.36337 7.39303 4.11911 7.63724 3.81795 7.63724C3.51665 7.63724 3.27246 7.39303 3.27246 7.09178C3.27246 6.79053 3.51665 6.54633 3.81795 6.54633C4.11911 6.54633 4.36337 6.79053 4.36337 7.09178" fill="white"/>
</svg>