<?xml version="1.0" encoding="utf-8"?>
<!-- Generator: Adobe Illustrator 23.0.6, SVG Export Plug-In . SVG Version: 6.00 Build 0)  -->
<svg version="1.1" id="Camada_1" xmlns="http://www.w3.org/2000/svg" xmlns:xlink="http://www.w3.org/1999/xlink" x="0px" y="0px"
	 viewBox="0 0 25 25" style="enable-background:new 0 0 25 25;" xml:space="preserve">
<style type="text/css">
	.st0{fill:none;stroke:#424242;}
	.st1{fill-rule:evenodd;clip-rule:evenodd;fill:#424242;}
</style>
<g>
	<circle class="st0" cx="12.5" cy="12.5" r="8.5"/>
	<path class="st1" d="M13.8,14.2c0,0.1,0,0.2,0,0.4c0,0.2,0,0.3-0.1,0.4c0,0.2-0.1,0.3-0.2,0.5c-0.1,0.1-0.2,0.3-0.3,0.4
		c-0.1,0.1-0.3,0.2-0.4,0.3c-0.1,0.1-0.3,0.1-0.5,0.1c-0.2,0-0.4,0-0.5-0.1c-0.2-0.1-0.4-0.3-0.6-0.4l-0.3-0.3L10,16.3l0.3,0.3
		c0.2,0.3,0.5,0.5,0.9,0.6c0.3,0.2,0.7,0.3,1.1,0.3c0.4,0,0.8-0.1,1.1-0.3c0.3-0.2,0.6-0.4,0.9-0.7c0.2-0.3,0.4-0.6,0.5-1
		c0.1-0.4,0.2-0.8,0.2-1.2v-6h-1.2V14.2z"/>
	<path class="st1" d="M10.2,13.3c0,0.5-0.4,0.8-0.8,0.8c-0.5,0-0.8-0.4-0.8-0.8c0-0.5,0.4-0.8,0.8-0.8C9.9,12.5,10.2,12.9,10.2,13.3
		z"/>
</g>
</svg>
