<svg xmlns="http://www.w3.org/2000/svg" width="18" height="24" viewBox="0 0 18 24">
    <g fill="#FFF" fill-rule="evenodd">
        <path d="M14.556 15.439c0 .236-.024.566-.071.979a7.388 7.388 0 0 1-.206 1.094c-.119.44-.3.86-.535 1.249-.23.379-.517.718-.852 1.008a4.012 4.012 0 0 1-1.125.684c-.392.16-.847.24-1.352.24a3.191 3.191 0 0 1-1.525-.37 8.271 8.271 0 0 1-1.651-1.164l-.92-.824L4 20.77l.842.809a9.885 9.885 0 0 0 2.393 1.689c.958.485 2.028.731 3.18.731a7.299 7.299 0 0 0 3.112-.668 7.313 7.313 0 0 0 2.422-1.813 8.066 8.066 0 0 0 1.524-2.635c.35-.984.527-2.05.527-3.171V0h-3.444v15.439M4 14a2 2 0 1 1-4 0 2 2 0 0 1 4 0"/>
    </g>
</svg>
