<svg xmlns="http://www.w3.org/2000/svg" width="38.89" height="39.276" viewBox="0 0 38.89 39.276">
  <g id="Grupo_3158" data-name="Grupo 3158" transform="translate(-205.502 -231.97)">
    <path id="Caminho_13885" data-name="Caminho 13885" d="M249.078,237.69l-.062-4.261a1.48,1.48,0,0,0-1.48-1.459H215.977a1.391,1.391,0,0,0-1.391,1.391v4.668h.009a1,1,0,0,0,.124.37l2.226,3.894a10.727,10.727,0,0,1,2.1-.4l-1.7-2.984h28.988l-2.887,5.052H226.431a10.866,10.866,0,0,1,2.077,2.021h13.776l-2.887,5.052h-8.715a10.855,10.855,0,0,1,.117,1.592c0,.144,0,.287-.009.429h7.452l-2.887,5.052H229.3a10.824,10.824,0,0,1-2.59,2.969v9.158a1.01,1.01,0,0,0,1.01,1.01l8.219-3.155a1.393,1.393,0,0,0,1.01-1.414v-7.289L248.945,238.4a1.009,1.009,0,0,0,.109-.71Zm-14.148,28.8-6.2,2.327V260.13h6.2Zm12.127-29.6h-30.45v-2.9h30.45Z" transform="translate(-4.686 0)"/>
    <g id="Grupo_3157" data-name="Grupo 3157" transform="translate(205.502 244.085)">
      <g id="Grupo_3156" data-name="Grupo 3156" transform="translate(0 0)">
        <path id="Caminho_13886" data-name="Caminho 13886" d="M222.5,270.016a8.486,8.486,0,0,0-14.34-9.077,8.321,8.321,0,0,0,1,10.272.357.357,0,0,1,.046.426l-3.275,5.173a1.977,1.977,0,0,0,.325,2.828l.157.1a1.977,1.977,0,0,0,2.7-.916l3.268-5.162a.363.363,0,0,1,.411-.152A8.32,8.32,0,0,0,222.5,270.016Zm-10.524.759a6.27,6.27,0,1,1,8.651-1.944A6.277,6.277,0,0,1,211.981,270.776Z" transform="translate(-205.502 -256.995)"/>
        <g id="Grupo_3155" data-name="Grupo 3155" transform="translate(4.857 3.304)">
          <path id="Caminho_13887" data-name="Caminho 13887" d="M216.6,269.36a.876.876,0,0,1-1.053-1.011,5.519,5.519,0,0,1,6.408-4.442.876.876,0,1,1-.312,1.723,3.766,3.766,0,0,0-4.372,3.031A.875.875,0,0,1,216.6,269.36Z" transform="translate(-215.534 -263.818)"/>
        </g>
      </g>
    </g>
  </g>
</svg>