<?xml version="1.0" encoding="UTF-8"?>
<svg width="34px" height="34px" viewBox="0 0 34 34" version="1.1" xmlns="http://www.w3.org/2000/svg" xmlns:xlink="http://www.w3.org/1999/xlink">
    <title>logo-menu</title>
    <g id="logo-menu" stroke="none" stroke-width="1" fill="none" fill-rule="evenodd">
        <g id="Group-2" transform="translate(-0.000000, 0.000000)" fill="#000000" fill-rule="nonzero">
            <path d="M16.8412776,33.6872248 L15.2039312,33.6872248 L15.2039312,29.4414015 L16.8412776,29.4414015 C21.9374563,29.4456258 26.5341814,26.3790127 28.4873323,21.6719695 C30.4404832,16.9649262 29.3652699,11.5447865 25.7632206,7.93974897 C22.1611714,4.33471143 16.7419252,3.25500384 12.0332639,5.20425071 C7.32460255,7.15349758 4.25417865,11.7476781 4.2541769,16.8438585 L4.2541769,18.5271509 L1.49213975e-13,18.5271509 L1.49213975e-13,16.8438585 C1.49213975e-13,10.0311628 4.10398046,3.88932826 10.3981714,1.28241763 C16.6923624,-1.324493 23.9371582,0.116936729 28.7541629,4.93453872 C33.5711675,9.75214071 35.0116989,16.9971153 32.4040078,23.2909829 C29.7963167,29.5848506 23.6539733,33.6880693 16.8412776,33.6872248 L16.8412776,33.6872248 Z" id="Path"></path>
            <path d="M26.3249386,16.8438585 C26.3757145,13.4225073 24.5795253,10.2390944 21.624721,8.51359305 C18.6699168,6.78809174 15.0147269,6.78809174 12.0599227,8.51359305 C9.10511847,10.2390944 7.30892924,13.4225073 7.35970516,16.8438585 L7.35970516,18.5271509 L11.6034398,18.5271509 L11.6034398,16.8438585 C11.6034398,13.9510806 13.9484997,11.6060207 16.8412776,11.6060207 C19.7340556,11.6060207 22.0791155,13.9510806 22.0791155,16.8438585 C22.0791155,19.7366365 19.7340556,22.0816964 16.8412776,22.0816964 L15.2039312,22.0816964 L15.2039312,26.325431 L16.8412776,26.325431 C22.0762355,26.3208269 26.3191816,22.0788152 26.3249386,16.8438585 Z" id="Path"></path>
            <polygon id="Path" points="11.6034398 22.0816964 2.93098879e-14 22.0816964 2.93098879e-14 26.325431 7.35970516 26.325431"></polygon>
            <polygon id="Path" points="11.6034398 33.6872246 7.35970516 33.6872246 7.35970516 26.325431 11.6034398 22.0816964"></polygon>
        </g>
    </g>
</svg>