<svg id="Grupo_3058" data-name="Grupo 3058" xmlns="http://www.w3.org/2000/svg" width="32" height="32" viewBox="0 0 32 32">
  <g id="Elipse_635" data-name="Elipse 635" fill="#d1dbe2" stroke="#343c4b" stroke-linejoin="round" stroke-width="1">
    <circle cx="16" cy="16" r="16" stroke="none"/>
    <circle cx="16" cy="16" r="15.5" fill="none"/>
  </g>
  <g id="Grupo_2852" data-name="Grupo 2852" transform="translate(8 8)">
    <path id="Caminho_4336" data-name="Caminho 4336" d="M1091.2,4170.847h5.367a.352.352,0,0,0,.309-.386v-1.375a.469.469,0,0,0-.092-.279c-1.351-1.639-5.08-3.4-5.08-3.4s-.01,0-.013,0" transform="translate(-1081.485 -4155.818)" fill="none" stroke="#343c4b" stroke-linejoin="round" stroke-width="1"/>
    <path id="Caminho_4337" data-name="Caminho 4337" d="M1068.066,4165.414c-.006,0-.012,0-.019,0s-3.615,1.722-4.964,3.4a.457.457,0,0,0-.094.279v1.375a.352.352,0,0,0,.3.386h5.213" transform="translate(-1062.99 -4155.818)" fill="none" stroke="#343c4b" stroke-linejoin="round" stroke-width="1"/>
    <path id="Caminho_4338" data-name="Caminho 4338" d="M1080.7,4141.927a8.239,8.239,0,0,0,.024-.965,3.335,3.335,0,0,0,1.188-2.208h.014a.552.552,0,0,0,.245-1.066,2.987,2.987,0,0,0,.191-1.048,3.544,3.544,0,0,0-7.063,0,3.062,3.062,0,0,0,.187,1.048.553.553,0,0,0,.248,1.066h.01a3.346,3.346,0,0,0,1.164,2.185,7.994,7.994,0,0,0,.024.991" transform="translate(-1071.091 -4133.39)" fill="none" stroke="#343c4b" stroke-linejoin="round" stroke-width="1"/>
    <path id="Caminho_4339" data-name="Caminho 4339" d="M1085.539,4166.219c.511.239-.11,1.529-.474,2.187a7.111,7.111,0,0,0-2.187.019c-.359-.649-.939-1.856-.484-2.206a3.4,3.4,0,0,1,3.145,0Z" transform="translate(-1076.273 -4155.875)" fill="none" stroke="#343c4b" stroke-linejoin="round" stroke-width="1" fill-rule="evenodd"/>
    <path id="Caminho_4340" data-name="Caminho 4340" d="M1087.84,4174.27l.023.2.23,2.017" transform="translate(-1079.567 -4160.598)" fill="none" stroke="#343c4b" stroke-linejoin="round" stroke-width="1"/>
    <path id="Caminho_4341" data-name="Caminho 4341" d="M1083.61,4176.511l.249-2.2" transform="translate(-1076.744 -4160.62)" fill="none" stroke="#343c4b" stroke-width="1"/>
  </g>
</svg>
