<svg xmlns="http://www.w3.org/2000/svg" width="23" height="23" viewBox="0 0 23 23">
    <g fill="none" fill-rule="evenodd">
        <path d="M-.053 0h23.04v23.04H-.053z"/>
        <g stroke="#424242">
            <path d="M11.466.631C5.474.631.6 5.505.6 11.497c0 5.99 4.873 10.865 10.865 10.865 5.99 0 10.865-4.874 10.865-10.865C22.331 5.505 17.457.63 11.466.63zM11.02 17.838v-1"/>
            <path d="M11.02 14.995v-2.109c0-.327.211-.616.524-.727 1.904-.676 3.49-1.706 3.49-3.457 0-1.909-1.761-3.456-3.934-3.456-1.463 0-2.74.701-3.417 1.743"/>
        </g>
    </g>
</svg>
