<?xml version="1.0" encoding="utf-8"?>
<!-- Generator: Adobe Illustrator 24.0.1, SVG Export Plug-In . SVG Version: 6.00 Build 0)  -->
<svg version="1.1" id="Camada_1" xmlns="http://www.w3.org/2000/svg" xmlns:xlink="http://www.w3.org/1999/xlink" x="0px" y="0px"
	 viewBox="0 0 30 30" style="enable-background:new 0 0 30 30;" xml:space="preserve">
<style type="text/css">
	.st0{fill:none;stroke:#020304;stroke-width:1.2;}
	.st1{fill:none;stroke:#010202;stroke-width:1.2;}
	.st2{fill:none;stroke:#020304;stroke-width:0.8;}
	.st3{fill:none;stroke:#020304;}
	.st4{fill:none;stroke:#020304;stroke-linecap:round;}
	.st5{fill:none;stroke:#010202;stroke-width:1.2;stroke-linecap:round;}
	.st6{fill:#010202;stroke:#010202;stroke-width:0.2;}
</style>
<path class="st6" d="M12.8,9.6v0.6h0.6c2.9,0.4,5.5,1.3,7.4,2.5s3.1,3.1,3.1,4.9h1.1c0-2.4-1.5-4.4-3.6-5.9c-2-1.3-4.5-2.2-7.4-2.7
	V7.9h-1.1L12.8,9.6z"/>
<path class="st6" d="M17.3,23.9c-0.1,0-0.1-0.1-0.1-0.3c0-0.1,0-0.3,0-0.3c0-0.1,0.1-0.1,0.3-0.3l0,0l0,0l0,0c2-0.8,2.9-2.2,2.9-3.5
	c0-1.1-0.8-2.2-2.1-2.9c-1.3-0.7-2.8-1.3-4.8-1.4l-0.6,0l0,0.6v1.5c0,0.3-0.1,0.6-0.4,0.7c-0.3,0.1-0.6,0.1-0.7,0l-5.3-4.6l-0.4,0.4
	l0.4-0.4c-0.4-0.3-0.6-1-0.1-1.3l-0.3-0.3l0.3,0.3l5.3-4.6c0.4-0.3,1.1,0,1.1,0.6H14c0-1.4-1.7-2.5-2.9-1.5l0,0l0,0l0,0l0.3,0.4l0,0
	L11,6.5l0,0l-5.3,4.6l0,0c-1,0.7-1,2.2,0,2.9l0,0l5.3,4.6l0,0l0,0l0,0l0.3-0.4l0,0L11,18.7l0,0c0.6,0.4,1.3,0.4,1.8,0.1
	c0.6-0.3,1.1-0.8,1.1-1.7l0,0l0,0v-0.8c1.5,0.3,2.7,0.7,3.6,1.1c1.1,0.7,1.5,1.4,1.5,2c0,0.7-0.6,1.7-2.4,2.5c0,0-1.7,0.7-0.8,2.2
	c0.2,0.3,0.4,0.7,0.7,0.8c0.4,0.1,0.8,0.3,1.3,0l-0.4-1.1C17.5,24.1,17.3,24.1,17.3,23.9z"/>
<path class="st6" d="M17.6,24.1l0.4,1.1c4.1-1.4,7-4.1,7-7.6h-1.1C23.8,20.3,21.5,22.6,17.6,24.1z"/>
<path class="st6" d="M15,0.9C7.1,0.9,0.7,7.4,0.7,15.2S7.1,29.5,15,29.5s14.3-6.5,14.3-14.3S23,0.9,15,0.9z M15,28.4
	c-7.3,0-13.2-5.9-13.2-13.2S7.7,2,15,2s13.2,5.9,13.2,13.2S22.3,28.4,15,28.4z"/>
</svg>
