<?xml version="1.0" encoding="utf-8"?>
<!-- Generator: Adobe Illustrator 24.0.1, SVG Export Plug-In . SVG Version: 6.00 Build 0)  -->
<svg version="1.1" id="Camada_1" xmlns="http://www.w3.org/2000/svg" xmlns:xlink="http://www.w3.org/1999/xlink" x="0px" y="0px"
	 viewBox="0 0 30 30" width="16px" height="16px" style="enable-background:new 0 0 30 30;" xml:space="preserve">
<style type="text/css">
	.st0{fill:#010202;stroke:#010202;stroke-width:0.2;}
	.st1{fill:none;stroke:#010202;}
	.st2{fill:none;stroke:#020304;}
	.st3{fill:none;stroke:#010202;stroke-linecap:round;stroke-linejoin:round;}
	.st4{fill:none;stroke:#010202;stroke-width:0.5;}
	.st5{fill:none;stroke:#010202;stroke-linecap:round;}
	.st6{fill:none;stroke:#020304;stroke-linecap:round;}
	.st7{fill:#010202;}
</style>
<g>
	<path class="st0" d="M14.1,9.2l0,0.4l0.4,0c2.1,0.3,3.9,0.9,5.3,1.8c1.4,0.9,2.2,2.2,2.2,3.5h0.8c0-1.7-1.1-3.1-2.6-4.2
		c-1.4-0.9-3.2-1.6-5.3-1.9l0-0.8l-0.8,0L14.1,9.2z"/>
	<polygon class="st0" points="14.6,13.3 14.1,13.2 14.1,13.7 14.5,13.7 	"/>
	<path class="st0" d="M17.3,19.4c-0.1,0-0.1-0.1-0.1-0.2c0-0.1,0-0.2,0-0.2c0-0.1,0.1-0.1,0.2-0.2c0,0,0,0,0,0l0,0v0
		c1.4-0.6,2.1-1.6,2.1-2.5c0-0.8-0.6-1.6-1.5-2.1c-0.9-0.5-2-0.9-3.4-1l0,0.4l-0.4,0l0,1.1c0,0.2-0.1,0.4-0.3,0.5
		c-0.2,0.1-0.4,0.1-0.5,0l-3.8-3.3l-0.3,0.3l0.3-0.3c-0.3-0.2-0.3-0.6,0-0.8l-0.3-0.3L9.5,11l3.8-3.3c0.3-0.2,0.8,0,0.8,0.4l0.8,0
		c0-1-1.2-1.8-2.1-1.1l0,0l0,0l0,0L13,7.3l0,0L12.8,7l0,0l-3.8,3.3l0,0c-0.7,0.5-0.7,1.6,0,2.1l0,0l3.8,3.3l0,0l0,0l0,0l0.2-0.3l0,0
		l-0.2,0.3l0,0c0.4,0.3,0.9,0.3,1.3,0.1c0.4-0.2,0.8-0.6,0.8-1.2v0v0l0-0.6c1.1,0.2,1.9,0.5,2.6,0.8c0.8,0.5,1.1,1,1.1,1.4
		c0,0.5-0.4,1.2-1.7,1.8l0.2,0.4L17,18.4l0.1,0.2l-0.2-0.4l0,0c0,0,0,0,0,0h0l0,0l0,0c-0.6,0.3-0.8,1-0.6,1.4
		c0.1,0.2,0.3,0.5,0.5,0.6c0.3,0.1,0.6,0.2,0.9,0l-0.3-0.8C17.4,19.5,17.3,19.5,17.3,19.4z"/>
	<path class="st0" d="M17.5,19.5l0.3,0.8c2.9-1,5-2.9,5-5.4l-0.8,0C21.9,16.8,20.3,18.5,17.5,19.5z"/>
</g>
<rect x="17.7" y="19.8" transform="matrix(0.9439 -0.3303 0.3303 0.9439 -5.5925 7.0436)" class="st7" width="0.4" height="0.4"/>
<polygon class="st7" points="17.5,19.5 17.9,19.3 17.1,19.6 "/>
<polygon class="st7" points="9.2,12.2 9.5,11.8 9.5,11.8 9.5,11.8 "/>
<polygon class="st7" points="9.2,10.7 9.5,11 9.5,11 9.5,11 "/>
<polygon class="st7" points="14.5,8.1 14.9,8.1 14.9,8.1 "/>
<polygon class="st7" points="14.5,8.1 14.1,8.1 14.1,8.1 "/>
<polygon class="st7" points="22.4,14.9 22.8,14.9 22.8,14.9 "/>
<polygon class="st7" points="13.7,8.1 13.2,8.1 13.2,8.1 "/>
<path class="st0" d="M15.6,3C10,3,5.4,7.6,5.4,13.2c0,5.6,4.6,10.2,10.2,10.2c5.6,0,10.2-4.6,10.2-10.2C25.8,7.6,21.3,3,15.6,3z
	 M15.6,22.6c-5.2,0-9.4-4.2-9.4-9.4c0-5.2,4.2-9.4,9.4-9.4c5.2,0,9.4,4.2,9.4,9.4C25,18.4,20.8,22.6,15.6,22.6z"/>
<rect x="17.2" y="19.4" transform="matrix(0.9439 -0.3302 0.3302 0.9439 -5.5017 6.911)" class="st7" width="0.8" height="0.4"/>
<polygon class="st7" points="14.9,8.1 14.9,8.1 14.9,8.1 14.9,8.1 14.9,8.1 14.9,8.1 14.9,8.1 14.9,8.1 14.9,8.1 14.9,8.1 14.9,8.1
	14.9,8.1 14.9,8.1 14.9,8.1 14.9,8.1 14.9,8.1 14.9,8.1 14.9,8.1 14.9,8.1 14.9,8.1 14.9,8.1 14.9,8.1 14.9,8.1 14.9,8.1 14.9,8.1
	14.9,8.1 14.9,8.1 14.9,8.1 14.9,8.1 14.9,8.1 14.9,8.1 14.9,8.1 14.9,8.1 14.9,8.1 14.9,8.1 14.9,8.1 14.9,8.1 14.9,8.1 14.9,8.1
	14.9,8.1 14.9,8.1 14.9,8.1 14.9,8.1 14.9,8.1 14.9,8.1 14.9,8.1 14.9,8.1 14.9,8.1 14.9,8.1 14.9,8.1 14.9,8.1 14.9,8.1 14.9,8.1
	14.9,8.1 14.9,8.1 14.9,8.1 14.9,8.1 14.9,8.1 14.9,8.1 14.9,8.1 14.9,8.1 14.9,8.1 14.9,8.1 14.9,8.1 14.9,8.1 14.9,8.1 14.9,8.1
	14.9,8.1 14.9,8.1 14.9,8.1 14.9,8.1 14.9,8.1 14.9,8.1 14.9,8.1 14.9,8.1 14.9,8.1 14.9,8.1 14.9,8.1 14.9,8.1 14.9,8.1 14.9,8.1
	14.9,8.1 14.9,8.1 14.9,8.1 14.9,8.1 14.9,8.1 14.9,8.1 14.9,8.1 14.9,8.1 14.9,8.1 14.9,8.1 14.9,8.1 14.9,8.1 14.9,8.1 14.9,8.1
	14.9,8.1 14.9,8.1 14.9,8.1 14.9,8.1 14.9,8.1 14.9,8.1 14.9,8.1 14.9,8.1 14.9,8.1 14.9,8.1 14.9,8.1 14.9,8.1 14.9,8.1 14.9,8.1
	14.9,8.1 14.9,8.1 14.9,8.1 14.9,8.1 14.9,8.1 14.9,8.1 14.9,8.1 14.9,8.1 14.9,8.1 14.9,8.1 14.9,8.1 14.9,8.1 14.9,8.1 14.9,8.1
	14.9,8.1 14.9,8.1 14.9,8.1 14.9,8.1 14.9,8.1 14.9,8.1 14.9,8.1 14.9,8.1 14.9,8.1 14.9,8.1 14.9,8.1 14.9,8.1 14.9,8.1 14.9,8.1
	14.9,8.1 14.9,8.1 14.9,8.1 14.9,8.1 14.9,8.1 14.9,8.1 14.9,8.1 14.9,8.1 14.9,8.1 14.9,8.1 14.9,8.1 14.9,8.1 14.9,8.1 14.9,8.1
	14.9,8.1 14.9,8.1 14.9,8.1 14.9,8.1 14.9,8.1 14.9,8.1 14.9,8.1 14.9,8.1 14.9,8.1 14.9,8.1 14.9,8.1 14.9,8.1 14.9,8.1 14.9,8.1
	14.9,8.1 14.9,8.1 14.9,8.1 14.9,8.1 14.9,8.1 14.9,8.1 14.9,8.1 14.9,8.1 14.9,8.1 14.9,8.1 14.9,8.1 14.9,8.1 14.9,8.1 14.9,8.1
	14.9,8.1 14.9,8.1 14.9,8.1 14.9,8.1 14.9,8.1 14.9,8.1 14.9,8.1 14.9,8.1 14.9,8.1 14.9,8.1 14.9,8.1 14.9,8.1 14.9,8.1 14.9,8.1
	14.9,8.1 14.9,8.1 14.9,8.1 14.9,8.1 14.9,8.1 14.9,8.1 14.9,8.1 14.9,8.1 14.9,8.1 14.9,8.1 14.9,8.1 14.9,8.1 14.9,8.1 14.9,8.1
	14.9,8.1 14.9,8.1 14.9,8.1 14.9,8.1 14.9,8.1 14.9,8.1 14.9,8.1 14.9,8.1 14.9,8.1 14.9,8.1 14.9,8.1 14.9,8.1 14.9,8.1 14.9,8.1
	14.9,8.1 14.9,8.1 14.9,8.1 14.9,8.1 14.9,8.1 14.9,8.1 14.9,8.1 14.9,8.1 14.9,8.1 14.9,8.1 14.9,8.1 14.9,8.1 14.9,8.1 14.9,8.1
	14.9,8.1 14.9,8.1 14.9,8.1 14.9,8.1 14.9,8.1 14.9,8.1 14.9,8.1 14.9,8.1 14.9,8.1 14.9,8.1 14.9,8.1 14.9,8.1 14.9,8.1 14.9,8.1
	14.9,8.1 14.9,8.1 14.9,8.1 14.9,8.1 14.9,8.1 14.9,8.1 14.9,8.1 14.9,8.1 14.9,8.1 14.9,8.1 14.9,8.1 14.9,8.1 14.9,8.1 14.9,8.1
	14.9,8.1 14.9,8.1 14.9,8.1 14.9,8.1 14.9,8.1 14.9,8.1 14.9,8.1 14.9,8.1 14.9,8.1 14.9,8.1 14.9,8.1 14.9,8.1 14.9,8.1 14.9,8.1
	14.9,8.1 14.9,8.1 14.9,8.1 14.9,8.1 14.9,8.1 14.9,8.1 14.9,8.1 14.9,8.1 14.9,8.1 14.9,8.1 14.9,8.1 14.9,8.1 14.9,8.1 14.9,8.1
	14.9,8.1 14.9,8.1 14.9,8.1 14.9,8.1 14.9,8.1 14.9,8.1 14.1,8.1 14.1,8.1 14.1,8.1 14.1,8.1 14.1,8.1 14.1,8.1 14.1,8.1 14.1,8.1
	14.1,8.1 14.1,8.1 14.1,8.1 14.1,8.1 14.1,8.1 14.1,8.1 14.1,8.1 14.1,8.1 14.1,8.1 14.1,8.1 14.1,8.1 14.1,8.1 14.1,8.1 14.1,8.1
	14.1,8.1 14.1,8.1 14.1,8.1 14.1,8.1 14.1,8.1 14.1,8.1 14.1,8.1 14.1,8.1 14.1,8.1 14.1,8.1 14.1,8.1 14.1,8.1 14.1,8.1 14.1,8.1
	14.1,8.1 14.1,8.1 14.1,8.1 14.1,8.1 14.1,8.1 14.1,8.1 14.1,8.1 14.1,8.1 14.1,8.1 14.1,8.1 14.1,8.1 14.1,8.1 14.1,8.1 14.1,8.1
	14.1,8.1 14.1,8.1 14.1,8.1 14.1,8.1 14.1,8.1 14.1,8.1 14.1,8.1 14.1,8.1 14.1,8.1 14.1,8.1 14.1,8.1 14.1,8.1 14.1,8.1 14.1,8.1
	14.1,8.1 14.1,8.1 14.1,8.1 14.1,8.1 14.1,8.1 14.1,8.1 14.1,8.1 14.1,8.1 14.1,8.1 14.1,8.1 14.1,8.1 14.1,8.1 14.1,8.1 14.1,8.1
	14.1,8.1 14.1,8.1 14.1,8.1 14.1,8.1 14.1,8.1 14.1,8.1 14.1,8.1 14.1,8.1 14.1,8.1 14.1,8.1 14.1,8.1 14.1,8.1 14.1,8.1 14.1,8.1
	14.1,8.1 14.1,8.1 14.1,8.1 14.1,8.1 14.1,8.1 14.1,8.1 14.1,8.1 14.1,8.1 14.1,8.1 14.1,8.1 14.1,8.1 14.1,8.1 14.1,8.1 14.1,8.1
	14.1,8.1 14.1,8.1 14.1,8.1 14.1,8.1 14.1,8.1 14.1,8.1 14.1,8.1 14.1,8.1 14.1,8.1 14.1,8.1 14.1,8.1 14.1,8.1 14.1,8.1 14.1,8.1
	14.1,8.1 14.1,8.1 14.1,8.1 14.1,8.1 14.1,8.1 14.1,8.1 14.1,8.1 14.1,8.1 14.1,8.1 14.1,8.1 14.1,8.1 14.1,8.1 14.1,8.1 14.1,8.1
	14.1,8.1 14.1,8.1 14.1,8.1 14.1,8.1 14.1,8.1 14.1,8.1 14.1,8.1 14.1,8.1 14.1,8.1 14.1,8.1 14.1,8.1 14.1,8.1 14.1,8.1 14.1,8.1
	14.1,8.1 14.1,8.1 14.1,8.1 14.1,8.1 14.1,8.1 14.1,8.1 14.1,8.1 14.1,8.1 14.1,8.1 14.1,8.1 14.1,8.1 14.1,8.1 14.1,8.1 14.1,8.1
	14.1,8.1 14.1,8.1 14.1,8.1 14.1,8.1 14.1,8.1 14.1,8.1 14.1,8.1 14.1,8.1 14.1,8.1 14.1,8.1 14.1,8.1 14.1,8.1 14.1,8.1 14.1,8.1
	14.1,8.1 14.1,8.1 14.1,8.1 14.1,8.1 14.1,8.1 14.1,8.1 14.1,8.1 14.1,8.1 14.1,8.1 14.1,8.1 14.1,8.1 14.1,8.1 14.1,8.1 14.1,8.1
	14.1,8.1 14.1,8.1 14.1,8.1 14.1,8.1 14.1,8.1 14.1,8.1 14.1,8.1 14.1,8.1 14.1,8.1 14.1,8.1 14.1,8.1 14.1,8.1 14.1,8.1 14.1,8.1
	14.1,8.1 14.1,8.1 14.1,8.1 14.1,8.1 14.1,8.1 14.1,8.1 14.1,8.1 14.1,8.1 14.1,8.1 14.1,8.1 14.1,8.1 14.1,8.1 14.1,8.1 14.1,8.1
	14.1,8.1 14.1,8.1 14.1,8.1 14.1,8.1 14.1,8.1 14.1,8.1 14.1,8.1 14.1,8.1 14.1,8.1 14.1,8.1 14.1,8.1 14.1,8.1 14.1,8.1 14.1,8.1
	14.1,8.1 14.1,8.1 14.1,8.1 14.1,8.1 14.1,8.1 14.1,8.1 14.1,8.1 14.1,8.1 14.1,8.1 14.1,8.1 14.1,8.1 14.1,8.1 14.1,8.1 14.1,8.1
	14.1,8.1 14.1,8.1 14.1,8.1 14.1,8.1 14.1,8.1 14.1,8.1 14.1,8.1 14.1,8.1 14.1,8.1 14.1,8.1 14.1,8.1 14.1,8.1 14.1,8.1 14.1,8.1
	14.1,8.1 14.1,8.1 14.1,8.1 14.1,8.1 14.1,8.1 14.1,8.1 14.1,8.1 14.1,8.1 14.1,8.1 14.1,8.1 14.1,8.1 14.1,8.1 14.1,8.1 14.1,8.1
	14.1,8.1 14.1,8.1 14.1,8.1 14.1,8.1 14.1,8.1 14.1,8.1 14.1,8.1 14.1,8.1 14.1,8.1 14.1,8.1 14.1,8.1 14.1,8.1 14.1,8.1 14.1,8.1
	14.1,8.1 14.1,8.1 14.1,8.1 14.1,8.1 14.1,8.1 14.1,8.1 14.1,8.1 14.1,8.1 14.1,8.1 "/>
<!-- <rect x="13.2" y="8.1" class="st7" width="0" height="0"/> -->
</svg>
