<svg xmlns="http://www.w3.org/2000/svg" width="24.258" height="24.108" viewBox="0 0 24.258 24.108">
  <g id="Grupo_39666" data-name="Grupo 39666" transform="translate(-1146.051 -163.23)">
    <path id="Caminho_4234" data-name="Caminho 4234" d="M609.839,4059.11c3.255,1.851,5.606,5.358,4.355,7.744-1.311,2.5-5.231,3.093-8.756,1.32a8.906,8.906,0,0,1-4.354-4.88" transform="translate(554.752 -3890.068)" fill="none" stroke="#9461f7" stroke-width="2"/>
    <path id="Caminho_4235" data-name="Caminho 4235" d="M600.21,4066.079a.779.779,0,1,0-.8-.779A.789.789,0,0,0,600.21,4066.079Z" transform="translate(555.607 -3892.843)" fill="none" stroke="#9461f7" stroke-width="2" fill-rule="evenodd"/>
    <path id="Caminho_4236" data-name="Caminho 4236" d="M583.059,4063.885v6.892c0,1.476,3.919,2.674,8.767,2.674s8.767-1.2,8.767-2.674v-17.427" transform="translate(563.997 -3887.114)" fill="none" stroke="#9461f7" stroke-width="2"/>
    <path id="Caminho_4237" data-name="Caminho 4237" d="M583.061,4053.351s-.012,7.769-.012,7.778c0,1.539,2.617,1.539,2.617.02,0,0,0-2.323,0-2.323v-.02h0v.02c0,1.768,3.219,1.768,3.219,0,0,0,0-.015,0-.02h0v-3.561" transform="translate(564.002 -3887.114)" fill="none" stroke="#9461f7" stroke-width="2"/>
    <path id="Caminho_4238" data-name="Caminho 4238" d="M591.819,4053.249c4.843,0,8.77-.9,8.77-2.012s-3.926-2.007-8.77-2.007-8.77.9-8.77,2.007S586.975,4053.249,591.819,4053.249Z" transform="translate(564.002 -3885)" fill="none" stroke="#9461f7" stroke-width="2" fill-rule="evenodd"/>
  </g>
</svg>
