<svg xmlns="http://www.w3.org/2000/svg" width="24" height="24" viewBox="0 0 24 24">
    <g fill="none" fill-rule="evenodd">
        <path d="M0 0h24v24H0z"/>
        <path fill="#f3f4f5" stroke="#f3f4f5" d="M23.5 2.879A2.379 2.379 0 0 0 21.121.5H2.88A2.379 2.379 0 0 0 .5 2.879v18.243A2.379 2.379 0 0 0 2.879 23.5H21.12a2.379 2.379 0 0 0 2.379-2.379V2.88z"/>
        <path stroke="#FFF" d="M.5 6.5h23M14.44 11.271l2.068-.763v8.915M6.67 10.508h5.344l-3.472 4.26s3.851-.3 3.472 2.734c-.37 2.955-4.703 2.29-5.664.517"/>
    </g>
</svg>
