<?xml version="1.0" encoding="utf-8"?>
<!-- Generator: Adobe Illustrator 24.0.1, SVG Export Plug-In . SVG Version: 6.00 Build 0)  -->
<svg version="1.1" id="Camada_1" xmlns="http://www.w3.org/2000/svg" xmlns:xlink="http://www.w3.org/1999/xlink" x="0px" y="0px"
	 viewBox="0 0 30 30" style="enable-background:new 0 0 30 30;" xml:space="preserve" width="16px" height="16px">
<style type="text/css">
	.st0{fill:none;stroke:#424242;stroke-width:1.2;}
	.st1{fill:none;stroke:#424242;stroke-width:1.2;}
	.st2{fill:none;stroke:#424242;stroke-width:0.8;}
	.st3{fill:none;stroke:#424242;}
	.st4{fill:none;stroke:#424242;stroke-linecap:round;}
	.st5{fill:none;stroke:#424242;stroke-width:1.2;stroke-linecap:round;}
	.st6{fill:#424242;stroke:#424242;stroke-width:0.2;}
	.st7{fill:none;stroke:#424242;stroke-width:1.2;}
</style>
<g>
	<path class="st1" d="M19.6,27.7c3.2,0,5.8-2.6,5.8-5.8s-2.6-5.8-5.8-5.8s-5.8,2.6-5.8,5.8S16.4,27.7,19.6,27.7z"/>
	<path class="st7" d="M17.5,22.2h4.9"/>
	<path class="st7" d="M25.2,5l-9.1,8.2c-0.7,0.6-1.8,0.6-2.5,0L4.5,5"/>
	<path class="st7" d="M10.6,14.1l-6.1,5.1"/>
	<path class="st7" d="M26.5,21.8c1-0.4,1.7-1.3,1.7-2.5V5c0-1.5-1.2-2.6-2.7-2.6H4.4C2.9,2.3,1.8,3.5,1.8,5v14.3
		c0,1.5,1.2,2.6,2.7,2.6h7.6"/>
</g>
</svg>
