<svg xmlns="http://www.w3.org/2000/svg" width="127.596" height="128.036" viewBox="0 0 127.596 128.036">
  <g id="Grupo_39387" data-name="Grupo 39387" transform="translate(0)">
    <g id="Font_choices_as_flex" data-name="Font choices as flex" transform="translate(40.014 40.198)" style="isolation: isolate">
      <text id="NPS" transform="translate(21 29)" fill="#343c4b" font-size="19" font-family="Montserrat-Bold, Montserrat" font-weight="700" style="isolation: isolate"><tspan x="-20.691" y="0">NPS</tspan></text>
    </g>
    <path id="Caminho_10445" data-name="Caminho 10445" d="M27.389,33.072l4.293-9.123A36.723,36.723,0,0,1,9.643,0L0,2.878A46.834,46.834,0,0,0,27.389,33.072Z" transform="translate(20.813 42.205) rotate(39)" fill="#343c4b"/>
    <path id="Caminho_10446" data-name="Caminho 10446" d="M10.065,19.085A36.344,36.344,0,0,1,13.136,4.439L4.1,0A46.486,46.486,0,0,0,1.378,30.323l9.739-2.546A36.513,36.513,0,0,1,10.065,19.085Z" transform="translate(37.779 18.27) rotate(39)" fill="#343c4b"/>
    <path id="Caminho_10447" data-name="Caminho 10447" d="M88.277,46.633A46.62,46.62,0,0,0,0,25.688l9.021,4.456A36.571,36.571,0,1,1,30.236,81.369L26,90.557A46.621,46.621,0,0,0,88.277,46.633Z" transform="translate(58.992 0) rotate(39)" fill="#343c4b"/>
  </g>
</svg>