<svg xmlns="http://www.w3.org/2000/svg" width="155" height="157.842" viewBox="0 0 155 157.842">
  <g id="Componente_3_1" data-name="Componente 3 – 1" transform="translate(2 2)">
    <path id="Caminho_7093" data-name="Caminho 7093" d="M2551.659,244.821c-26.928-4.664-42.908-27.344-42.908-54.968,0-31,21.434-55.853,49.326-55.853h51.13c27.936,0,50.544,23.7,50.544,54.7s-22.608,54.7-50.544,54.7H2593.1L2551.659,285V244.821Z" transform="translate(-2508.751 -134)" fill="#9461f7" stroke="#9461f7" stroke-width="4" fill-rule="evenodd"/>
    <g id="Grupo_41" data-name="Grupo 41" transform="translate(44.568 20.233)">
      <path id="Caminho_7088" data-name="Caminho 7088" d="M33.482,47.035a26.816,26.816,0,0,1-.2,2.775,21.461,21.461,0,0,1-.567,3.1,13.964,13.964,0,0,1-1.477,3.541A12.018,12.018,0,0,1,28.89,59.31a11.017,11.017,0,0,1-3.1,1.939,9.632,9.632,0,0,1-3.73.681,8.614,8.614,0,0,1-4.206-1.049,22.821,22.821,0,0,1-4.554-3.3l-2.54-2.336L4.363,62.148l2.323,2.293a27.282,27.282,0,0,0,6.6,4.787A18.805,18.805,0,0,0,22.058,71.3a19.678,19.678,0,0,0,8.585-1.894,20.227,20.227,0,0,0,6.681-5.138,23.018,23.018,0,0,0,4.206-7.47,27.43,27.43,0,0,0,1.453-8.989V3.273h-9.5V47.035" transform="translate(8.919 -3.273)" fill="#fff" fill-rule="evenodd"/>
      <path id="Caminho_7089" data-name="Caminho 7089" d="M16.553,13.187a6.64,6.64,0,1,1-6.64-6.64,6.641,6.641,0,0,1,6.64,6.64" transform="translate(-3.272 18.802)" fill="#fff" fill-rule="evenodd"/>
    </g>
  </g>
</svg>
