<svg xmlns="http://www.w3.org/2000/svg" width="22" height="23" viewBox="0 0 22 23">
    <g fill="none" fill-rule="evenodd">
        <path d="M-1.014 0h24v23.04h-24z"/>
        <g stroke="#424242">
            <path d="M21.105 15.981c-1.152-1.178-3.65-4.32-3.447-9.265.121-2.924-1.528-4.474-3.207-5.293a7.793 7.793 0 0 0-6.777 0c-1.68.82-3.329 2.37-3.208 5.293.204 4.944-2.294 8.087-3.447 9.265M21.105 15.981c-5.476 4.283-14.616 4.278-20.086 0M8.801 20.676c0 .945 1.014 1.714 2.261 1.714s2.261-.769 2.261-1.714"/>
        </g>
    </g>
</svg>
