<?xml version="1.0" encoding="utf-8"?>
<!-- Generator: Adobe Illustrator 24.0.1, SVG Export Plug-In . SVG Version: 6.00 Build 0)  -->
<svg version="1.1" id="Camada_1" xmlns="http://www.w3.org/2000/svg" xmlns:xlink="http://www.w3.org/1999/xlink" x="0px"
	y="0px" viewBox="0 0 30 30" style="enable-background:new 0 0 30 30;" xml:space="preserve" width="16px"
	height="16px">
	<style type="text/css">
		.st9 {
			fill: none;
			stroke: #9461f7;
			stroke-width: 2px;
		}
	</style>
	<path class="st9" d="M21.6,18c-0.2-0.2-0.6-0.3-0.9,0c0,0-1.8,1.8-2,1.9c0,0-0.1,0.1-0.1,0.1c-1.9,1-8.8-6.3-7.5-7.7l2-1.9
	c0.3-0.2,0.3-0.7,0-0.9L6.6,2.9C6.5,2.8,6.3,2.8,6.2,2.7C6,2.7,5.8,2.8,5.7,2.9C2.5,6.1-2.7,9.2,9.4,21.4c11.9,12,15.4,7.5,18.7,4
	c0.2-0.2,0.2-0.6,0-0.9L21.6,18L21.6,18z" />
</svg>