<svg xmlns="http://www.w3.org/2000/svg" width="36" height="48" viewBox="0 0 36 48"><defs><style>.a,.b{fill:none;stroke:#424242;stroke-width:2px;}.b{fill-rule:evenodd;}</style></defs><g transform="translate(-157.592 -30)"><path class="a" d="M1494.97,195h-17.9" transform="translate(-1310.408 -154)"/><path class="a" d="M1494.97,201h-17.9" transform="translate(-1310.408 -154)"/><path class="a" d="M1494.97,207h-17.9" transform="translate(-1310.408 -154)"/><path class="a" d="M1490.92,213h-13.85" transform="translate(-1310.408 -154)"/><path class="b" d="M1494.03,224.457a2.441,2.441,0,1,0-2.44-2.441A2.439,2.439,0,0,0,1494.03,224.457Z" transform="translate(-1310.408 -154)"/><path class="b" d="M1503,189.73a4.732,4.732,0,0,0-4.73-4.73h-24.54a4.732,4.732,0,0,0-4.73,4.73v36.54a4.732,4.732,0,0,0,4.73,4.73h24.54a4.732,4.732,0,0,0,4.73-4.73V189.73Z" transform="translate(-1310.408 -154)"/></g></svg>