<svg xmlns="http://www.w3.org/2000/svg" width="48" height="48" viewBox="0 0 48 48"><defs><style>.a,.b{fill:none;stroke:#424242;stroke-width:2px;}.a{fill-rule:evenodd;}</style></defs><g transform="translate(1 1)"><path class="a" d="M1429,1152.31a2.684,2.684,0,0,1-2.69,2.69h-40.62a2.684,2.684,0,0,1-2.69-2.69v-40.62a2.691,2.691,0,0,1,2.69-2.69h40.62a2.691,2.691,0,0,1,2.69,2.69v40.62Z" transform="translate(-1383 -1109)"/><path class="b" d="M1405.09,1127H1399" transform="translate(-1383 -1109)"/><path class="b" d="M1405.09,1135H1399" transform="translate(-1383 -1109)"/><path class="a" d="M1395.83,1123a8,8,0,1,0,0,16H1399v-16Z" transform="translate(-1383 -1109)"/><path class="b" d="M1399,1122v18" transform="translate(-1383 -1109)"/><path class="b" d="M1413,1127h3.66" transform="translate(-1383 -1109)"/><path class="b" d="M1413,1135h3.66" transform="translate(-1383 -1109)"/><path class="a" d="M1416.3,1123a8,8,0,0,1,0,16H1413v-16Z" transform="translate(-1383 -1109)"/><path class="b" d="M1387.61,1131H1383" transform="translate(-1383 -1109)"/><path class="b" d="M1429,1131h-4.75" transform="translate(-1383 -1109)"/></g></svg>