<svg xmlns="http://www.w3.org/2000/svg" width="43.851" height="46.735" viewBox="0 0 43.851 46.735">
  <path id="Caminho_1608" data-name="Caminho 1608" d="M1091,1800.98h-10.09l-13.83,15.52v8.5h37.8v-8.5Z" transform="translate(-1064.06 -1782.085)" fill="none" stroke="#000" stroke-width="2" fill-rule="evenodd"/>
  <path id="Caminho_1609" data-name="Caminho 1609" d="M1071.06,1825.06v3.76" transform="translate(-1064.06 -1782.085)" fill="none" stroke="#000" stroke-width="2"/>
  <path id="Caminho_1610" data-name="Caminho 1610" d="M1100.91,1825.06v3.76" transform="translate(-1064.06 -1782.085)" fill="none" stroke="#000" stroke-width="2"/>
  <path id="Caminho_1611" data-name="Caminho 1611" d="M1080.91,1798.92v2.06" transform="translate(-1064.06 -1782.085)" fill="none" stroke="#000" stroke-width="2"/>
  <path id="Caminho_1612" data-name="Caminho 1612" d="M1091.03,1798.92v2.06" transform="translate(-1064.06 -1782.085)" fill="none" stroke="#000" stroke-width="2"/>
  <path id="Caminho_1613" data-name="Caminho 1613" d="M1085.98,1820.78a6.67,6.67,0,1,0-6.67-6.67A6.662,6.662,0,0,0,1085.98,1820.78Z" transform="translate(-1064.06 -1782.085)" fill="none" stroke="#000" stroke-width="2" fill-rule="evenodd"/>
  <path id="Caminho_1614" data-name="Caminho 1614" d="M1085.98,1816.87a2.76,2.76,0,1,0-2.76-2.76A2.766,2.766,0,0,0,1085.98,1816.87Z" transform="translate(-1064.06 -1782.085)" fill="none" stroke="#000" stroke-width="2" fill-rule="evenodd"/>
  <path id="Caminho_1615" data-name="Caminho 1615" d="M1106.43,1789.68h-.01c-1.55-4.55-8.24-6.71-20.44-6.59-12.2-.12-18.88,2.04-20.44,6.59h0a24.877,24.877,0,0,0-.45,6.34.842.842,0,0,0,.84.78l11.99.05a.82.82,0,0,0,.84-.78s.06-3.31.07-3.36c.8-2.33,13.5-2.35,14.3,0,.02.05.07,3.36.07,3.36a.823.823,0,0,0,.85.78l11.99-.05a.826.826,0,0,0,.83-.78,24.868,24.868,0,0,0-.44-6.34Z" transform="translate(-1064.06 -1782.085)" fill="none" stroke="#000" stroke-width="2" fill-rule="evenodd"/>
</svg>