<svg xmlns="http://www.w3.org/2000/svg" width="44.836" height="42.433" viewBox="0 0 44.836 42.433">
  <g id="Grupo_3072" data-name="Grupo 3072" transform="translate(-911.561 -289.838)">
    <path id="Caminho_1608" data-name="Caminho 1608" d="M1092.574,1800.98H1081.82l-14.74,13.574v7.434h40.288v-7.434Z" transform="translate(-153.25 -1493.058)" fill="none" stroke="#000" stroke-width="1" fill-rule="evenodd"/>
    <path id="Caminho_1609" data-name="Caminho 1609" d="M1071.06,1825.06v3.289" transform="translate(-153.749 -1496.077)" fill="none" stroke="#000" stroke-width="1"/>
    <path id="Caminho_1610" data-name="Caminho 1610" d="M1100.91,1825.06v3.289" transform="translate(-150.264 -1496.077)" fill="none" stroke="#000" stroke-width="1"/>
    <path id="Caminho_1611" data-name="Caminho 1611" d="M1080.91,1798.92v1.8" transform="translate(-152.247 -1494.032)" fill="none" stroke="#000" stroke-width="1"/>
    <path id="Caminho_1612" data-name="Caminho 1612" d="M1091.03,1798.92v1.8" transform="translate(-151.767 -1494.032)" fill="none" stroke="#000" stroke-width="1"/>
    <path id="Caminho_1613" data-name="Caminho 1613" d="M1085.144,1819.107a5.834,5.834,0,1,0-5.833-5.834A5.827,5.827,0,0,0,1085.144,1819.107Z" transform="translate(-151.17 -1494.348)" fill="none" stroke="#000" stroke-width="1" fill-rule="evenodd"/>
    <path id="Caminho_1614" data-name="Caminho 1614" d="M1085.634,1816.178a2.414,2.414,0,1,0-2.414-2.414A2.419,2.419,0,0,0,1085.634,1816.178Z" transform="translate(-151.66 -1494.932)" fill="none" stroke="#000" stroke-width="1" fill-rule="evenodd"/>
    <path id="Caminho_1615" data-name="Caminho 1615" d="M1108.391,1788.853h-.01c-1.623-3.979-8.631-5.869-21.409-5.764-12.779-.1-19.775,1.784-21.409,5.764h0c-.513,1.242-.524,4.242-.471,5.545a.832.832,0,0,0,.88.682l12.559.044a.811.811,0,0,0,.88-.682s.063-2.895.073-2.938c.838-2.038,14.14-2.055,14.978,0,.021.044.073,2.938.073,2.938a.815.815,0,0,0,.89.682l12.559-.044a.813.813,0,0,0,.869-.682,18.249,18.249,0,0,0-.461-5.545Z" transform="translate(-152.998 -1492.747)" fill="none" stroke="#000" stroke-width="1" fill-rule="evenodd"/>
  </g>
</svg>