<svg xmlns="http://www.w3.org/2000/svg" width="41.814" height="49.15" viewBox="0 0 41.814 49.15">
  <g id="Grupo_3149" data-name="Grupo 3149" transform="translate(-75.623 -3.687)">
    <g id="Grupo_3146" data-name="Grupo 3146" transform="translate(97.504 24.181)">
      <path id="Caminho_13875" data-name="Caminho 13875" d="M305.571,213.656l-6.087-10.836a3.91,3.91,0,0,0-6.818,0l-6.087,10.836a3.67,3.67,0,0,0,3.2,5.467h12.594a3.67,3.67,0,0,0,3.2-5.467Zm-3.2,4.3H289.778a2.5,2.5,0,0,1-2.181-3.727l6.087-10.836a2.742,2.742,0,0,1,4.782,0l6.087,10.836a2.5,2.5,0,0,1-2.181,3.727Z" transform="translate(-286.108 -200.825)"/>
      <path id="Caminho_13876" data-name="Caminho 13876" d="M372.961,248.223c-.8,0-1.046.591-1.046,1.317v3.806c0,.727.271,1.317,1.046,1.317.754,0,1.046-.591,1.046-1.317V249.54C374.008,248.814,373.716,248.223,372.961,248.223Z" transform="translate(-362.995 -243.296)"/>
      <path id="Caminho_13877" data-name="Caminho 13877" d="M372.961,316.592a1.07,1.07,0,1,0,1.046,1.069A1.059,1.059,0,0,0,372.961,316.592Z" transform="translate(-362.995 -304.557)"/>
    </g>
    <g id="Grupo_3148" data-name="Grupo 3148" transform="translate(75.623 3.687)">
      <g id="Grupo_3147" data-name="Grupo 3147">
        <path id="Caminho_13878" data-name="Caminho 13878" d="M100.564,28.433,96.33,26.794h0V24.775a6.746,6.746,0,0,0,2.553-4.438,3.117,3.117,0,0,0,1.831-.747,3.057,3.057,0,0,0,.319-4.313V12.61a8.923,8.923,0,1,0-17.846,0v2.737a2.891,2.891,0,0,0-.742,1.927,3.051,3.051,0,0,0,1.062,2.316,3.115,3.115,0,0,0,1.83.746,6.675,6.675,0,0,0,2.7,4.544v1.912l-8.6,3.334-.014.005A6.426,6.426,0,0,0,75.623,36V51a1.84,1.84,0,0,0,1.838,1.838h6.86a.72.72,0,1,0,0-1.44H82.771V37.219a.72.72,0,0,0-1.44,0V51.4h-3.87a.4.4,0,0,1-.4-.4V36a4.989,4.989,0,0,1,2.9-4.534l5.168-2L87.4,34.013a1.261,1.261,0,0,0,1.129.7,1.632,1.632,0,0,0,1.031-.447l.58.873L87.992,47.854l0,.022a1.291,1.291,0,0,0,.311,1.036L90.56,51.4H87.68a.72.72,0,1,0,0,1.44h19.234A1.84,1.84,0,0,0,108.752,51V44.231a.72.72,0,0,0-1.44,0V51a.4.4,0,0,1-.4.4h-3.87V47.122a.72.72,0,1,0-1.44,0V51.4H93.811l2.26-2.486a1.29,1.29,0,0,0,.311-1.035c0-.007,0-.015,0-.022L94.227,35.137l.58-.873a1.633,1.633,0,0,0,1.031.447,1.261,1.261,0,0,0,1.128-.7h0l2.27-4.55.965.374a1.881,1.881,0,0,0,.568-.116.782.782,0,0,0,.232-.754A.755.755,0,0,0,100.564,28.433Zm-2.676.508-2.117,4.242-2.546-1.808,2.614-3.227ZM93.632,33.43l-.549.826h-1.8l-.549-.826L92.185,32.4Zm-4.157-6.4V25.678a7.3,7.3,0,0,0,2.722.516,6.759,6.759,0,0,0,2.693-.561v1.4l-2.705,3.339Zm10.861-9.752a1.613,1.613,0,0,1-.561,1.224,1.678,1.678,0,0,1-.831.383V15.668A1.629,1.629,0,0,1,100.336,17.274ZM85.276,18.881a1.627,1.627,0,0,1-1.392-1.607,1.71,1.71,0,0,1,1.392-1.57Zm.039-4.645a3.559,3.559,0,0,0-.688.155V12.61a7.483,7.483,0,1,1,14.966,0v1.732a3.2,3.2,0,0,0-.649-.125c0-.695.006-.561-2.267-3a1.281,1.281,0,0,0-1.636-.2,13.881,13.881,0,0,1-8.392,2.259A1.28,1.28,0,0,0,85.315,14.237Zm1.4,5.211V14.72a15.386,15.386,0,0,0,9-2.427C96.757,13.412,97.322,14,97.5,14.222v5.226a5.394,5.394,0,0,1-10.787,0ZM88.6,33.183l-2.117-4.242,2.044-.792,2.615,3.228Zm.826,14.826L91.51,35.7H92.86l2.084,12.313-2.759,3.036Z" transform="translate(-75.623 -3.687)"/>
      </g>
    </g>
    <circle id="Elipse_637" data-name="Elipse 637" cx="0.722" cy="0.722" r="0.722" transform="translate(99.684 28.423)"/>
  </g>
</svg>