<svg xmlns="http://www.w3.org/2000/svg" width="20.336" height="16.066" viewBox="0 0 20.336 16.066">
  <g id="Adv_ednalva" data-name="Adv+ednalva" transform="translate(0.8)">
    <g id="Grupo_2794" data-name="Grupo 2794" transform="translate(3.829 0)">
      <path id="Caminho_11614" data-name="Caminho 11614"
        d="M4732.989,1114.283H4733c.114,1.571,1.352,3.142,2.869,3.142s2.749-1.571,2.863-3.142h.017a.6.6,0,0,0,.226-1.139,3.644,3.644,0,0,0,.175-1.131,3.289,3.289,0,1,0-6.567,0,3.7,3.7,0,0,0,.177,1.131.6.6,0,0,0,.227,1.139Z"
        transform="translate(-4728.015 -1108.536)" fill="#673eb7" fill-rule="evenodd" />
      <path id="Caminho_11615" data-name="Caminho 11615"
        d="M4742.969,1124.591c-1.439-1.306-5.541-2.687-5.589-2.665a5.4,5.4,0,0,1-4.314,0c-.048-.022-4.117,1.328-5.6,2.665a.294.294,0,0,0-.105.22v1.094a.319.319,0,0,0,.335.3h15.039a.318.318,0,0,0,.333-.3v-1.094a.29.29,0,0,0-.105-.22Z"
        transform="translate(-4727.364 -1112.935)" fill="#673eb7" fill-rule="evenodd" />
    </g>
    <g id="Grupo_40504" data-name="Grupo 40504" transform="translate(-495.167 -170.327)">
      <g id="Grupo_2794-2" data-name="Grupo 2794" transform="translate(495.167 171.847)">
        <g id="Grupo_40505" data-name="Grupo 40505">
          <g id="Caminho_11614-2" data-name="Caminho 11614" transform="translate(-4728.018 -1107.962)" fill="#673eb7"
            stroke-linejoin="round" fill-rule="evenodd">
            <path
              d="M 4735.87353515625 1117.825073242188 C 4734.17431640625 1117.825073242188 4732.88330078125 1116.209838867188 4732.63818359375 1114.60302734375 C 4732.34130859375 1114.474609375 4732.11669921875 1114.206420898438 4732.05224609375 1113.876831054688 C 4731.9873046875 1113.555053710938 4732.087890625 1113.226806640625 4732.30517578125 1112.994995117188 C 4732.22705078125 1112.677856445313 4732.1875 1112.352661132813 4732.1865234375 1112.024658203125 C 4732.11279296875 1110.658569335938 4732.7939453125 1109.372436523438 4733.9658203125 1108.666015625 C 4734.541015625 1108.319091796875 4735.19970703125 1108.1357421875 4735.87109375 1108.1357421875 C 4736.54248046875 1108.1357421875 4737.201171875 1108.319091796875 4737.7763671875 1108.666015625 C 4738.94873046875 1109.373779296875 4739.62890625 1110.65966796875 4739.5537109375 1112.0244140625 C 4739.5546875 1112.35107421875 4739.51513671875 1112.67626953125 4739.43701171875 1112.994750976563 C 4739.65380859375 1113.22607421875 4739.7548828125 1113.554321289063 4739.6904296875 1113.878051757813 C 4739.625 1114.20751953125 4739.3994140625 1114.475708007813 4739.10302734375 1114.603637695313 C 4738.85791015625 1116.210205078125 4737.5693359375 1117.825073242188 4735.87353515625 1117.825073242188 Z"
              stroke="none" />
            <path
              d="M 4735.87353515625 1117.425048828125 C 4737.39208984375 1117.425048828125 4738.62255859375 1115.854248046875 4738.73681640625 1114.283203125 L 4738.75341796875 1114.283203125 C 4739.02294921875 1114.26318359375 4739.24560546875 1114.0654296875 4739.29833984375 1113.800048828125 C 4739.35107421875 1113.53466796875 4739.22119140625 1113.266357421875 4738.97900390625 1113.144287109375 C 4739.09619140625 1112.778564453125 4739.15576171875 1112.397216796875 4739.15380859375 1112.013671875 C 4739.22509765625 1110.79541015625 4738.61376953125 1109.638671875 4737.56982421875 1109.008544921875 C 4737.04736328125 1108.693359375 4736.45947265625 1108.535766601563 4735.87109375 1108.535766601563 C 4735.28271484375 1108.535766601563 4734.69482421875 1108.693359375 4734.17236328125 1109.008544921875 C 4733.12744140625 1109.638427734375 4732.51708984375 1110.795166015625 4732.58642578125 1112.013427734375 C 4732.58642578125 1112.397216796875 4732.64599609375 1112.77880859375 4732.76318359375 1113.144287109375 C 4732.52099609375 1113.266845703125 4732.39111328125 1113.534912109375 4732.44482421875 1113.80029296875 C 4732.49658203125 1114.065673828125 4732.72021484375 1114.26318359375 4732.98974609375 1114.283203125 L 4733.00439453125 1114.283203125 C 4733.11865234375 1115.854248046875 4734.35595703125 1117.425048828125 4735.87353515625 1117.425048828125 M 4732.98974609375 1114.283203125 L 4732.98876953125 1114.283203125 L 4732.98974609375 1114.283203125 M 4735.87353515625 1118.22509765625 C 4734.92578125 1118.22509765625 4734.015625 1117.778930664063 4733.3095703125 1116.968872070313 C 4732.79345703125 1116.376708984375 4732.43115234375 1115.630004882813 4732.27783203125 1114.8623046875 C 4731.96484375 1114.661010742188 4731.7353515625 1114.338256835938 4731.66015625 1113.956420898438 C 4731.5849609375 1113.580810546875 4731.66943359375 1113.20068359375 4731.8740234375 1112.897094726563 C 4731.8173828125 1112.614135742188 4731.7880859375 1112.326049804688 4731.78662109375 1112.0361328125 C 4731.708984375 1110.525634765625 4732.46337890625 1109.104736328125 4733.75927734375 1108.323364257813 C 4734.396484375 1107.93896484375 4735.126953125 1107.735717773438 4735.87109375 1107.735717773438 C 4736.615234375 1107.735717773438 4737.345703125 1107.93896484375 4737.98291015625 1108.323486328125 C 4739.279296875 1109.10595703125 4740.03271484375 1110.526245117188 4739.9541015625 1112.034912109375 C 4739.95361328125 1112.32421875 4739.9248046875 1112.612548828125 4739.8681640625 1112.896728515625 C 4740.07275390625 1113.200073242188 4740.15771484375 1113.580200195313 4740.0830078125 1113.955932617188 C 4740.0068359375 1114.33837890625 4739.77685546875 1114.66162109375 4739.46337890625 1114.862915039063 C 4739.310546875 1115.630493164063 4738.94970703125 1116.37646484375 4738.435546875 1116.967895507813 C 4737.7314453125 1117.778564453125 4736.82177734375 1118.22509765625 4735.87353515625 1118.22509765625 Z"
              stroke="none" fill="#fff" />
          </g>
          <g id="Caminho_11615-2" data-name="Caminho 11615" transform="translate(-4727.364 -1112.463)" fill="#673eb7"
            stroke-linejoin="round" fill-rule="evenodd">
            <path
              d="M 4727.68310546875 1126.608154296875 C 4727.50537109375 1126.608154296875 4727.33447265625 1126.54248046875 4727.201171875 1126.42333984375 C 4727.0595703125 1126.296508789063 4726.9755859375 1126.120361328125 4726.96435546875 1125.927368164063 L 4726.9638671875 1125.915649414063 L 4726.9638671875 1125.903930664063 L 4726.96484375 1124.810180664063 L 4726.96484375 1124.805786132813 L 4726.96484375 1124.801391601563 C 4726.96923828125 1124.603881835938 4727.0576171875 1124.417846679688 4727.20703125 1124.289672851563 C 4728.017578125 1123.5595703125 4729.51025390625 1122.854858398438 4730.62109375 1122.391967773438 C 4731.4482421875 1122.047119140625 4732.8447265625 1121.525756835938 4733.06396484375 1121.525756835938 L 4733.1533203125 1121.525756835938 L 4733.2294921875 1121.560913085938 C 4733.8623046875 1121.836181640625 4734.533203125 1121.975708007813 4735.2236328125 1121.975708007813 C 4735.9130859375 1121.975708007813 4736.58251953125 1121.836547851563 4737.21435546875 1121.56201171875 L 4737.2900390625 1121.526000976563 L 4737.38232421875 1121.525756835938 C 4737.59814453125 1121.525756835938 4739.0029296875 1122.054077148438 4739.83740234375 1122.403686523438 C 4740.95263671875 1122.870849609375 4742.4482421875 1123.578247070313 4743.23779296875 1124.294555664063 L 4744.00537109375 1124.990844726563 L 4743.470703125 1124.990844726563 L 4743.470703125 1125.904296875 L 4743.470703125 1125.91357421875 L 4743.47021484375 1125.9228515625 C 4743.46142578125 1126.112182617188 4743.37646484375 1126.293823242188 4743.236328125 1126.421020507813 C 4743.10498046875 1126.54150390625 4742.9326171875 1126.608154296875 4742.75244140625 1126.608154296875 C 4742.7451171875 1126.608154296875 4742.73779296875 1126.608032226563 4742.73046875 1126.607788085938 L 4727.70654296875 1126.607788085938 C 4727.69873046875 1126.608032226563 4727.69091796875 1126.608154296875 4727.68310546875 1126.608154296875 Z"
              stroke="none" />
            <path
              d="M 4727.68310546875 1126.208129882813 C 4727.68798828125 1126.208129882813 4727.693359375 1126.2080078125 4727.69873046875 1126.207763671875 L 4742.73779296875 1126.207763671875 C 4742.74267578125 1126.2080078125 4742.74755859375 1126.208129882813 4742.75244140625 1126.208129882813 C 4742.83154296875 1126.208129882813 4742.90869140625 1126.178955078125 4742.96728515625 1126.125244140625 C 4743.02978515625 1126.068359375 4743.06689453125 1125.98876953125 4743.07080078125 1125.904296875 L 4743.07080078125 1124.810546875 C 4743.06982421875 1124.725341796875 4743.03076171875 1124.64501953125 4742.96533203125 1124.5908203125 L 4742.96923828125 1124.5908203125 C 4741.54150390625 1123.295532226563 4737.4951171875 1121.92578125 4737.38232421875 1121.92578125 C 4737.38134765625 1121.92578125 4737.380859375 1121.92578125 4737.38037109375 1121.926025390625 C 4736.69287109375 1122.225830078125 4735.95849609375 1122.375732421875 4735.2236328125 1122.375732421875 C 4734.48876953125 1122.375732421875 4733.75390625 1122.225830078125 4733.06591796875 1121.926025390625 C 4733.0654296875 1121.925903320313 4733.06494140625 1121.92578125 4733.06396484375 1121.92578125 C 4732.95166015625 1121.92578125 4728.9365234375 1123.265380859375 4727.47021484375 1124.5908203125 C 4727.40478515625 1124.6455078125 4727.36669921875 1124.725341796875 4727.36474609375 1124.810546875 L 4727.36376953125 1125.904296875 C 4727.36865234375 1125.98876953125 4727.40478515625 1126.068603515625 4727.46826171875 1126.12548828125 C 4727.52783203125 1126.178833007813 4727.603515625 1126.208129882813 4727.68310546875 1126.208129882813 M 4727.68310546875 1127.008178710938 C 4727.40673828125 1127.008178710938 4727.140625 1126.90625 4726.93408203125 1126.72119140625 C 4726.71337890625 1126.5234375 4726.58251953125 1126.249755859375 4726.56494140625 1125.950561523438 C 4726.56396484375 1125.934936523438 4726.56396484375 1125.919189453125 4726.56396484375 1125.903564453125 L 4726.56494140625 1124.809814453125 C 4726.56494140625 1124.803955078125 4726.56494140625 1124.798095703125 4726.56494140625 1124.792236328125 C 4726.572265625 1124.483032226563 4726.708984375 1124.191772460938 4726.94189453125 1123.989868164063 C 4727.626953125 1123.373901367188 4728.81298828125 1122.712158203125 4730.46728515625 1122.022827148438 C 4731.13623046875 1121.743896484375 4731.71533203125 1121.530883789063 4732.0830078125 1121.401245117188 C 4732.86474609375 1121.125732421875 4732.9482421875 1121.125732421875 4733.06396484375 1121.125732421875 C 4733.173828125 1121.125732421875 4733.28466796875 1121.148681640625 4733.3857421875 1121.192626953125 L 4733.3857421875 1121.192626953125 C 4733.96875 1121.446899414063 4734.58740234375 1121.57568359375 4735.2236328125 1121.57568359375 C 4735.85986328125 1121.57568359375 4736.47802734375 1121.446899414063 4737.060546875 1121.192749023438 C 4737.16162109375 1121.148681640625 4737.27197265625 1121.125732421875 4737.38232421875 1121.125732421875 C 4737.5029296875 1121.125732421875 4737.58251953125 1121.125732421875 4738.37060546875 1121.406372070313 C 4738.7392578125 1121.537719726563 4739.31982421875 1121.753295898438 4739.99169921875 1122.03466796875 C 4741.65673828125 1122.73193359375 4742.83935546875 1123.392578125 4743.5068359375 1123.998291015625 C 4743.52978515625 1124.019409179688 4743.5517578125 1124.041625976563 4743.57177734375 1124.064819335938 C 4743.76025390625 1124.263061523438 4743.86767578125 1124.525146484375 4743.87060546875 1124.801391601563 C 4743.87060546875 1124.804443359375 4743.87060546875 1124.807495117188 4743.87060546875 1124.810546875 L 4743.87060546875 1125.904296875 C 4743.87060546875 1125.916625976563 4743.87060546875 1125.928955078125 4743.8701171875 1125.941284179688 C 4743.85595703125 1126.240234375 4743.7265625 1126.515747070313 4743.505859375 1126.716796875 C 4743.30078125 1126.904296875 4743.03271484375 1127.008056640625 4742.75244140625 1127.008056640625 C 4742.74365234375 1127.008056640625 4742.734375 1127.007934570313 4742.72509765625 1127.0078125 L 4727.71240234375 1127.0078125 C 4727.70263671875 1127.008056640625 4727.69287109375 1127.008178710938 4727.68310546875 1127.008178710938 Z"
              stroke="none" fill="#fff" />
          </g>
        </g>
      </g>
      <g id="download" transform="translate(472.552 170.538)">
        <g id="Grupo_2852" data-name="Grupo 2852" transform="translate(29.372 10.9)">
          <g id="Grupo_40481" data-name="Grupo 40481">
            <path id="Caminho_4339" data-name="Caminho 4339"
              d="M1084.145,4166.006c.3.11.072.723-.141,1.027a2.373,2.373,0,0,0-1.562,0c-.209-.3-.531-.865-.266-1.027A6.9,6.9,0,0,0,1084.145,4166.006Z"
              transform="translate(-1082.15 -4165.835)" fill="#fff" fill-rule="evenodd" />
            <path id="Caminho_13994" data-name="Caminho 13994"
              d="M.595,1.8a1.308,1.308,0,0,1,.734-.16,1.13,1.13,0,0,1,.7.16l.594,2.684H.048Z"
              transform="translate(-0.241 -0.326)" fill="#fff" />
          </g>
        </g>
      </g>
    </g>
  </g>
</svg>