<svg xmlns="http://www.w3.org/2000/svg" width="42.28" height="41.877" viewBox="0 0 42.28 41.877">
  <path id="Caminho_1629" data-name="Caminho 1629" d="M1333.97,1811.63a.957.957,0,0,0-1.34-.02c-.12.12-2.91,2.87-3.06,2.95-2.84,1.44-13.11-9.55-11.15-11.61l2.93-2.87a.951.951,0,0,0,.01-1.35l-9.57-9.77a.963.963,0,0,0-1.36-.01c-4.79,4.71-12.48,9.44,5.48,27.75,17.72,18.08,22.8,11.23,27.69,5.97a.964.964,0,0,0-.02-1.33l-9.61-9.71Z" transform="translate(-1303.62 -1787.563)" fill="none" stroke="#000" stroke-width="2" fill-rule="evenodd"/>
  <path id="Caminho_1630" data-name="Caminho 1630" d="M1327.99,1797.1h17.91" transform="translate(-1303.62 -1787.563)" fill="none" stroke="#000" stroke-width="2"/>
  <path id="Caminho_1631" data-name="Caminho 1631" d="M1336.95,1788.15v17.9" transform="translate(-1303.62 -1787.563)" fill="none" stroke="#000" stroke-width="2"/>
</svg>