<svg xmlns="http://www.w3.org/2000/svg" width="40.088" height="40.049" viewBox="0 0 40.088 40.049"><defs><style>.a,.b{fill:none;stroke:#424242;stroke-width:2px;}.b{fill-rule:evenodd;}</style></defs><g transform="translate(-155.725 -33.74)"><path class="a" d="M691.132,723.781v1.964a1.321,1.321,0,0,1-1.309,1.323H664.311a1.316,1.316,0,0,1-1.3-1.323V690.352a1.325,1.325,0,0,1,1.3-1.333h20.2a.96.96,0,0,1,.747.389l5.48,5.407a1.073,1.073,0,0,1,.39.821v3.414" transform="translate(-506.284 -654.279)"/><path class="a" d="M670.874,714.929h9.944" transform="translate(-507.644 -658.757)"/><path class="a" d="M670.874,720.987h9.944" transform="translate(-507.644 -659.805)"/><path class="a" d="M670.874,708.871h9.944" transform="translate(-507.644 -657.71)"/><path class="b" d="M705.194,719.911c-2.682-1.1-5.661-2.465-5.911-3.316V715.7a5.75,5.75,0,0,0,1.255-2.432,1.5,1.5,0,0,0,.263-2.1v-2c0-2.062-1.083-3.474-3.558-3.474a3.2,3.2,0,0,0-3.56,3.474v2a1.5,1.5,0,0,0,.263,2.1A5.751,5.751,0,0,0,695.2,715.7v.892c-.25.85-3.228,2.216-5.911,3.316a.637.637,0,0,0-.38.594v2.232a.614.614,0,0,0,.59.635h15.482a.614.614,0,0,0,.591-.635V720.5a.636.636,0,0,0-.38-.594Z" transform="translate(-510.761 -657.162)"/><path class="a" d="M689.009,689.019v6.617h6.617" transform="translate(-510.778 -654.279)"/></g></svg>