<?xml version="1.0" encoding="utf-8"?>
<!-- Generator: Adobe Illustrator 24.0.1, SVG Export Plug-In . SVG Version: 6.00 Build 0)  -->
<svg version="1.1" id="Camada_1" xmlns="http://www.w3.org/2000/svg" xmlns:xlink="http://www.w3.org/1999/xlink" x="0px" y="0px"
	 viewBox="0 0 24 24" style="enable-background:new 0 0 24 24;" xml:space="preserve">
<style type="text/css">
	.st0 {
    fill:none;
    /* stroke: #020203; */
		stroke: #424242;
		stroke-width: 2px;
  }
</style>
<g>
	<path class="st0" d="M13.4,20.4c0.2,0.2,0.6,0.2,0.8,0c1.7-1.7,2-4.6,0.7-7.2l4.2-4.2c1.2,0.4,2.4,0.3,3.4-0.3
		c0.3-0.2,0.4-0.6,0.1-0.9l-6.4-6.4c-0.3-0.3-0.7-0.2-0.9,0.1c-0.5,1-0.6,2.2-0.3,3.4l-4.2,4.2C9.7,8.6,8.6,8.3,7.4,8.3
		c-1.5,0-2.9,0.5-3.8,1.5C3.5,9.9,3.4,10,3.4,10.2c0,0.1,0.1,0.3,0.2,0.4L13.4,20.4L13.4,20.4z"/>
	<path class="st0" d="M8.5,15.5l-7.3,7.3"/>
</g>
</svg>