<?xml version="1.0" encoding="utf-8"?>
<!-- Generator: Adobe Illustrator 23.0.6, SVG Export Plug-In . SVG Version: 6.00 Build 0)  -->
<svg version="1.1" id="Camada_1" xmlns="http://www.w3.org/2000/svg" xmlns:xlink="http://www.w3.org/1999/xlink" x="0px" y="0px"
	 viewBox="0 0 17 17" style="enable-background:new 0 0 17 17;" xml:space="preserve">
<style type="text/css">
	.st0{fill:none;stroke:#ffffff;stroke-width:0.75;}
	.st1{fill:none;stroke:#ffffff;stroke-width:0.5;}
	.st2{fill-rule:evenodd;clip-rule:evenodd;}
</style>
<g>
	<path class="st1" d="M12.3,8.4l-0.6,3.8l-7.8-1.3l0.8-4.7L9.3,7"/>
	<path class="st1" d="M4,9.6c0.7,0.1,1.2,0.8,1.1,1.5"/>
	<path class="st1" d="M10.3,12c0.1-0.7,0.8-1.2,1.6-1.1"/>
	<path class="st1" d="M5.8,6.4C5.7,7.1,5.1,7.6,4.4,7.4"/>
	<path class="st1" d="M11.1,8.8c1,0,1.8-0.8,1.8-1.8s-0.8-1.8-1.8-1.8c-1,0-1.8,0.8-1.8,1.8S10.1,8.8,11.1,8.8z"/>
	<path class="st1" d="M13,4c2.5,2.5,2.5,6.6,0,9.1c-2.5,2.5-6.6,2.5-9.1,0C1.5,10.5,1.5,6.5,4,4C6.5,1.5,10.5,1.5,13,4L13,4z"/>
	<path class="st1" d="M7.4,9.8c0.2,0.2,0.4,0.4,0.7,0.4c0.3,0.1,0.7-0.1,0.7-0.4c0.1-0.3-0.2-0.5-0.5-0.7C7.9,9,7.7,8.8,7.7,8.5
		C7.8,8.2,8.1,8,8.5,8.1c0.2,0,0.4,0.2,0.5,0.4"/>
	<path class="st1" d="M8.5,7.8L8.5,8.1"/>
	<path class="st1" d="M8,10.3L8,10.6"/>
	<path class="st1" d="M10.7,7.4c0.1,0.1,0.3,0.2,0.4,0.2c0.2,0,0.4-0.1,0.4-0.3c0-0.2-0.2-0.3-0.4-0.3c-0.2-0.1-0.4-0.1-0.4-0.3
		c0-0.2,0.2-0.3,0.4-0.3c0.1,0,0.3,0.1,0.3,0.2"/>
	<path class="st1" d="M11.1,6.2v0.2"/>
	<path class="st1" d="M11.1,7.6v0.2"/>
</g>
</svg>
