<svg id="Ednalva" xmlns="http://www.w3.org/2000/svg" width="15.707" height="13.274" viewBox="0 0 15.707 13.274">
  <path id="Caminho_11614" data-name="Caminho 11614"
    d="M4732.989,1114.283H4733c.114,1.571,1.352,3.142,2.869,3.142s2.749-1.571,2.863-3.142h.017a.6.6,0,0,0,.226-1.139,3.644,3.644,0,0,0,.175-1.131,3.289,3.289,0,1,0-6.567,0,3.7,3.7,0,0,0,.177,1.131.6.6,0,0,0,.227,1.139Z"
    transform="translate(-4728.015 -1108.536)" fill="#673eb7" fill-rule="evenodd" />
  <path id="Caminho_11615" data-name="Caminho 11615"
    d="M4742.969,1124.591c-1.439-1.306-5.541-2.687-5.589-2.665a5.4,5.4,0,0,1-4.314,0c-.048-.022-4.117,1.328-5.6,2.665a.294.294,0,0,0-.105.22v1.094a.319.319,0,0,0,.335.3h15.039a.318.318,0,0,0,.333-.3v-1.094a.29.29,0,0,0-.105-.22Z"
    transform="translate(-4727.364 -1112.934)" fill="#673eb7" fill-rule="evenodd" />
</svg>