<?xml version="1.0" encoding="utf-8"?>
<!-- Generator: Adobe Illustrator 24.0.1, SVG Export Plug-In . SVG Version: 6.00 Build 0)  -->
<svg version="1.1" id="Camada_1" xmlns="http://www.w3.org/2000/svg" xmlns:xlink="http://www.w3.org/1999/xlink" x="0px" y="0px"
	 viewBox="0 0 30 30" style="enable-background:new 0 0 30 30;" xml:space="preserve">
<style type="text/css">
	.st0{fill:#010202;stroke:#010202;stroke-width:0.2;}
	.st1{fill:none;stroke:#010202;}
	.st2{fill:none;stroke:#020304;}
	.st3{fill:none;stroke:#010202;stroke-linecap:round;stroke-linejoin:round;}
	.st4{fill:none;stroke:#010202;stroke-width:0.5;}
	.st5{fill:none;stroke:#010202;stroke-linecap:round;}
	.st6{fill:none;stroke:#020304;stroke-linecap:round;}
	.st7{fill:#010202;}
</style>
<g>
	<path class="st2" d="M9.8,12.2h9.8"/>
	<path class="st2" d="M9.8,9.9h9.8"/>
	<path class="st2" d="M9.8,14.8h4.3"/>
	<path class="st2" d="M19.4,3.5v3.9h3.9"/>
	<path class="st2" d="M23.8,15.9v-7V7.1c0-0.1-3.7-4.1-3.9-4.1l-9,0C10.8,3,9.3,3,9,3H7.9C7.4,3,7,3.4,7,3.9C7,5,7,6.8,7,7v15.4
		c0,0.4,0.4,0.8,0.8,0.8h6.3"/>
	<path class="st2" d="M20.5,26.6c2.6,0,4.7-2.1,4.7-4.7s-2.1-4.7-4.7-4.7s-4.7,2.1-4.7,4.7S17.9,26.6,20.5,26.6z"/>
	<path class="st1" d="M18.7,21.8h3.8"/>
</g>
</svg>
