<svg xmlns="http://www.w3.org/2000/svg" width="24" height="24" viewBox="0 0 24 24">
    <g fill="none" fill-rule="evenodd">
        <path d="M0 0h24v24H0z"/>
        <path fill="#f3f4f5" stroke="#f3f4f5" d="M11.999.688C5.75.688.667 5.77.667 12.019.668 18.267 5.75 23.351 12 23.351c6.248 0 11.331-5.084 11.331-11.332C23.33 5.77 18.247.688 12 .688z"/>
        <path stroke="#FFF" d="M19.538 20.471c-2.456-1.024-4.844-2.202-5.075-2.941v-.993c.657-.672 1.175-1.61 1.482-2.706a1.61 1.61 0 0 0 .31-2.334V9.274c0-2.295-1.278-3.866-4.2-3.866-2.846 0-4.201 1.57-4.201 3.866v2.224a1.61 1.61 0 0 0 .31 2.332c.306 1.098.825 2.035 1.482 2.707v.993c-.232.746-2.469 1.849-4.957 2.882"/>
    </g>
</svg>
