<?xml version="1.0" encoding="utf-8"?>
<!-- Generator: Adobe Illustrator 24.0.1, SVG Export Plug-In . SVG Version: 6.00 Build 0)  -->
<svg version="1.1" id="Camada_1" xmlns="http://www.w3.org/2000/svg" xmlns:xlink="http://www.w3.org/1999/xlink" x="0px" y="0px"
	 viewBox="0 0 24 24" style="enable-background:new 0 0 24 24;" xml:space="preserve">
<style type="text/css">
	.st0{fill:#14CC30;}
	.st1{fill:#010202;}
</style>
<path class="st0" d="M12,0.5C5.6,0.5,0.5,5.6,0.5,12c0,6.4,5.2,11.5,11.5,11.5c6.4,0,11.5-5.2,11.5-11.5C23.5,5.6,18.4,0.5,12,0.5z
	 M14.2,18.7c-0.1,0-0.2,0-0.3,0c-0.1,0-0.1-0.1-0.2-0.2c0-0.1,0-0.2,0-0.2c0-0.1,0.1-0.1,0.2-0.2c1.5-0.7,2.4-1.8,2.4-2.8
	c0-0.9-0.6-1.7-1.7-2.4c-1-0.6-2.3-1-3.8-1.1l-0.5-0.1l0,0.5l0,1.2c0,0.3-0.1,0.4-0.3,0.5C9.8,14,9.6,14,9.4,13.9l-4.3-3.8l0,0
	l0-0.1c-0.3-0.2-0.3-0.7,0-0.9l4.3-3.8c0.4-0.3,0.9,0,0.9,0.5l0,1.2l0,0.4l0.4,0c2.4,0.3,4.4,1,5.9,2c1.6,1.1,2.5,2.4,2.5,3.9
	C19.1,15.6,17.3,17.6,14.2,18.7z"/>
</svg>
