<?xml version="1.0" encoding="utf-8"?>
<!-- Generator: Adobe Illustrator 23.0.6, SVG Export Plug-In . SVG Version: 6.00 Build 0)  -->
<svg version="1.1" id="Camada_1" xmlns="http://www.w3.org/2000/svg" xmlns:xlink="http://www.w3.org/1999/xlink" x="0px" y="0px"
	 viewBox="0 0 17 17" style="enable-background:new 0 0 17 17;" xml:space="preserve">
<style type="text/css">
	.st0{fill:none;stroke:#FF4B54;stroke-width:0.75;}
	.st1{fill:none;stroke:#ffffff;stroke-width:0.5;}
	.st2{fill-rule:evenodd;clip-rule:evenodd;}
</style>
<path class="st0" d="M14.9,11.9l-3.4-3.4l3.4-3.4c0.1-0.1,0.1-0.4,0-0.5l-2.4-2.4C12.3,2,12,2,11.9,2.1L8.5,5.5L5.1,2.1
	C5,2,4.8,2,4.6,2.1L2.1,4.6C2,4.8,2,5,2.1,5.1l3.4,3.4l-3.4,3.4C2,12,2,12.2,2.2,12.4l2.4,2.4c0.1,0.1,0.4,0.1,0.5,0l3.4-3.4
	l3.4,3.4c0.1,0.1,0.4,0.1,0.5,0l2.5-2.5C15,12.2,15,12,14.9,11.9L14.9,11.9z"/>
</svg>
