<?xml version="1.0" encoding="utf-8"?>
<!-- Generator: Adobe Illustrator 24.0.1, SVG Export Plug-In . SVG Version: 6.00 Build 0)  -->
<svg version="1.1" id="Camada_1" xmlns="http://www.w3.org/2000/svg" xmlns:xlink="http://www.w3.org/1999/xlink" x="0px" y="0px"
	 viewBox="0 0 30 30" style="enable-background:new 0 0 30 30;" xml:space="preserve">
<style type="text/css">
	.st0{fill:#010202;stroke:#010202;stroke-width:0.2;}
	.st1{fill:none;stroke:#010202;}
	.st2{fill:none;stroke:#020304;}
	.st3{fill:none;stroke:#010202;stroke-linecap:round;stroke-linejoin:round;}
	.st4{fill:none;stroke:#010202;stroke-width:0.5;}
	.st5{fill:none;stroke:#010202;stroke-linecap:round;}
	.st6{fill:none;stroke:#020304;stroke-linecap:round;}
	.st7{fill:#010202;}
</style>
<path class="st2" d="M10.2,12.2h9.7"/>
<path class="st2" d="M10.2,10h9.7"/>
<path class="st2" d="M10.2,14.8h4.2"/>
<path class="st2" d="M19.7,3.6v3.9h3.9"/>
<path class="st2" d="M24,15.8V8.9V7.2c0-0.1-3.6-4-3.8-4l-8.9,0c-0.2,0-1.6,0-1.9,0H8.3C7.8,3.2,7.4,3.5,7.4,4c0,1.1,0,2.9,0,3v15.1
	c0,0.4,0.3,0.8,0.8,0.8h6.2"/>
<path class="st3" d="M17.6,23.1c-1.1-0.3-2.3-1.7-2.3-3.4c0-1.8,1.4-3.4,2.9-3.4h2.9c1.6,0,2.9,1.6,2.9,3.4c0,1.8-1.3,3.4-2.9,3.4
	h-0.9l-2.6,2.3V23.1z"/>
<path class="st4" d="M18,20.5c0.3,0,0.6-0.3,0.6-0.6c0-0.3-0.3-0.6-0.6-0.6c-0.3,0-0.6,0.3-0.6,0.6C17.5,20.2,17.7,20.5,18,20.5z"/>
<path class="st4" d="M19.9,20.5c0.3,0,0.6-0.3,0.6-0.6c0-0.3-0.3-0.6-0.6-0.6c-0.3,0-0.6,0.3-0.6,0.6C19.3,20.2,19.5,20.5,19.9,20.5
	z"/>
<path class="st4" d="M21.7,20.5c0.3,0,0.6-0.3,0.6-0.6c0-0.3-0.3-0.6-0.6-0.6c-0.3,0-0.6,0.3-0.6,0.6C21.1,20.2,21.4,20.5,21.7,20.5
	z"/>
</svg>
