<?xml version="1.0" encoding="utf-8"?>
<!-- Generator: Adobe Illustrator 24.0.1, SVG Export Plug-In . SVG Version: 6.00 Build 0)  -->
<svg version="1.1" id="Camada_1" xmlns="http://www.w3.org/2000/svg" xmlns:xlink="http://www.w3.org/1999/xlink" x="0px" y="0px"
	 viewBox="0 0 30 30" style="enable-background:new 0 0 30 30;" xml:space="preserve">
<style type="text/css">
	.st0{fill:none;stroke:#020304;stroke-width:1.2;}
	.st1{fill:none;stroke:#010202;stroke-width:1.2;}
	.st2{fill:none;stroke:#020304;stroke-width:0.8;}
	.st3{fill:none;stroke:#020304;}
	.st4{fill:none;stroke:#020304;stroke-linecap:round;}
	.st5{fill:none;stroke:#010202;stroke-width:1.2;stroke-linecap:round;}
</style>
<path class="st0" d="M25.5,14.1h-2.1"/>
<path class="st0" d="M24.3,10.7h-1.5"/>
<path class="st0" d="M9.4,6.1c6.1-2.1,13.4-2,13.4-2c2.8,0,2.2,3.1,0.2,3.1h-0.8"/>
<path class="st0" d="M9.4,16.5c0,0,5.8,4.5,5.3,9.3c-0.3,3.6,6.4,0.8,2.6-8.2h8.2c2.3,0,2.3-3.4,0-3.4h-0.2c2.3,0,2.3-3.4,0-3.4
	h-1.2c2.3,0,2.3-3.4,0-3.4l-1.3,0"/>
<path class="st0" d="M9.4,3.9H2.6v13.6h6.8V3.9z"/>
</svg>
