<?xml version="1.0" encoding="utf-8"?>
<!-- Generator: Adobe Illustrator 24.0.1, SVG Export Plug-In . SVG Version: 6.00 Build 0)  -->
<svg version="1.1" id="Camada_1" xmlns="http://www.w3.org/2000/svg" xmlns:xlink="http://www.w3.org/1999/xlink" x="0px" y="0px"
	 viewBox="0 0 30 30" style="enable-background:new 0 0 30 30;" xml:space="preserve">
<style type="text/css">
	.st0{fill:#010202;stroke:#010202;stroke-width:0.2;}
	.st1{fill:none;stroke:#010202;}
	.st2{fill:none;stroke:#020304;}
	.st3{fill:none;stroke:#010202;stroke-linecap:round;stroke-linejoin:round;}
	.st4{fill:none;stroke:#010202;stroke-width:0.5;}
	.st5{fill:none;stroke:#010202;stroke-linecap:round;}
	.st6{fill:none;stroke:#020304;stroke-linecap:round;}
	.st7{fill:#010202;}
</style>
<path class="st1" d="M24.8,12.4H23"/>
<path class="st1" d="M23.8,9.6h-1.3"/>
<path class="st1" d="M11.3,5.8C16.4,4,22.5,4.1,22.5,4.1c2.3,0,1.8,2.6,0.2,2.6H22"/>
<path class="st1" d="M11.3,14.4c0,0,4.8,3.8,4.5,7.8c-0.3,3,5.3,0.7,2.2-6.9h6.9c1.9,0,1.9-2.9,0-2.9h-0.1c1.9,0,1.9-2.9,0-2.9h-1
	c1.9,0,1.9-2.9,0-2.9l-1.1,0"/>
<path class="st1" d="M11.3,3.9H5.6v11.4h5.7V3.9z"/>
</svg>
