<?xml version="1.0" encoding="utf-8"?>
<!-- Generator: Adobe Illustrator 24.0.1, SVG Export Plug-In . SVG Version: 6.00 Build 0)  -->
<svg version="1.1" id="Camada_1" xmlns="http://www.w3.org/2000/svg" xmlns:xlink="http://www.w3.org/1999/xlink" x="0px" y="0px"
	 viewBox="0 0 30 30" style="enable-background:new 0 0 30 30;" xml:space="preserve">
<style type="text/css">
	.st0{fill:#010202;stroke:#010202;stroke-width:0.2;}
	.st1{fill:none;stroke:#010202;}
	.st2{fill:none;stroke:#020304;}
	.st3{fill:none;stroke:#010202;stroke-linecap:round;stroke-linejoin:round;}
	.st4{fill:none;stroke:#010202;stroke-width:0.5;}
	.st5{fill:none;stroke:#010202;stroke-linecap:round;}
	.st6{fill:none;stroke:#020304;stroke-linecap:round;}
	.st7{fill:#010202;}
</style>
<path class="st2" d="M9.4,12.3h10"/>
<path class="st2" d="M9.4,10h10"/>
<path class="st2" d="M9.4,15h4.4"/>
<path class="st2" d="M19.3,3.5v4h4"/>
<path class="st2" d="M23.7,16.1V8.9V7.2c0-0.1-3.7-4.1-4-4.1l-9.1,0c-0.2,0-1.7,0-2,0H7.5C7,3,6.6,3.4,6.6,3.9c0,1.1,0,3,0,3.1v15.6
	c0,0.5,0.4,0.8,0.8,0.8h6.4"/>
<path class="st1" d="M25.4,21.4h-0.9"/>
<path class="st1" d="M24.9,22.8h-0.6"/>
<path class="st1" d="M18.8,24.7c2.5,0.8,5.4,0.8,5.4,0.8c1.1,0,0.9-1.2,0.1-1.2H24"/>
<path class="st1" d="M18.8,20.5c0,0,2.3-1.8,2.2-3.8c-0.1-1.5,2.6-0.3,1.1,3.3h3.3c0.9,0,0.9,1.4,0,1.4h-0.1c0.9,0,0.9,1.4,0,1.4
	h-0.5c0.9,0,0.9,1.4,0,1.4l-0.5,0"/>
<path class="st1" d="M18.8,20h-2.8v5.5h2.8V20z"/>
</svg>
