<svg xmlns="http://www.w3.org/2000/svg" width="24" height="24" viewBox="0 0 24 24">
    <g fill="none" fill-rule="evenodd">
        <path d="M0 0h24v24H0z"/>
        <g stroke="#424242">
            <path d="M23.5 2.883A2.383 2.383 0 0 0 21.116.5H2.884A2.383 2.383 0 0 0 .5 2.883v18.234A2.383 2.383 0 0 0 2.884 23.5h18.233a2.383 2.383 0 0 0 2.383-2.383V2.883z"/>
            <circle cx="6.497" cy="7.243" r="2.064"/>
            <circle cx="12.093" cy="16.998" r="2.064"/>
            <circle cx="17.48" cy="9.745" r="2.064"/>
            <path d="M17.48 11.81v7.723M17.48 5.179V7.68M6.497 9.308v10.225M12.093 5.179v9.755"/>
        </g>
    </g>
</svg>
