<svg xmlns="http://www.w3.org/2000/svg" width="49" height="49" viewBox="0 0 49 49">
  <g id="aceitar_acordo" data-name="aceitar acordo" transform="translate(0.5 0.5)">
    <rect id="Retângulo_2222" data-name="Retângulo 2222" width="48" height="48" rx="4.5" fill="none" stroke="rgba(195,195,195,0.5)" stroke-width="1"/>
  </g>
  <g id="Grupo_39385" data-name="Grupo 39385" transform="translate(7.699 -8.821)">
    <path id="Caminho_13874" data-name="Caminho 13874" d="M6.082,32.23a1.051,1.051,0,0,0,1.485,0l1.358-1.358a1.051,1.051,0,0,0,0-1.485L7.567,28.029H26.252a3.154,3.154,0,0,1,3.15,3.15,1.577,1.577,0,0,0,1.575,1.575h1.05A1.577,1.577,0,0,0,33.6,31.18a7.359,7.359,0,0,0-7.351-7.351H7.567l1.358-1.358a1.051,1.051,0,0,0,0-1.485L7.567,19.629a1.051,1.051,0,0,0-1.485,0L.153,25.558a.525.525,0,0,0,0,.742Zm.742-11.859,1.358,1.358L5.929,23.983a.525.525,0,0,0,.371.9H26.252a6.308,6.308,0,0,1,6.3,6.3.526.526,0,0,1-.525.525h-1.05a.526.526,0,0,1-.525-.525,4.205,4.205,0,0,0-4.2-4.2H6.3a.525.525,0,0,0-.371.9L8.183,30.13,6.825,31.487,1.267,25.929Z" transform="translate(0)" fill="#424242"/>
    <path id="Caminho_13875" data-name="Caminho 13875" d="M33.449,294.454l-5.929-5.929a1.052,1.052,0,0,0-1.485,0l-1.358,1.358a1.049,1.049,0,0,0,0,1.485l1.358,1.358H7.351a3.154,3.154,0,0,1-3.15-3.15A1.577,1.577,0,0,0,2.625,288H1.575A1.577,1.577,0,0,0,0,289.575a7.359,7.359,0,0,0,7.351,7.351H26.035l-1.358,1.358a1.049,1.049,0,0,0,0,1.485l1.358,1.358a1.052,1.052,0,0,0,1.485,0l5.929-5.929a.525.525,0,0,0,0-.743Zm-6.672,5.929-1.358-1.358,2.254-2.254a.526.526,0,0,0-.371-.9H7.351a6.308,6.308,0,0,1-6.3-6.3.526.526,0,0,1,.525-.525h1.05a.526.526,0,0,1,.525.525,4.205,4.205,0,0,0,4.2,4.2H27.3a.526.526,0,0,0,.371-.9l-2.254-2.254,1.358-1.358,5.558,5.558Z" transform="translate(-0.001 -251.045)" fill="#424242"/>
  </g>
</svg>