<svg xmlns="http://www.w3.org/2000/svg" width="47" height="47" viewBox="0 0 47 47">
  <g id="Grupo_39381" data-name="Grupo 39381" transform="translate(-1242.011 -419.011)">
    <circle id="Elipse_367" data-name="Elipse 367" cx="23.5" cy="23.5" r="23.5" transform="translate(1242.011 419.011)"
      fill="#3787bc" />
    <g id="deal" transform="translate(1249.719 434.228)">
      <g id="Grupo_39380" data-name="Grupo 39380" transform="translate(-1.531 -1.021)">
        <path id="Caminho_10510" data-name="Caminho 10510"
          d="M34.338,86.907a.716.716,0,0,0-.66-.087l-5.884,2.14a2.866,2.866,0,0,0-1.635,1.5,2.9,2.9,0,0,0-.141.407,26.675,26.675,0,0,1-4.754-1.849,5.848,5.848,0,0,0-6.822.674c-.936.018-2.227.129-3.5.241-.809.071-1.574.137-2.194.175a2.888,2.888,0,0,0-1.9-2.6L.969,85.376A.722.722,0,0,0,0,86.054V100.49a.721.721,0,0,0,.722.722H2.83a2.9,2.9,0,0,0,2.27-1.106c.287.218.627.474.984.742.842.634,1.764,1.325,2.169,1.664,2.688,2.25,5.919,4.68,6.562,5.1a5.3,5.3,0,0,0,2.507.815,2.65,2.65,0,0,0,1.7-.481,2.319,2.319,0,0,0,1.809-.04,2.706,2.706,0,0,0,1.339-1.339,2.81,2.81,0,0,0,1.8-.264,2.461,2.461,0,0,0,1.173-1.181,2.268,2.268,0,0,0,1.577-.5,2.339,2.339,0,0,0,.946-2.141l1.831-1.013a2.892,2.892,0,0,0,2.317,1.188h2.108a.721.721,0,0,0,.722-.722V87.5A.722.722,0,0,0,34.338,86.907ZM4.182,98.832a1.45,1.45,0,0,1-1.352.937H1.444V87.085l4.916,1.788a1.444,1.444,0,0,1,.858,1.863Zm21.663,4.643c-.245.188-.587.292-.739.14-.008-.008-.02-.007-.028-.014s-.021-.03-.036-.042c-.516-.407-2.828-2.773-4.257-4.263a.721.721,0,1,0-1.042,1c.335.35,3.027,3.154,4.1,4.134a1,1,0,0,1-.523.587,1.112,1.112,0,0,1-1.125.025c-.005-.005-.013,0-.019-.01s-.013-.019-.022-.026c-.866-.691-3.037-3-3.529-3.534a.722.722,0,0,0-1.063.977c.024.026,2.152,2.321,3.347,3.388a1.268,1.268,0,0,1-.664.753.942.942,0,0,1-.986-.147c-1.037-.879-3.117-3.093-3.526-3.531a.722.722,0,1,0-1.054.985c.485.519,1.919,2.039,3.009,3.068a3.118,3.118,0,0,1-.371.023,3.967,3.967,0,0,1-1.714-.578c-.506-.333-3.684-2.7-6.428-5-.415-.348-1.362-1.061-2.23-1.712-.465-.349-.893-.67-1.208-.913l2.7-7.208c.7-.031,1.637-.112,2.627-.2.56-.049,1.12-.1,1.656-.139-.823.845-2.047,2.358-1.886,3.777a2.08,2.08,0,0,0,1.023,1.556c1.179.738,3.362.119,4.414-1.174a5.018,5.018,0,0,0,1.638-.519c.846.8,1.98,1.73,3.171,2.712,2.074,1.709,4.424,3.646,5.046,4.732A.87.87,0,0,1,25.845,103.475Zm1.238-2.321a35.735,35.735,0,0,0-5.078-4.682c-1.354-1.116-2.633-2.17-3.451-2.988a.725.725,0,0,0-.851-.126,4.171,4.171,0,0,1-1.9.64.722.722,0,0,0-.539.333,2.582,2.582,0,0,1-2.638,1.014.641.641,0,0,1-.354-.5A4.376,4.376,0,0,1,13.86,92.14c2.554-2.554,4.379-3.054,6.741-1.835a28,28,0,0,0,5.389,2.058,2.9,2.9,0,0,0,.086.323l2.8,7.474Zm6.118.059H31.816a1.45,1.45,0,0,1-1.352-.937l-3.036-8.1a1.444,1.444,0,0,1,.858-1.864L33.2,88.529v12.683Z"
          transform="translate(0 -85.333)" fill="#30a4f2" />
      </g>
    </g>
  </g>
</svg>