<svg xmlns="http://www.w3.org/2000/svg" width="17.416" height="16.843" viewBox="0 0 17.416 16.843">
  <g id="Grupo_1418" data-name="Grupo 1418" transform="translate(3.13 0.373) rotate(13)">
    <path id="Caminho_1735" data-name="Caminho 1735" d="M.215,7.812a.152.152,0,0,1-.1-.133.145.145,0,0,1,.075-.144L13.883.237a.132.132,0,0,1,.153.015.169.169,0,0,1,.052.159l-2.4,11.208a.153.153,0,0,1-.066.1.172.172,0,0,1-.07.019.16.16,0,0,1-.041-.008L.215,7.812Z" transform="translate(0 0)" fill="none" stroke="#8652ff" stroke-width="1" fill-rule="evenodd"/>
    <path id="Caminho_1736" data-name="Caminho 1736" d="M0,0,.066,4.322c0,.069-.015.131.049.152.013,0,0,.006.011.007A.124.124,0,0,0,.234,4.41L2.507.938" transform="translate(6.164 9.824)" fill="none" stroke="#8652ff" stroke-width="1"/>
    <path id="Caminho_1737" data-name="Caminho 1737" d="M5.057.079.089,6" transform="translate(6.075 3.82)" fill="none" stroke="#8652ff" stroke-width="1"/>
  </g>
</svg>
