<svg xmlns="http://www.w3.org/2000/svg" width="41" height="49.15" viewBox="0 0 41 49.15">
  <g id="Grupo_3173" data-name="Grupo 3173" transform="translate(-706 -590.549)">
    <g id="Grupo_3170" data-name="Grupo 3170" transform="translate(706 590.549)">
      <g id="Grupo_3147" data-name="Grupo 3147">
        <path id="Caminho_13878" data-name="Caminho 13878" d="M100.564,28.433,96.33,26.794h0V24.775a6.746,6.746,0,0,0,2.553-4.438,3.117,3.117,0,0,0,1.831-.747,3.057,3.057,0,0,0,.319-4.313V12.61a8.923,8.923,0,1,0-17.846,0v2.737a2.891,2.891,0,0,0-.742,1.927,3.051,3.051,0,0,0,1.062,2.316,3.115,3.115,0,0,0,1.83.746,6.675,6.675,0,0,0,2.7,4.544v1.912l-8.6,3.334-.014.005A6.426,6.426,0,0,0,75.623,36V51a1.84,1.84,0,0,0,1.838,1.838h6.86a.72.72,0,1,0,0-1.44H82.771V37.219a.72.72,0,0,0-1.44,0V51.4h-3.87a.4.4,0,0,1-.4-.4V36a4.989,4.989,0,0,1,2.9-4.534l5.168-2L87.4,34.013a1.261,1.261,0,0,0,1.129.7,1.632,1.632,0,0,0,1.031-.447l.58.873L87.992,47.854l0,.022a1.291,1.291,0,0,0,.311,1.036L90.56,51.4H87.68a.72.72,0,1,0,0,1.44h19.234A1.84,1.84,0,0,0,108.752,51V44.231a.72.72,0,0,0-1.44,0V51a.4.4,0,0,1-.4.4h-3.87V47.122a.72.72,0,1,0-1.44,0V51.4H93.811l2.26-2.486a1.29,1.29,0,0,0,.311-1.035c0-.007,0-.015,0-.022L94.227,35.137l.58-.873a1.633,1.633,0,0,0,1.031.447,1.261,1.261,0,0,0,1.128-.7h0l2.27-4.55.965.374a1.881,1.881,0,0,0,.568-.116.782.782,0,0,0,.232-.754A.755.755,0,0,0,100.564,28.433Zm-2.676.508-2.117,4.242-2.546-1.808,2.614-3.227ZM93.632,33.43l-.549.826h-1.8l-.549-.826L92.185,32.4Zm-4.157-6.4V25.678a7.3,7.3,0,0,0,2.722.516,6.759,6.759,0,0,0,2.693-.561v1.4l-2.705,3.339Zm10.861-9.752a1.613,1.613,0,0,1-.561,1.224,1.678,1.678,0,0,1-.831.383V15.668A1.629,1.629,0,0,1,100.336,17.274ZM85.276,18.881a1.627,1.627,0,0,1-1.392-1.607,1.71,1.71,0,0,1,1.392-1.57Zm.039-4.645a3.559,3.559,0,0,0-.688.155V12.61a7.483,7.483,0,1,1,14.966,0v1.732a3.2,3.2,0,0,0-.649-.125c0-.695.006-.561-2.267-3a1.281,1.281,0,0,0-1.636-.2,13.881,13.881,0,0,1-8.392,2.259A1.28,1.28,0,0,0,85.315,14.237Zm1.4,5.211V14.72a15.386,15.386,0,0,0,9-2.427C96.757,13.412,97.322,14,97.5,14.222v5.226a5.394,5.394,0,0,1-10.787,0ZM88.6,33.183l-2.117-4.242,2.044-.792,2.615,3.228Zm.826,14.826L91.51,35.7H92.86l2.084,12.313-2.759,3.036Z" transform="translate(-75.623 -3.687)"/>
      </g>
    </g>
    <g id="Grupo_3171" data-name="Grupo 3171" transform="translate(-13 23)">
      <g id="Caminho_13891" data-name="Caminho 13891" transform="translate(744 590)" fill="none">
        <path d="M8,0A8,8,0,1,1,0,8,8,8,0,0,1,8,0Z" stroke="none"/>
        <path d="M 8 1.5 C 4.415889739990234 1.5 1.5 4.415889739990234 1.5 8 C 1.5 11.58411026000977 4.415889739990234 14.5 8 14.5 C 11.58411026000977 14.5 14.5 11.58411026000977 14.5 8 C 14.5 4.415889739990234 11.58411026000977 1.5 8 1.5 M 8 0 C 12.41827964782715 0 16 3.581720352172852 16 8 C 16 12.41827964782715 12.41827964782715 16 8 16 C 3.581720352172852 16 0 12.41827964782715 0 8 C 0 3.581720352172852 3.581720352172852 0 8 0 Z" stroke="none" fill="#000"/>
      </g>
      <g id="Grupo_3172" data-name="Grupo 3172" transform="translate(-4.016 -6.684)">
        <path id="Caminho_13889" data-name="Caminho 13889" d="M80.112,7.729a2.4,2.4,0,0,0-2.395,2.395.516.516,0,0,0,1.033,0,1.362,1.362,0,1,1,1.362,1.362h-.328a.516.516,0,0,0-.516.516v1.767a.516.516,0,0,0,1.033,0V12.511a2.395,2.395,0,0,0-.189-4.782Z" transform="translate(675.905 592.692)" stroke="#000" stroke-width="0.211"/>
        <path id="Caminho_13890" data-name="Caminho 13890" d="M82.983,30.224a.516.516,0,0,0-.516.516v.151a.516.516,0,1,0,1.033,0V30.74A.516.516,0,0,0,82.983,30.224Z" transform="translate(672.706 577.539)" stroke="#000" stroke-width="0.211"/>
      </g>
    </g>
  </g>
</svg>