<svg xmlns="http://www.w3.org/2000/svg" width="47" height="47" viewBox="0 0 47 47">
  <g id="Grupo_39385" data-name="Grupo 39385" transform="translate(-5964 -653)">
    <g id="Grupo_39384" data-name="Grupo 39384" transform="translate(4721.989 233.989)">
      <circle id="Elipse_367" data-name="Elipse 367" cx="23.5" cy="23.5" r="23.5" transform="translate(1242.011 419.011)" fill="#279b84"/>
    </g>
    <g id="statistics" transform="translate(5976 665)">
      <path id="Caminho_10519" data-name="Caminho 10519" d="M32.934,10.313a1.924,1.924,0,0,0,1.338-.544l1.908.954a1.894,1.894,0,0,0-.024.234,1.934,1.934,0,1,0,3.867,0,1.91,1.91,0,0,0-.194-.828l2.588-2.588a1.91,1.91,0,0,0,.828.194A1.936,1.936,0,0,0,45.18,5.8a1.9,1.9,0,0,0-.1-.573l2.249-1.686a1.932,1.932,0,1,0-.863-1.608,1.9,1.9,0,0,0,.1.573L44.316,4.193a1.925,1.925,0,0,0-2.81,2.437L38.918,9.217a1.9,1.9,0,0,0-2.167.35l-1.908-.954a1.894,1.894,0,0,0,.024-.234,1.934,1.934,0,1,0-1.934,1.934Zm0,0" transform="translate(-29.668)" fill="#62f1d4"/>
      <path id="Caminho_10520" data-name="Caminho 10520" d="M21.355,164.266h-.687V150.645a.644.644,0,0,0-.645-.645H17.445a.644.644,0,0,0-.645.645v13.621H15.512v-9.754a.644.644,0,0,0-.645-.645H12.289a.644.644,0,0,0-.645.645v9.754H10.355v-4.6a.644.644,0,0,0-.645-.645H7.133a.644.644,0,0,0-.645.645v4.6H5.2V157.09a.644.644,0,0,0-.645-.645H1.977a.644.644,0,0,0-.645.645v7.176H.645a.645.645,0,0,0,0,1.289H21.355a.645.645,0,0,0,0-1.289Zm0,0" transform="translate(0 -143.555)" fill="#62f1d4"/>
    </g>
  </g>
</svg>