<svg xmlns="http://www.w3.org/2000/svg" width="24" height="24" viewBox="0 0 24 24">
    <g fill="none" fill-rule="evenodd">
        <path d="M0 0h24v24H0z"/>
        <g stroke="#979797">
            <circle cx="11.998" cy="12.014" r="4.148"/>
            <path d="M20.055 13.959l3.033-.397a11.05 11.05 0 0 0 0-3.095l-3.033-.397a8.236 8.236 0 0 0-.984-2.375l1.865-2.427A11.263 11.263 0 0 0 18.75 3.08l-2.427 1.865a8.234 8.234 0 0 0-2.376-.987L13.549.925a11.054 11.054 0 0 0-3.093-.001l-.397 3.032a8.235 8.235 0 0 0-2.38.986L5.25 3.077c-.792.599-1.548 1.342-2.187 2.186L4.929 7.69a8.235 8.235 0 0 0-.988 2.381l-3.033.397a11.345 11.345 0 0 0 0 3.093l3.033.397c.205.853.542 1.653.988 2.381l-1.865 2.427c.6.792 1.343 1.548 2.187 2.186l2.427-1.865a8.236 8.236 0 0 0 2.38.986l.398 3.032a11.05 11.05 0 0 0 3.093-.001l.397-3.034a8.235 8.235 0 0 0 2.376-.986l2.427 1.865a11.263 11.263 0 0 0 2.187-2.188l-1.865-2.428c.444-.726.78-1.524.984-2.374z"/>
        </g>
    </g>
</svg>
