<svg xmlns="http://www.w3.org/2000/svg" width="59.329" height="38.666" viewBox="0 0 59.329 38.666">
  <g id="Grupo_3169" data-name="Grupo 3169" transform="translate(-30.703 -64)">
    <g id="Grupo_3168" data-name="Grupo 3168" transform="translate(38.478 64)">
      <g id="Grupo_3167" data-name="Grupo 3167">
        <path id="Caminho_13888" data-name="Caminho 13888" d="M148.735,79.091V68.3a4.3,4.3,0,0,0-4.3-4.3H112.217a4.3,4.3,0,0,0-4.3,4.3V72.55A1.074,1.074,0,0,0,109,73.624h0a1.074,1.074,0,0,0,1.074-1.074V68.3a2.126,2.126,0,0,1,.182-.854l16,13.119a3.779,3.779,0,0,0,4.085.046,1.045,1.045,0,0,0,.173-.116l15.9-13.049a2.126,2.126,0,0,1,.182.854V79.091h0a11.827,11.827,0,0,0-10.74,11.76c0,.362.022.72.054,1.074H112.217a2.148,2.148,0,0,1-2.148-2.148V84.42A1.074,1.074,0,0,0,109,83.346h0a1.074,1.074,0,0,0-1.074,1.074v5.357a4.3,4.3,0,0,0,4.3,4.3H136.3a11.808,11.808,0,0,0,17.265,7.011,1.074,1.074,0,0,0-1.076-1.859,9.668,9.668,0,1,1,4.834-8.374v1.024a2.181,2.181,0,0,1-1.947,2.189,2.151,2.151,0,0,1-2.349-2.139V87.657a1.092,1.092,0,0,0-.836-1.076,1.065,1.065,0,0,0-.98.276,5.347,5.347,0,0,0-8.91,4.4,5.389,5.389,0,0,0,5,4.953,5.327,5.327,0,0,0,4.368-1.821,4.285,4.285,0,0,0,3.847,1.82,4.34,4.34,0,0,0,3.959-4.35V90.851A11.827,11.827,0,0,0,148.735,79.091Zm-19.524-.315a1.814,1.814,0,0,1-1.694.055L112.092,66.173c.044,0,.081-.025.125-.025h32.221c.045,0,.082.023.126.026Zm18.66,15.29a3.222,3.222,0,1,1,3-3A3.225,3.225,0,0,1,147.871,94.066Z" transform="translate(-107.921 -64)"/>
      </g>
    </g>
    <rect id="Ret창ngulo_2700" data-name="Ret창ngulo 2700" width="10.267" height="2.148" rx="1.074" transform="translate(34.062 75.504)"/>
    <rect id="Ret창ngulo_2701" data-name="Ret창ngulo 2701" width="13.626" height="2.148" rx="1.074" transform="translate(30.703 79.561)"/>
  </g>
</svg>