<svg xmlns="http://www.w3.org/2000/svg" width="22" height="20" viewBox="0 0 22 20">
    <g fill="none" fill-rule="evenodd">
        <path d="M1 0h20v20H1z"/>
        <path stroke="#ffffff" d="M1.18 8.847c0-3.982 3.066-7.414 6.634-7.414h6.54c3.569 0 6.462 3.41 6.462 7.392 0 3.94-2.893 7.39-6.462 7.39h-2.06l-5.96 2.853V16.23c-2.557-.599-5.154-3.57-5.154-7.383z"/>
        <path fill="#ffffff" d="M5.843 11.6c-.36 0-.709-.049-1.045-.147-.336-.098-.602-.228-.798-.39l.3-.645c.192.145.427.263.705.355.278.091.558.137.838.137.348 0 .607-.053.778-.16.172-.106.257-.247.257-.421a.4.4 0 0 0-.143-.317 1.021 1.021 0 0 0-.364-.194 8.404 8.404 0 0 0-.601-.16 7.249 7.249 0 0 1-.865-.243c-.22-.08-.41-.208-.568-.38-.158-.173-.237-.406-.237-.7 0-.247.07-.471.21-.674.14-.202.352-.363.635-.482.283-.12.629-.179 1.039-.179.284 0 .565.034.841.102.276.068.514.166.715.294l-.274.645a2.768 2.768 0 0 0-.641-.262 2.5 2.5 0 0 0-.648-.089c-.343 0-.598.055-.765.166a.507.507 0 0 0-.25.44c0 .129.048.233.143.314.096.08.217.145.364.192.147.047.348.1.601.16.348.076.633.156.855.239.223.083.413.21.571.38.158.17.237.4.237.69 0 .247-.07.47-.21.67-.14.201-.353.36-.638.48-.285.12-.632.179-1.042.179zm6.741 0l-.006-3.05-1.401 2.524h-.354l-1.4-2.484v3.01h-.756V7h.652l1.693 3.05L12.675 7h.652l.006 4.6h-.749zm3.526 0c-.36 0-.71-.049-1.045-.147-.336-.098-.602-.228-.798-.39l.3-.645c.192.145.427.263.705.355.278.091.557.137.838.137.347 0 .607-.053.778-.16.171-.106.257-.247.257-.421a.4.4 0 0 0-.143-.317 1.021 1.021 0 0 0-.364-.194 8.404 8.404 0 0 0-.602-.16 7.249 7.249 0 0 1-.864-.243c-.22-.08-.41-.208-.568-.38-.158-.173-.237-.406-.237-.7 0-.247.07-.471.21-.674.14-.202.352-.363.635-.482.282-.12.629-.179 1.038-.179.285 0 .566.034.842.102.276.068.514.166.714.294l-.274.645a2.768 2.768 0 0 0-.64-.262 2.5 2.5 0 0 0-.648-.089c-.343 0-.598.055-.765.166a.507.507 0 0 0-.25.44c0 .129.047.233.143.314.096.08.217.145.364.192.147.047.347.1.601.16.347.076.632.156.855.239.223.083.413.21.57.38.159.17.238.4.238.69 0 .247-.07.47-.21.67-.14.201-.353.36-.638.48-.285.12-.632.179-1.042.179z"/>
    </g>
</svg>
