<svg xmlns="http://www.w3.org/2000/svg" width="45" height="58" viewBox="0 0 45 58">
    <g fill="none" fill-rule="evenodd">
        <path d="M-7-1h60v60H-7z"/>
        <g stroke="#424242">
            <path d="M34.14 1.232v9.666h10.115"/>
            <path d="M44.255 54.882c0 1.055-.896 1.933-2.002 1.933H3.257c-1.104 0-1.99-.878-1.99-1.933V3.179c0-1.055.886-1.947 1.99-1.947H34.14c.525 0 .769.216 1.142.567l8.376 7.9c.38.358.597.689.597 1.2v43.983z"/>
            <path d="M8.973 25.486h7.49v7.242h-7.49zM8.973 18.243h7.49v7.242h-7.49zM8.973 32.728h7.49v7.243h-7.49z"/>
            <path d="M8.973 39.97h7.49v7.243h-7.49zM16.463 25.486h10.019v7.242h-10.02zM16.463 18.243h10.019v7.242h-10.02z"/>
            <path d="M16.463 32.728h10.019v7.243h-10.02z"/>
            <path d="M16.463 39.97h10.019v7.243h-10.02zM26.482 25.486H36.5v7.242H26.482zM26.482 18.243H36.5v7.242H26.482zM26.482 32.728H36.5v7.243H26.482z"/>
            <path d="M26.482 39.97H36.5v7.243H26.482z"/>
        </g>
    </g>
</svg>
