<?xml version="1.0" encoding="utf-8"?>
<!-- Generator: Adobe Illustrator 24.0.1, SVG Export Plug-In . SVG Version: 6.00 Build 0)  -->
<svg version="1.1" id="Camada_1" xmlns="http://www.w3.org/2000/svg" xmlns:xlink="http://www.w3.org/1999/xlink" x="0px" y="0px"
	 viewBox="0 0 30 30" style="enable-background:new 0 0 30 30;" xml:space="preserve">
<style type="text/css">
	.st0{fill:none;stroke:#020304;stroke-width:1.2;}
	.st1{fill:none;stroke:#010202;stroke-width:1.2;}
	.st2{fill:none;stroke:#020304;stroke-width:0.8;}
	.st3{fill:none;stroke:#020304;}
	.st4{fill:none;stroke:#020304;stroke-linecap:round;}
	.st5{fill:none;stroke:#010202;stroke-width:1.2;stroke-linecap:round;}
</style>
<g>
	<g>
		<g>
			<path class="st0" d="M7.5,11.1H18"/>
			<path class="st0" d="M7.5,8.5H18"/>
			<path class="st0" d="M7.5,14h4.6"/>
		</g>
		<path class="st0" d="M17.9,1.5v4.3h4.2"/>
		<path class="st0" d="M22.5,15.1V7.4V5.5c0-0.1-3.9-4.4-4.2-4.4C18.3,1.1,7.6,1,6.7,1C6.1,1,5.5,1,5.5,1C5,1,4.6,1.4,4.6,1.9
			c0,1.3,0,3.2,0,3.4v16.8c0,0.5,0.4,0.8,0.8,0.8h6.7"/>
	</g>
</g>
<g>
	<path class="st1" d="M25.5,23.1h-1.1"/>
	<path class="st1" d="M24.9,24.9h-0.8"/>
	<path class="st1" d="M17.2,27.3c3.2,1.1,7,1,7,1c1.5,0,1.1-1.6,0.1-1.6h-0.4"/>
	<path class="st1" d="M17.2,21.9c0,0,3-2.4,2.8-4.8c-0.2-1.9,3.3-0.4,1.4,4.3h4.3c1.2,0,1.2,1.8,0,1.8h-0.1c1.2,0,1.2,1.8,0,1.8
		h-0.6c1.2,0,1.2,1.8,0,1.8l-0.7,0"/>
	<path class="st1" d="M17.2,21.3h-3.5v7.1h3.5V21.3z"/>
</g>
</svg>
