<svg xmlns="http://www.w3.org/2000/svg" width="20" height="21" viewBox="0 0 20 21">
    <g fill="none" fill-rule="evenodd">
        <path d="M0 0h20v20H0z"/>
        <path stroke="#424242" d="M12.934 12.63a.395.395 0 0 0-.557-.01s-1.14 1.133-1.215 1.204a.244.244 0 0 1-.062.046c-1.185.61-5.461-4.044-4.645-4.919l1.219-1.214a.41.41 0 0 0 .005-.573L3.69 3.029a.394.394 0 0 0-.563-.005c-1.998 1.993-5.2 3.998 2.28 11.755 7.384 7.653 9.501 4.753 11.54 2.525a.411.411 0 0 0-.008-.562l-4.004-4.111z"/>
        <path d="M10 .212h8.889v8.47H10z"/>
        <g stroke="#424242">
            <path d="M10.08 3.903c0-1.686 1.363-3.14 2.949-3.14h2.906c1.586 0 2.872 1.445 2.872 3.131 0 1.669-1.286 3.13-2.872 3.13h-.915l-2.65 1.208V7.03c-1.136-.253-2.29-1.512-2.29-3.127zM12.693 2.973h3.532M12.693 5.183h1.926"/>
        </g>
    </g>
</svg>
