<?xml version="1.0" encoding="utf-8"?>
<!-- Generator: Adobe Illustrator 24.0.1, SVG Export Plug-In . SVG Version: 6.00 Build 0)  -->
<svg version="1.1" id="Camada_1" xmlns="http://www.w3.org/2000/svg" xmlns:xlink="http://www.w3.org/1999/xlink" x="0px" y="0px"
	 viewBox="0 0 30 30" style="enable-background:new 0 0 30 30;" xml:space="preserve">
<style type="text/css">
	.st0{fill:none;stroke:#020304;stroke-width:1.2;}
	.st1{fill:none;stroke:#010202;stroke-width:1.2;}
	.st2{fill:none;stroke:#020304;stroke-width:0.8;}
	.st3{fill:none;stroke:#020304;}
	.st4{fill:none;stroke:#020304;stroke-linecap:round;}
	.st5{fill:none;stroke:#010202;stroke-width:1.2;stroke-linecap:round;}
</style>
<g>
	<g>
		<g>
			<path class="st0" d="M7.7,11h10.4"/>
			<path class="st0" d="M7.7,8.4h10.4"/>
			<path class="st0" d="M7.7,13.9h4.6"/>
		</g>
		<path class="st0" d="M18,1.4v4.3h4.2"/>
		<path class="st0" d="M22.6,15V7.3V5.4c0-0.1-3.9-4.4-4.2-4.4c0,0-10.7-0.1-11.6-0.1c-0.7,0-1.2,0-1.2,0c-0.5,0-0.9,0.4-0.9,0.9
			c0,1.3,0,3.2,0,3.4V22c0,0.5,0.4,0.8,0.8,0.8h6.7"/>
	</g>
</g>
<g>
	<path class="st1" d="M24.5,21.5h1.1"/>
	<path class="st1" d="M24.2,19.7H25"/>
	<path class="st1" d="M23.9,17.9h0.4c1,0,1.4-1.6-0.1-1.6c0,0-3.8-0.1-7,1"/>
	<path class="st1" d="M24.3,17.9l0.7,0c1.2,0,1.2,1.8,0,1.8h0.6c1.2,0,1.2,1.8,0,1.8h0.1c1.2,0,1.2,1.8,0,1.8h-4.3
		c1.9,4.7-1.5,6.1-1.4,4.3c0.2-2.5-2.8-4.8-2.8-4.8"/>
	<path class="st1" d="M17.3,16.2h-3.5v7.1h3.5V16.2z"/>
</g>
</svg>
