<?xml version="1.0" encoding="utf-8"?>
<!-- Generator: Adobe Illustrator 24.0.1, SVG Export Plug-In . SVG Version: 6.00 Build 0)  -->
<svg version="1.1" id="Camada_1" xmlns="http://www.w3.org/2000/svg" xmlns:xlink="http://www.w3.org/1999/xlink" x="0px" y="0px"
	 viewBox="0 0 30 30" style="enable-background:new 0 0 30 30;" xml:space="preserve">
<style type="text/css">
	.st0{fill:#010202;stroke:#010202;stroke-width:0.2;}
	.st1{fill:none;stroke:#010202;}
	.st2{fill:none;stroke:#020304;}
	.st3{fill:none;stroke:#010202;stroke-linecap:round;stroke-linejoin:round;}
	.st4{fill:none;stroke:#010202;stroke-width:0.5;}
	.st5{fill:none;stroke:#010202;stroke-linecap:round;}
	.st6{fill:none;stroke:#020304;stroke-linecap:round;}
	.st7{fill:#010202;}
</style>
<path class="st2" d="M9.2,12.4h10"/>
<path class="st2" d="M9.2,10.1h10"/>
<path class="st2" d="M9.2,15.1h4.4"/>
<path class="st2" d="M19,3.5v4h4"/>
<path class="st2" d="M23.5,16.1V9V7.2c0-0.1-3.8-4.2-4-4.2l-9.2,0c-0.2,0-1.7,0-2,0H7.2C6.7,3,6.3,3.4,6.3,3.9c0,1.1,0,3,0,3.1v15.7
	c0,0.5,0.4,0.8,0.8,0.8h6.4"/>
<path class="st1" d="M25.2,22.4h-0.9"/>
<path class="st1" d="M24.7,20.9H24"/>
<path class="st1" d="M18.3,18.9c2.6-0.9,5.7-0.8,5.7-0.8c1.2,0,0.9,1.3,0.1,1.3h-0.3"/>
<path class="st1" d="M18.3,23.4c0,0,2.5,1.9,2.3,4c-0.1,1.5,2.7,0.4,1.1-3.5h3.5c1,0,1-1.5,0-1.5h-0.1c1,0,1-1.5,0-1.5h-0.5
	c1,0,1-1.5,0-1.5l-0.6,0"/>
<path class="st1" d="M18.3,18h-2.9v5.9h2.9V18z"/>
</svg>
