<svg xmlns="http://www.w3.org/2000/svg" width="47" height="47" viewBox="0 0 47 47">
  <g id="Grupo_39386" data-name="Grupo 39386" transform="translate(-1533 -430)">
    <g id="Grupo_39382" data-name="Grupo 39382" transform="translate(290.989 10.989)">
      <circle id="Elipse_367" data-name="Elipse 367" cx="23.5" cy="23.5" r="23.5" transform="translate(1242.011 419.011)" fill="#b2951d"/>
    </g>
    <g id="speed-meter" transform="translate(1541.44 346.578)">
      <g id="Grupo_39383" data-name="Grupo 39383" transform="translate(0 91.922)">
        <path id="Caminho_10512" data-name="Caminho 10512" d="M43.262,168.458a.366.366,0,0,0-.09-.265l-2.9-3.295a.366.366,0,0,0-.516-.033,15.064,15.064,0,0,0-3.283,4.1.365.365,0,0,0,.145.5l3.849,2.1a.365.365,0,0,0,.5-.145,9.961,9.961,0,0,1,2.171-2.711A.364.364,0,0,0,43.262,168.458Z" transform="translate(-34.64 -161.189)" fill="#f6e17a"/>
        <path id="Caminho_10513" data-name="Caminho 10513" d="M160.931,99.229a.365.365,0,0,0,.494.152,9.842,9.842,0,0,1,3.3-1.061.366.366,0,0,0,.313-.411l-.59-4.346a.366.366,0,0,0-.411-.313,14.941,14.941,0,0,0-5.009,1.611.366.366,0,0,0-.152.494Z" transform="translate(-151.016 -93.181)" fill="#f6e17a"/>
        <path id="Caminho_10514" data-name="Caminho 10514" d="M5.206,311.91.973,310.761a.366.366,0,0,0-.448.257A15.1,15.1,0,0,0,0,314.97c0,.229.005.459.017.7a.365.365,0,0,0,.365.349H.4l4.382-.2a.365.365,0,0,0,.348-.382c-.008-.164-.011-.317-.011-.467a9.977,9.977,0,0,1,.346-2.612A.366.366,0,0,0,5.206,311.91Z" transform="translate(0 -299.979)" fill="#f6e17a"/>
        <path id="Caminho_10515" data-name="Caminho 10515" d="M324.957,93.341a14.948,14.948,0,0,0-5.065-1.417.365.365,0,0,0-.4.329l-.423,4.366a.365.365,0,0,0,.329.4,9.846,9.846,0,0,1,3.337.933.365.365,0,0,0,.488-.17l1.9-3.951A.365.365,0,0,0,324.957,93.341Z" transform="translate(-303.365 -91.922)" fill="#f6e17a"/>
        <path id="Caminho_10516" data-name="Caminho 10516" d="M437.46,161.692a.365.365,0,0,0-.041-.277,15.071,15.071,0,0,0-3.438-3.971.365.365,0,0,0-.514.053l-2.768,3.4a.366.366,0,0,0,.053.514,9.966,9.966,0,0,1,2.274,2.627.365.365,0,0,0,.5.126l3.765-2.251A.366.366,0,0,0,437.46,161.692Z" transform="translate(-409.425 -154.142)" fill="#f6e17a"/>
        <path id="Caminho_10517" data-name="Caminho 10517" d="M503.379,299.986a.365.365,0,0,0-.458-.24l-4.186,1.311a.365.365,0,0,0-.24.458,9.949,9.949,0,0,1,.453,2.977c0,.15,0,.3-.011.467a.365.365,0,0,0,.348.382l4.382.2h.017a.366.366,0,0,0,.365-.349c.011-.244.017-.474.017-.7A15.058,15.058,0,0,0,503.379,299.986Z" transform="translate(-473.947 -289.502)" fill="#f6e17a"/>
        <path id="Caminho_10518" data-name="Caminho 10518" d="M7.429,3.94c-.07,0-.14,0-.209.006L.63.058A.418.418,0,0,0,.049.614l3.6,6.738a3.877,3.877,0,0,0-.02.393A3.805,3.805,0,1,0,7.429,3.94Z" transform="translate(14.6 8.037) rotate(41)" fill="#f6e17a"/>
      </g>
    </g>
  </g>
</svg>