<svg xmlns="http://www.w3.org/2000/svg" width="43.967" height="34.335" viewBox="0 0 43.967 34.335">
    <g id="Grupo_3070" data-name="Grupo 3070" transform="translate(-825.277 -432.448)">
        <path id="Caminho_3805" data-name="Caminho 3805"
            d="M1391.372,3568.126h-5.589a.752.752,0,0,1-.814-.74v-10.566a.8.8,0,0,1,.814-.8h5.434l7.842-5.723c1.937-1.244,2.051.847,2.051.847v21.9s-.114,2.064-2.051.82l-7.687-5.737Z"
            transform="translate(-559.193 -3108)" fill="none" stroke="#14CC30" stroke-width="1" fill-rule="evenodd" />
        <path id="Caminho_3806" data-name="Caminho 3806" d="M1419.06,3571.281a8.671,8.671,0,0,0,0-12.67"
            transform="translate(-570.356 -3110.852)" fill="none" stroke="#14CC30" stroke-width="1" />
        <path id="Caminho_3807" data-name="Caminho 3807"
            d="M1424.84,3572.85a12.973,12.973,0,0,0,4.022-9.4c0-.238-.006-.475-.042-1.028a13.666,13.666,0,0,0-.556-2.836l-.138-.459h0c.064.2.033.1,0,0"
            transform="translate(-572.249 -3109.355)" fill="none" stroke="#14CC30" stroke-width="1" />
        <path id="Caminho_3808" data-name="Caminho 3808" d="M1412.86,3563.18a4.322,4.322,0,0,1,0,6.523"
            transform="translate(-568.326 -3112.348)" fill="none" stroke="#14CC30" stroke-width="1" />
    </g>
    <path id="icons8-whatsapp" stroke="#14CC30"
        d="M11.455,2A9.415,9.415,0,0,0,3.227,16.063L2.015,20.388a.411.411,0,0,0,.495.51L7.02,19.78A9.446,9.446,0,1,0,11.455,2Zm0,.822A8.633,8.633,0,1,1,7.246,18.992a.411.411,0,0,0-.3-.04L3,19.93l1.059-3.778a.411.411,0,0,0-.041-.32,8.631,8.631,0,0,1,7.44-13.009Zm-3.436,3.7a1.307,1.307,0,0,0-.949.431,3.2,3.2,0,0,0-.959,2.279A4.848,4.848,0,0,0,7.185,11.96h0c-.011-.014.147.214.358.489a13.019,13.019,0,0,0,.877,1.025A9.519,9.519,0,0,0,11.5,15.709a14.65,14.65,0,0,0,1.422.519,3.789,3.789,0,0,0,1.713.109,2.89,2.89,0,0,0,1.077-.445,2,2,0,0,0,.887-.962,3.392,3.392,0,0,0,.193-.846,1.94,1.94,0,0,0,0-.324.563.563,0,0,0-.091-.323c-.191-.314-.408-.322-.634-.434-.126-.062-.483-.237-.842-.408s-.669-.322-.86-.39a.969.969,0,0,0-.481-.082.818.818,0,0,0-.545.359c-.116.172-.583.723-.725.885l-.046-.023c-.176-.087-.391-.161-.71-.329a5.872,5.872,0,0,1-1.153-.8h0a6.788,6.788,0,0,1-1.247-1.53c.01-.011,0,0,.019-.018h0c.147-.144.276-.317.386-.443a2.05,2.05,0,0,0,.3-.485.909.909,0,0,0-.02-.788h0c.006.012-.046-.1-.1-.237S9.914,8.4,9.837,8.22c-.154-.369-.326-.783-.428-1.026h0a1.07,1.07,0,0,0-.5-.591A.8.8,0,0,0,8.5,6.531h0C8.351,6.524,8.185,6.522,8.019,6.522Zm0,.822c.158,0,.315,0,.446.008s.126.007.1,0,.009-.016.086.165c.1.238.273.653.427,1.024.077.185.149.359.207.5s.089.212.125.285h0c.036.07.032.025.02.05a1.2,1.2,0,0,1-.186.316c-.134.154-.27.326-.342.4a.884.884,0,0,0-.248.348.8.8,0,0,0,.076.643,7.522,7.522,0,0,0,1.432,1.76,6.721,6.721,0,0,0,1.313.911c.365.193.662.305.729.338a.924.924,0,0,0,.532.115.8.8,0,0,0,.484-.271h0c.147-.166.583-.664.792-.971.009,0,.006,0,.075.026h0c.032.011.429.189.784.358s.714.344.831.4c.169.083.248.138.269.138a.966.966,0,0,1,0,.135,2.617,2.617,0,0,1-.147.638,1.55,1.55,0,0,1-.553.547,2.557,2.557,0,0,1-.759.326,2.947,2.947,0,0,1-1.346-.08,13.739,13.739,0,0,1-1.346-.491,8.786,8.786,0,0,1-2.8-2.044,12.215,12.215,0,0,1-.821-.961c-.2-.256-.283-.39-.355-.484h0a4.441,4.441,0,0,1-.907-2.23,2.167,2.167,0,0,1,.74-1.72A.487.487,0,0,1,8.019,7.344Z"
        transform="translate(23.058 -2)" />
</svg>