<?xml version="1.0" encoding="utf-8"?>
<!-- Generator: Adobe Illustrator 24.3.0, SVG Export Plug-In . SVG Version: 6.00 Build 0)  -->
<svg version="1.1" id="Camada_1" xmlns="http://www.w3.org/2000/svg" xmlns:xlink="http://www.w3.org/1999/xlink" x="0px" y="0px"
	 viewBox="0 0 24 24" style="enable-background:new 0 0 24 24;" xml:space="preserve">
<style type="text/css">
	.st0{fill:none;stroke:#707070;stroke-width:1.5;stroke-miterlimit:10;}
</style>
<g>
	<path id="Caminho_12237" class="st0" d="M3.9,13.1l8.4-11.7c0.1-0.1,0.3-0.2,0.5-0.1C12.9,1.3,13,1.4,13,1.5v5.9
		c0,0.5,0.5,1,1.1,0.9h5.5c0.3,0,0.6,0.2,0.6,0.5c0,0.1,0,0.2-0.1,0.3l-8.4,13.5c-0.1,0.1-0.3,0.2-0.5,0.1c-0.1-0.1-0.2-0.1-0.2-0.3
		c0-1.9,0-5.8,0-7.7c0-0.5-0.5-1-1.1-0.9c0,0,0,0,0,0H4.5c-0.3,0-0.6-0.2-0.6-0.5C3.8,13.3,3.9,13.2,3.9,13.1z"/>
</g>
</svg>
