<svg id="Componente_31_1" data-name="Componente 31 – 1" xmlns="http://www.w3.org/2000/svg" width="50.944" height="52.588" viewBox="0 0 50.944 52.588">
  <g id="ico-automacao-mensagens" transform="translate(13.481 10.218)">
    <g id="Caminho_306" data-name="Caminho 306" transform="translate(7.294 7.301)">
      <path id="Caminho_13963" data-name="Caminho 13963" d="M33.036,27.563a5.052,5.052,0,1,1,0-10.1h0a5.052,5.052,0,0,1,0,10.1h0Zm0-8.584h0a3.532,3.532,0,1,0,0,7.063h0a3.532,3.532,0,0,0,0-7.063Z" transform="translate(-27.981 -17.459)"/>
    </g>
    <g id="Caminho_307" data-name="Caminho 307" transform="translate(0)">
      <path id="Caminho_13964" data-name="Caminho 13964" d="M34.405,36.224A12.224,12.224,0,0,1,32.7,36.1a.763.763,0,0,1-.65-.655L31.7,32.815a9.151,9.151,0,0,1-1.71-.71l-2.112,1.622a.762.762,0,0,1-.92,0,12.241,12.241,0,0,1-2.411-2.413.76.76,0,0,1,0-.92l1.62-2.107a9.168,9.168,0,0,1-.712-1.716l-2.634-.346a.76.76,0,0,1-.655-.647,12.2,12.2,0,0,1,0-3.413.761.761,0,0,1,.655-.648l2.634-.344a9.145,9.145,0,0,1,.712-1.717l-1.62-2.107a.76.76,0,0,1,0-.923,12.514,12.514,0,0,1,2.409-2.409.759.759,0,0,1,.921,0l2.112,1.62a9.23,9.23,0,0,1,1.71-.709l.343-2.635a.762.762,0,0,1,.648-.655,12.25,12.25,0,0,1,3.42,0,.761.761,0,0,1,.647.655l.344,2.643a9.277,9.277,0,0,1,1.708.709l2.106-1.62a.762.762,0,0,1,.92-.006,12.318,12.318,0,0,1,2.419,2.414.762.762,0,0,1,0,.921L42.633,19.47a9.493,9.493,0,0,1,.706,1.708l2.634.344a.761.761,0,0,1,.655.645,11.9,11.9,0,0,1,0,3.421.76.76,0,0,1-.655.645l-2.636.346a9.365,9.365,0,0,1-.7,1.7l1.623,2.111a.762.762,0,0,1,0,.921,12.324,12.324,0,0,1-2.419,2.415.757.757,0,0,1-.92-.006L38.815,32.1a9.461,9.461,0,0,1-1.708.707l-.344,2.644a.761.761,0,0,1-.65.655A12.22,12.22,0,0,1,34.405,36.224Zm-.926-1.56a10.7,10.7,0,0,0,1.852,0l.333-2.555a.761.761,0,0,1,.575-.641,7.865,7.865,0,0,0,2.243-.93.759.759,0,0,1,.86.047l2.035,1.567a10.794,10.794,0,0,0,1.311-1.308l-1.57-2.04a.763.763,0,0,1-.046-.86A7.786,7.786,0,0,0,42,25.7a.761.761,0,0,1,.739-.582h.012l2.438-.32a10.315,10.315,0,0,0,0-1.849l-2.548-.333A.761.761,0,0,1,42,22.044a7.78,7.78,0,0,0-.926-2.24.761.761,0,0,1,.046-.859l1.57-2.04A10.62,10.62,0,0,0,41.376,15.6l-2.035,1.566a.756.756,0,0,1-.86.047,7.888,7.888,0,0,0-2.243-.93.758.758,0,0,1-.575-.641l-.333-2.554a10.575,10.575,0,0,0-1.852,0l-.332,2.549a.762.762,0,0,1-.578.641,7.651,7.651,0,0,0-2.238.928.757.757,0,0,1-.861-.044l-2.041-1.567A11,11,0,0,0,26.123,16.9l1.567,2.037a.761.761,0,0,1,.044.862A7.627,7.627,0,0,0,26.8,22.04a.76.76,0,0,1-.642.577l-2.547.333a10.778,10.778,0,0,0,0,1.848l2.547.333a.758.758,0,0,1,.642.577,7.606,7.606,0,0,0,.933,2.242.763.763,0,0,1-.044.864l-1.569,2.039a10.723,10.723,0,0,0,1.305,1.305l2.042-1.569a.759.759,0,0,1,.861-.044,7.676,7.676,0,0,0,2.238.929.759.759,0,0,1,.578.64Z" transform="translate(-22.052 -11.524)"/>
    </g>
  </g>
  <g id="ico-automacao-mensagens-2" data-name="ico-automacao-mensagens" transform="translate(38.18)">
    <g id="Caminho_306-2" data-name="Caminho 306" transform="translate(3.769 3.772)">
      <path id="Caminho_13965" data-name="Caminho 13965" d="M48.416,11.387a2.611,2.611,0,1,1,0-5.222h0a2.611,2.611,0,0,1,0,5.222h0Zm0-4.436h0a1.825,1.825,0,1,0,0,3.651h0a1.825,1.825,0,0,0,0-3.651Z" transform="translate(-45.804 -6.165)"/>
    </g>
    <g id="Caminho_307-2" data-name="Caminho 307">
      <path id="Caminho_13966" data-name="Caminho 13966" d="M49.347,16.086a6.336,6.336,0,0,1-.882-.062.393.393,0,0,1-.336-.338l-.178-1.361a4.637,4.637,0,0,1-.884-.368l-1.091.839a.4.4,0,0,1-.476,0,6.377,6.377,0,0,1-1.246-1.247.392.392,0,0,1,0-.475l.837-1.089a4.592,4.592,0,0,1-.369-.888l-1.36-.178a.393.393,0,0,1-.34-.334,6.332,6.332,0,0,1,0-1.764.393.393,0,0,1,.34-.334l1.36-.179a4.615,4.615,0,0,1,.369-.886l-.837-1.089a.392.392,0,0,1,0-.476A6.467,6.467,0,0,1,45.5,4.612a.392.392,0,0,1,.478,0l1.091.837a4.719,4.719,0,0,1,.884-.366l.178-1.361a.393.393,0,0,1,.334-.338,6.36,6.36,0,0,1,1.768,0,.393.393,0,0,1,.334.338l.178,1.365a4.744,4.744,0,0,1,.882.366l1.088-.837a.392.392,0,0,1,.476,0A6.312,6.312,0,0,1,54.439,5.86a.392.392,0,0,1,0,.476L53.6,7.428a4.87,4.87,0,0,1,.365.882l1.361.179a.391.391,0,0,1,.338.333,6.163,6.163,0,0,1,0,1.768.393.393,0,0,1-.338.333l-1.363.179a4.776,4.776,0,0,1-.364.877l.839,1.091a.392.392,0,0,1,0,.476,6.283,6.283,0,0,1-1.249,1.247.39.39,0,0,1-.476,0l-1.088-.837a4.8,4.8,0,0,1-.882.366l-.178,1.365a.393.393,0,0,1-.336.338A6.35,6.35,0,0,1,49.347,16.086Zm-.479-.807a5.485,5.485,0,0,0,.957,0L50,13.959a.394.394,0,0,1,.3-.33,4.094,4.094,0,0,0,1.158-.482.392.392,0,0,1,.445.025l1.052.809a5.73,5.73,0,0,0,.678-.677l-.812-1.054a.4.4,0,0,1-.024-.443,4.043,4.043,0,0,0,.479-1.158.394.394,0,0,1,.382-.3h.007l1.259-.165a5.223,5.223,0,0,0,0-.955L53.6,9.056a.394.394,0,0,1-.332-.3A4.006,4.006,0,0,0,52.792,7.6a.4.4,0,0,1,.024-.443L53.628,6.1a5.621,5.621,0,0,0-.678-.675L51.9,6.236a.39.39,0,0,1-.445.024,4.084,4.084,0,0,0-1.158-.48.394.394,0,0,1-.3-.33l-.173-1.32a5.485,5.485,0,0,0-.957,0L48.7,5.445a.393.393,0,0,1-.3.332,4,4,0,0,0-1.157.479.39.39,0,0,1-.445-.023l-1.055-.809a5.577,5.577,0,0,0-.674.674l.809,1.054A.392.392,0,0,1,45.9,7.6a3.976,3.976,0,0,0-.482,1.158.392.392,0,0,1-.332.3l-1.316.173a5.726,5.726,0,0,0,0,.954l1.316.173a.392.392,0,0,1,.332.3,3.976,3.976,0,0,0,.482,1.158.392.392,0,0,1-.023.446l-.811,1.054a5.494,5.494,0,0,0,.675.674l1.055-.809a.39.39,0,0,1,.445-.024,3.986,3.986,0,0,0,1.157.48.392.392,0,0,1,.3.33Z" transform="translate(-42.964 -3.322)"/>
    </g>
  </g>
  <g id="Grupo_39760" data-name="Grupo 39760" transform="translate(0 4.585)">
    <g id="Grupo_39759" data-name="Grupo 39759" transform="translate(0 0)">
      <path id="Caminho_13967" data-name="Caminho 13967" d="M19.651,53.662a1.116,1.116,0,0,1-.433-.086,1.13,1.13,0,0,1-.7-1.045V43.043H15.01a1.1,1.1,0,0,1-.162-.011c-1.938-.282-5.6-1.845-5.6-5.754V12.033a1.1,1.1,0,0,1,.018-.2C9.65,9.7,11.477,5.658,15.62,5.658H44.363a1.131,1.131,0,0,1,0,2.261H15.62c-3.047,0-3.978,3.617-4.113,4.228V37.278c0,2.728,3.069,3.408,3.6,3.5h4.546a1.13,1.13,0,0,1,1.131,1.131V49.8l9.192-9.192a1.132,1.132,0,0,1,.8-.331h20.81c2.7,0,3.43-3.087,3.538-3.638V16.59a1.131,1.131,0,0,1,2.261,0V36.741a1.158,1.158,0,0,1-.014.176c-.308,1.945-1.913,5.622-5.786,5.622H31.241L20.45,53.33A1.126,1.126,0,0,1,19.651,53.662Z" transform="translate(-9.245 -5.658)"/>
    </g>
  </g>
</svg>
