<svg xmlns="http://www.w3.org/2000/svg" width="45.113" height="39.474" viewBox="0 0 45.113 39.474">
  <path id="graduation-cap" d="M22.505,1.06a.705.705,0,0,0-.3.094L.35,13.844a.705.705,0,0,0,.017,1.228l5.275,2.891v6.355H4.233a.707.707,0,0,0-.708.708V34.1L2.183,37.061a.711.711,0,0,0-.069.289v2.477a.706.706,0,0,0,1.411,0V38.061H5.641v1.766a.7.7,0,1,0,1.41,0V38.061H9.165v1.766a.7.7,0,1,0,1.41,0V37.35a.63.63,0,0,0-.062-.284L9.165,34.045V25.026a.7.7,0,0,0-.7-.708H7.052V18.736l3.512,1.926v6.476a3.513,3.513,0,0,0,1.083,2.415,8.175,8.175,0,0,0,2.638,1.722,21.155,21.155,0,0,0,8.267,1.5,21.191,21.191,0,0,0,8.274-1.5,8.175,8.175,0,0,0,2.638-1.722,3.511,3.511,0,0,0,1.082-2.415V20.665l10.2-5.592a.705.705,0,0,0,.01-1.228L22.912,1.154a.706.706,0,0,0-.406-.094Zm.052,1.519L42.97,14.432l-20.412,11.2L8.383,17.856l12.246-2.913a2.118,2.118,0,1,0-.092-1.429L6.547,16.848,2.14,14.432Zm0,10.813a.7.7,0,0,1,0,1.41.7.7,0,1,1,0-1.41ZM11.975,21.434,22.22,27.05a.7.7,0,0,0,.676,0l10.24-5.613v5.7a2.07,2.07,0,0,1-.687,1.437,6.937,6.937,0,0,1-2.19,1.41,19.975,19.975,0,0,1-7.707,1.384,19.967,19.967,0,0,1-7.705-1.384,6.9,6.9,0,0,1-2.185-1.41,2.07,2.07,0,0,1-.687-1.437Zm-7.04,4.294H7.754v7.754H4.935Zm-.219,9.163H8l.781,1.758H3.915Z" transform="translate(0 -1.058)"/>
</svg>