<?xml version="1.0" encoding="utf-8"?>
<!-- Generator: Adobe Illustrator 24.2.0, SVG Export Plug-In . SVG Version: 6.00 Build 0)  -->
<svg version="1.1" id="Camada_1" xmlns="http://www.w3.org/2000/svg" xmlns:xlink="http://www.w3.org/1999/xlink" x="0px" y="0px"
	 viewBox="0 0 24 24" style="enable-background:new 0 0 24 24;" xml:space="preserve">
<style type="text/css">
	.st0{fill:none;stroke:#000000;stroke-width:0.8;stroke-linejoin:round;}
	.st1{fill:none;stroke:#000000;stroke-linecap:round;stroke-linejoin:round;}
</style>
<g>
	<path class="st0" d="M18.22,20.68c0.51,0,0.93-0.42,0.93-0.93s-0.42-0.93-0.93-0.93c-0.51,0-0.93,0.42-0.93,0.93
		S17.71,20.68,18.22,20.68z"/>
	<path class="st0" d="M20.23,21.21l0.88,0.23c0.16-0.27,0.27-0.54,0.35-0.86l-0.79-0.45c0.04-0.26,0.04-0.52,0-0.77l0.79-0.46
		c-0.08-0.3-0.2-0.59-0.36-0.85l-0.88,0.24c-0.15-0.21-0.33-0.39-0.55-0.54l0.23-0.88c-0.28-0.16-0.55-0.27-0.86-0.35L18.6,17.3
		c-0.26-0.04-0.52-0.04-0.77,0l-0.46-0.79c-0.29,0.08-0.58,0.2-0.85,0.36l0.24,0.88c-0.21,0.15-0.39,0.33-0.54,0.55l-0.88-0.23
		c-0.15,0.26-0.27,0.55-0.35,0.86l0.79,0.45c-0.04,0.26-0.04,0.52,0,0.77l-0.79,0.46c0.08,0.29,0.2,0.58,0.36,0.85l0.88-0.24
		c0.15,0.21,0.33,0.39,0.55,0.54l-0.23,0.88c0.27,0.16,0.55,0.27,0.86,0.35l0.45-0.79c0.26,0.04,0.52,0.04,0.77,0l0.46,0.79
		c0.3-0.08,0.59-0.2,0.85-0.36l-0.24-0.88C19.89,21.6,20.08,21.42,20.23,21.21L20.23,21.21z"/>
	<path class="st1" d="M16.66,15.6c-1.1-0.58-1.14-0.63-1.28-1.06V13.5c0.69-0.7,1.23-1.68,1.55-2.82c0.77-0.54,0.96-1.65,0.33-2.43
		V5.93c0-2.39-1.34-4.03-4.41-4.03c-2.99,0-4.41,1.64-4.41,4.03v2.32C7.81,9.03,8,10.14,8.77,10.68c0.32,1.14,0.87,2.12,1.56,2.82
		v1.03c-0.31,0.99-4,2.57-7.32,3.84c-0.28,0.11-0.47,0.38-0.47,0.69v2.59c0,0.41,0.33,0.74,0.73,0.74h11.1"/>
</g>
</svg>
