<?xml version="1.0" encoding="utf-8"?>
<!-- Generator: Adobe Illustrator 23.0.6, SVG Export Plug-In . SVG Version: 6.00 Build 0)  -->
<svg version="1.1" id="Camada_1" xmlns="http://www.w3.org/2000/svg" xmlns:xlink="http://www.w3.org/1999/xlink" x="0px" y="0px"
	 viewBox="0 0 17 17" style="enable-background:new 0 0 17 17;" xml:space="preserve">
<style type="text/css">
	.st0{fill:none;stroke:#424242;stroke-width:0.75;}
</style>
<g>
	<path class="st0" d="M7.2,1.9V0.4"/>
	<path class="st0" d="M3.3,3.9h1.6"/>
	<path class="st0" d="M9.4,3.9H11"/>
	<path class="st0" d="M8.8,2.4l1.3-1.2"/>
	<path class="st0" d="M5.5,2.4L4.3,1.2"/>
	<path class="st0" d="M8.2,9.5V8.5c0-0.6,0.5-1.1,1.1-1.1l0,0c0.6,0,1.1,0.5,1.1,1.1v1.8"/>
	<path class="st0" d="M12.5,10.6V9.2c0-0.6-0.5-1.1-1.1-1.1s-1.1,0.5-1.1,1.1v1.1"/>
	<path class="st0" d="M6.1,12.4V4.2c0-0.6,0.5-1.1,1.1-1.1c0.6,0,1.1,0.5,1.1,1.1v5.3"/>
	<path class="st0" d="M6.5,16.6c-0.3-0.7-0.9-1.3-0.9-1.3C4,13.5,2.7,9.8,2.7,9.8C2.3,8.7,3.6,8.2,4.1,8.9l0.6,1l1.5,2.5"/>
	<path class="st0" d="M12.6,16.6c0.1-0.6,0.3-1.5,0.9-2.6c0.7-1.5,0.9-3.4,0.9-3.4c0-0.6-0.3-1.1-0.8-1.1s-1.1,0.5-1.1,1.1"/>
	<path class="st0" d="M12.5,10.6V11"/>
</g>
</svg>
