<?xml version="1.0" encoding="utf-8"?>
<!-- Generator: Adobe Illustrator 24.0.1, SVG Export Plug-In . SVG Version: 6.00 Build 0)  -->
<svg version="1.1" id="Camada_1" xmlns="http://www.w3.org/2000/svg" xmlns:xlink="http://www.w3.org/1999/xlink" x="0px" y="0px"
	 viewBox="0 0 30 30" style="enable-background:new 0 0 30 30;" xml:space="preserve">
<style type="text/css">
	.st0{fill:none;stroke:#020304;stroke-width:1.2;}
	.st1{fill:none;stroke:#010202;stroke-width:1.2;}
	.st2{fill:none;stroke:#020304;stroke-width:0.8;}
	.st3{fill:none;stroke:#020304;}
	.st4{fill:none;stroke:#020304;stroke-linecap:round;}
	.st5{fill:none;stroke:#010202;stroke-width:1.2;stroke-linecap:round;}
</style>
<g>
	<path class="st0" d="M19.3,22.4H4.1c-1.5,0-2.7-1-2.7-2.1l0-10.9c0-1.2,1.2-2,2.7-2l19.9,0c1.5,0,2.7,0.9,2.7,2v6.4"/>
	<path class="st0" d="M24.3,16.6c2.3,0,4.2,1.8,4.2,4s-1.9,4-4.2,4s-4.2-1.8-4.2-4S22,16.6,24.3,16.6z"/>
	<path class="st0" d="M1.9,16.6h18.6"/>
	<path class="st0" d="M1.9,19.3h16.9"/>
	<path class="st0" d="M21.9,20.4l1.6,1.9l3-3.2"/>
</g>
</svg>
