<?xml version="1.0" encoding="utf-8"?>
<!-- Generator: Adobe Illustrator 23.0.6, SVG Export Plug-In . SVG Version: 6.00 Build 0)  -->
<svg version="1.1" id="Camada_1" xmlns="http://www.w3.org/2000/svg" xmlns:xlink="http://www.w3.org/1999/xlink" x="0px" y="0px"
	 viewBox="0 0 24 24" style="enable-background:new 0 0 24 24;" xml:space="preserve">
<style type="text/css">
	.st0{clip-path:url(#SVGID_2_);}
	.st1{fill:none;stroke:#020304;stroke-width:2;}
	.st2{fill:none;stroke:#020304;}
	.st3{clip-path:url(#SVGID_4_);}
	.st4{fill:#020304;}
	.st5{fill:#010202;}
	.st6{fill:none;stroke:#020304;stroke-width:1.5;}
	.st7{fill:#020304;stroke:#020304;stroke-width:0.3;}
	.st8{clip-path:url(#SVGID_6_);}
	.st9{clip-path:url(#SVGID_8_);}
	.st10{clip-path:url(#SVGID_10_);}
	.st11{clip-path:url(#SVGID_12_);}
</style>
<g>
	<path class="st6" d="M6.9,6.8l5.7,6.8l3.5-2.4"/>
	<path class="st7" d="M12,22.3c-5.8,0-10.4-4.7-10.4-10.4S6.2,1.4,12,1.4s10.4,4.7,10.4,10.4c0,1.6-0.4,3.2-1.1,4.6
		c0.3,0.1,0.6,0.3,0.8,0.6c0.8-1.6,1.2-3.3,1.2-5.2c0-6.3-5.1-11.4-11.4-11.4S0.6,5.6,0.6,11.9S5.7,23.3,12,23.3
		c1.6,0,3.1-0.3,4.4-0.9c-0.2-0.2-0.4-0.5-0.5-0.8C14.7,22.1,13.4,22.3,12,22.3z"/>
	<path class="st4" d="M22,17.4c-0.2-0.2-0.5-0.4-0.8-0.6c-0.5-0.3-1.1-0.4-1.7-0.4c-2,0-3.6,1.6-3.6,3.6c0,0.5,0.1,1,0.3,1.5
		c0.1,0.3,0.3,0.6,0.5,0.8c0.7,0.8,1.6,1.3,2.7,1.3c2,0,3.6-1.6,3.6-3.6C23.1,19,22.6,18,22,17.4z M19.5,22.8c-0.8,0-1.5-0.3-2-0.9
		c-0.2-0.2-0.4-0.5-0.5-0.8c-0.2-0.3-0.3-0.7-0.3-1.2c0-1.6,1.3-2.9,2.9-2.9c0.5,0,1,0.1,1.4,0.3c0.3,0.1,0.5,0.4,0.8,0.6
		c0.4,0.5,0.7,1.2,0.7,1.9C22.3,21.5,21,22.8,19.5,22.8z"/>
	<path class="st5" d="M19.1,18.4H20l-0.1,2.2h-0.6L19.1,18.4z M19.5,21.8c-0.1,0-0.2,0-0.3-0.1c-0.1-0.1-0.1-0.2-0.1-0.3
		s0-0.2,0.1-0.3c0.1-0.1,0.2-0.1,0.3-0.1s0.2,0,0.3,0.1c0.1,0.1,0.1,0.2,0.1,0.3s0,0.2-0.1,0.3C19.8,21.8,19.7,21.8,19.5,21.8z"/>
</g>
</svg>
