<svg xmlns="http://www.w3.org/2000/svg" width="19" height="20" viewBox="0 0 19 20">
    <g fill="none" fill-rule="evenodd">
        <path d="M-.2.8H19V20H-.2z"/>
        <g stroke="#0756e4">
            <path d="M18.101 9.436l-.125-.126a.788.788 0 0 0-.977-.108l-6.43-6.431a.787.787 0 0 0-.11-.977l-.125-.125a.788.788 0 0 0-1.115 0L4.867 6.02a.79.79 0 0 0 0 1.116l.126.125c.264.264.67.3.973.11l6.433 6.433a.788.788 0 0 0 .11.973l.126.126a.788.788 0 0 0 1.115 0L18.1 10.55a.789.789 0 0 0 0-1.115M8.111 11.659l-7.82 7.82M12.399 13.804l4.6-4.602M5.966 7.371l4.602-4.6"/>
        </g>
    </g>
</svg>
