<svg xmlns="http://www.w3.org/2000/svg" xmlns:xlink="http://www.w3.org/1999/xlink" width="25" height="25" viewBox="0 0 25 25">
    <defs>
        <path id="a" d="M23.49 2.826A2.365 2.365 0 0 0 21.123.461H2.854A2.365 2.365 0 0 0 .49 2.826v18.27a2.365 2.365 0 0 0 2.366 2.365h18.27a2.365 2.365 0 0 0 2.364-2.365V2.826z"/>
        <circle id="b" cx="6" cy="13" r="1"/>
        <circle id="c" cx="12" cy="16" r="1"/>
        <circle id="d" cx="18" cy="8" r="1"/>
        <path id="e" d="M18.5 8.5l5.317 4.242"/>
        <path id="f" d="M13 15.671L17.338 9"/>
        <path id="g" d="M7 13l4.5 2.5"/>
        <path id="h" d="M0 16.737L4.885 13"/>
    </defs>
    <g fill="none" fill-rule="evenodd">
        <path d="M1 2h24v22H1z"/>
        <g transform="translate(1 1)">
            <use stroke="#f3f4f5" xlink:href="#a"/>
            <use stroke="#424242" xlink:href="#a"/>
        </g>
        <g transform="translate(1 1)">
            <use stroke="#FFF" xlink:href="#b"/>
            <use stroke="#424242" xlink:href="#b"/>
        </g>
        <g transform="translate(1 1)">
            <use stroke="#FFF" xlink:href="#c"/>
            <use stroke="#424242" xlink:href="#c"/>
        </g>
        <g transform="translate(1 1)">
            <use stroke="#FFF" xlink:href="#d"/>
            <use stroke="#424242" xlink:href="#d"/>
        </g>
        <g transform="translate(1 1)">
            <use stroke="#FFF" xlink:href="#e"/>
            <use stroke="#424242" xlink:href="#e"/>
        </g>
        <g transform="translate(1 1)">
            <use stroke="#FFF" xlink:href="#f"/>
            <use stroke="#424242" xlink:href="#f"/>
        </g>
        <g transform="translate(1 1)">
            <use stroke="#FFF" xlink:href="#g"/>
            <use stroke="#424242" xlink:href="#g"/>
        </g>
        <g transform="translate(1 1)">
            <use stroke="#FFF" xlink:href="#h"/>
            <use stroke="#424242" xlink:href="#h"/>
        </g>
    </g>
</svg>
