<?xml version="1.0" encoding="utf-8"?>
<!-- Generator: Adobe Illustrator 23.1.1, SVG Export Plug-In . SVG Version: 6.00 Build 0)  -->
<svg version="1.1" id="Camada_1" xmlns="http://www.w3.org/2000/svg" xmlns:xlink="http://www.w3.org/1999/xlink" x="0px" y="0px"
	 viewBox="0 0 24 24" style="enable-background:new 0 0 24 24;" xml:space="preserve">
<style type="text/css">
	.st0{fill:none;stroke:#000000;}
</style>
<g>
	<path class="st0" d="M16.4,2.7v2.8h2.8"/>
	<path class="st0" d="M19.3,18.3c0,0.3-0.3,0.6-0.6,0.6h-11c-0.3,0-0.6-0.3-0.6-0.6v-15c0-0.3,0.2-0.6,0.6-0.6h8.7
		c0.1,0,0.2,0.1,0.3,0.2l2.4,2.3c0.1,0.1,0.2,0.2,0.2,0.4V18.3L19.3,18.3z"/>
	<path class="st0" d="M16.4,15.6H10"/>
	<path class="st0" d="M16.4,13.2H10"/>
	<path class="st0" d="M16.4,10.8H10"/>
	<path class="st0" d="M14,8.4h-4"/>
	<path class="st0" d="M5.3,5.1C5,5.1,4.7,5.4,4.7,5.7v15c0,0.3,0.3,0.6,0.6,0.6h11.8c0.3,0,0.6-0.3,0.6-0.6"/>
</g>
</svg>
