<?xml version="1.0" encoding="utf-8"?>
<!-- Generator: Adobe Illustrator 24.0.1, SVG Export Plug-In . SVG Version: 6.00 Build 0)  -->
<svg version="1.1" id="Camada_1" xmlns="http://www.w3.org/2000/svg" xmlns:xlink="http://www.w3.org/1999/xlink" x="0px" y="0px"
	 viewBox="0 0 30 30" style="enable-background:new 0 0 30 30;" xml:space="preserve">
<style type="text/css">
	.st0{fill:none;stroke:#020304;stroke-width:1.2;}
	.st1{fill:none;stroke:#010202;stroke-width:1.2;}
	.st2{fill:none;stroke:#020304;stroke-width:0.8;}
	.st3{fill:none;stroke:#020304;}
	.st4{fill:none;stroke:#020304;stroke-linecap:round;}
	.st5{fill:none;stroke:#010202;stroke-width:1.2;stroke-linecap:round;}
</style>
<g>
	<g>
		<g>
			<path class="st0" d="M5.2,11.1h10.4"/>
			<path class="st0" d="M5.2,8.6h10.4"/>
			<path class="st0" d="M5.2,14.1h4.6"/>
		</g>
		<path class="st0" d="M15.4,1.6v4.3h4.2"/>
		<path class="st0" d="M20,15.1V7.5V5.6c0-0.1-3.9-4.4-4.2-4.4c0,0-10.6-0.1-11.5-0.1c-0.7,0-1.2,0-1.2,0C2.6,1.1,2.2,1.5,2.2,2
			c0,1.3,0,3.1,0,3.4v16.8C2.2,22.7,2.6,23,3,23h6.7"/>
	</g>
	<g>
		<path class="st1" d="M25.9,18l-5.8,5.4c-0.4,0.4-1.1,0.4-1.6,0l-5.8-5.3"/>
		<path class="st1" d="M22,23.8l3.9,3.3"/>
		<path class="st1" d="M16.8,23.8l-3.9,3.3"/>
		<path class="st1" d="M11.1,18v9.3c0,1,0.8,1.7,1.7,1.7H26c0.9,0,1.7-0.8,1.7-1.7V18c0-1-0.8-1.7-1.7-1.7H12.7
			C11.9,16.2,11.1,17,11.1,18L11.1,18z"/>
	</g>
</g>
</svg>
