<?xml version="1.0" encoding="utf-8"?>
<!-- Generator: Adobe Illustrator 24.0.1, SVG Export Plug-In . SVG Version: 6.00 Build 0)  -->
<svg version="1.1" id="Camada_1" xmlns="http://www.w3.org/2000/svg" xmlns:xlink="http://www.w3.org/1999/xlink" x="0px" y="0px"
	 viewBox="0 0 30 30" style="enable-background:new 0 0 30 30;" xml:space="preserve">
<style type="text/css">
	.st0{fill:none;stroke:#020304;stroke-width:1.2;}
	.st1{fill:none;stroke:#010202;stroke-width:1.2;}
	.st2{fill:none;stroke:#020304;stroke-width:0.8;}
	.st3{fill:none;stroke:#020304;}
	.st4{fill:none;stroke:#020304;stroke-linecap:round;}
	.st5{fill:none;stroke:#010202;stroke-width:1.2;stroke-linecap:round;}
</style>
<g>
	<g>
		<g>
			<g>
				<path class="st0" d="M6.9,11.1h10.4"/>
				<path class="st0" d="M6.9,8.6h10.4"/>
				<path class="st0" d="M6.9,14.1h4.6"/>
			</g>
			<path class="st0" d="M17.2,1.6v4.3h4.2"/>
			<path class="st0" d="M21.8,15.1V7.5V5.6c0-0.1-3.9-4.4-4.2-4.4c0,0-10.6-0.1-11.5-0.1c-0.7,0-1.2,0-1.2,0C4.4,1.1,4,1.5,4,2
				c0,1.3,0,3.1,0,3.4v16.8C4,22.7,4.4,23,4.8,23h6.7"/>
		</g>
	</g>
	<g>
		<path class="st1" d="M19.2,19.8v6.4"/>
		<path class="st1" d="M16.8,22.1l2.4-2.3l2.4,2.3"/>
		<path class="st1" d="M19.6,29.1c3.6,0,6.4-2.9,6.4-6.4c0-3.6-2.9-6.4-6.4-6.4s-6.4,2.9-6.4,6.4C13.1,26.2,16,29.1,19.6,29.1z"/>
	</g>
</g>
</svg>
