<svg xmlns="http://www.w3.org/2000/svg" width="39.81" height="39.949" viewBox="0 0 39.81 39.949"><defs><style>.a{fill:none;stroke:#424242;stroke-width:2px;fill-rule:evenodd;}</style></defs><g transform="translate(-155.941 -33.71)"><path class="a" d="M1077,471.732a4.505,4.505,0,1,0-4.508-4.505A4.507,4.507,0,0,0,1077,471.732Z" transform="translate(-907.895 -406.73)"/><path class="a" d="M1084.15,467.738l3.292-.431a11.739,11.739,0,0,0,0-3.362l-3.292-.431a9.04,9.04,0,0,0-1.067-2.579l2.027-2.637a12.144,12.144,0,0,0-2.382-2.376l-2.63,2.026a9.061,9.061,0,0,0-2.581-1.071l-.43-3.3a12.016,12.016,0,0,0-3.366,0l-.43,3.294a8.843,8.843,0,0,0-2.581,1.07l-2.639-2.026a12.366,12.366,0,0,0-2.374,2.375l2.026,2.635a8.873,8.873,0,0,0-1.075,2.587l-3.292.431a12.02,12.02,0,0,0,0,3.359l3.292.431a8.873,8.873,0,0,0,1.075,2.587l-2.026,2.635a12.155,12.155,0,0,0,2.374,2.375l2.639-2.027a8.867,8.867,0,0,0,2.581,1.071l.43,3.294a12.077,12.077,0,0,0,3.366,0l.43-3.3a9.109,9.109,0,0,0,2.581-1.071l2.63,2.026a12.149,12.149,0,0,0,2.382-2.377l-2.027-2.636a9.045,9.045,0,0,0,1.067-2.58Z" transform="translate(-906.296 -405.129)"/><path class="a" d="M1097.868,449.781a2.927,2.927,0,1,0-2.928-2.927A2.93,2.93,0,0,0,1097.868,449.781Z" transform="translate(-911.776 -403.481)"/><path class="a" d="M1101.972,449.492l2.316.613a8.39,8.39,0,0,0,.918-2.245l-2.084-1.189a6.33,6.33,0,0,0-.008-2.015l2.076-1.207a8.78,8.78,0,0,0-.935-2.237l-2.316.632a6.553,6.553,0,0,0-1.431-1.421l.612-2.319a8.621,8.621,0,0,0-2.242-.92l-1.191,2.083a6.424,6.424,0,0,0-2.018.008l-1.208-2.074a8.947,8.947,0,0,0-2.233.936l.629,2.314a6.56,6.56,0,0,0-1.423,1.435l-2.316-.613a8.624,8.624,0,0,0-.918,2.243l2.076,1.189a6.621,6.621,0,0,0,.017,2.022l-2.076,1.207a8.88,8.88,0,0,0,.935,2.236l2.316-.632a6.536,6.536,0,0,0,1.431,1.422l-.612,2.318a8.729,8.729,0,0,0,2.25.918l1.183-2.084a6.446,6.446,0,0,0,2.018-.01l1.208,2.074a8.94,8.94,0,0,0,2.242-.938l-.637-2.315a6.577,6.577,0,0,0,1.423-1.431Z" transform="translate(-910.61 -402.315)"/></g></svg>