<svg xmlns="http://www.w3.org/2000/svg" width="45.536" height="43.427" viewBox="0 0 45.536 43.427">
  <g id="Grupo_3081" data-name="Grupo 3081" transform="translate(-872.972 -2947.23)">
    <path id="Caminho_3031" data-name="Caminho 3031" d="M1428.506,2916.658v-35.2l-21.768-6.189-21.768,6.189v35.2h3.786v-28.394h35.965v28.394Z" transform="translate(-510.998 73)" fill="none" stroke="#000" stroke-width="2" fill-rule="evenodd"/>
    <path id="Caminho_3032" data-name="Caminho 3032" d="M1396.97,2911h7.572v7.571h-7.572Z" transform="translate(-511.641 71.086)" fill="none" stroke="#000" stroke-width="2" fill-rule="evenodd"/>
    <path id="Caminho_3033" data-name="Caminho 3033" d="M1404.97,2911h7.572v7.571h-7.572Z" transform="translate(-512.069 71.086)" fill="none" stroke="#000" stroke-width="2" fill-rule="evenodd"/>
    <path id="Caminho_3034" data-name="Caminho 3034" d="M1404.97,2903h7.572v7.571h-7.572Z" transform="translate(-512.069 71.515)" fill="none" stroke="#000" stroke-width="2" fill-rule="evenodd"/>
    <path id="Caminho_3035" data-name="Caminho 3035" d="M1404.97,2895h7.572v7.571h-7.572Z" transform="translate(-512.069 71.943)" fill="none" stroke="#000" stroke-width="2" fill-rule="evenodd"/>
    <path id="Caminho_3036" data-name="Caminho 3036" d="M1412.96,2911h7.572v7.571h-7.572Z" transform="translate(-512.497 71.086)" fill="none" stroke="#000" stroke-width="2" fill-rule="evenodd"/>
    <path id="Caminho_3037" data-name="Caminho 3037" d="M1412.96,2903h7.572v7.571h-7.572Z" transform="translate(-512.497 71.515)" fill="none" stroke="#000" stroke-width="2" fill-rule="evenodd"/>
    <path id="Caminho_3038" data-name="Caminho 3038" d="M1404.95,2884.8h5.688" transform="translate(-512.068 72.49)" fill="none" stroke="#000" stroke-width="2"/>
    <path id="Caminho_3039" data-name="Caminho 3039" d="M1395.13,2884.8h5.688" transform="translate(-511.542 72.49)" fill="none" stroke="#000" stroke-width="2"/>
    <path id="Caminho_3040" data-name="Caminho 3040" d="M1414.77,2884.8h5.688" transform="translate(-512.594 72.49)" fill="none" stroke="#000" stroke-width="2"/>
  </g>
</svg>
