<svg xmlns="http://www.w3.org/2000/svg" width="20" height="20" viewBox="0 0 20 20">
    <g fill="none" fill-rule="evenodd">
        <path d="M0 0h20v20H0z"/>
        <g stroke="#424242">
            <path d="M.737 19.269L19.369.636M6.735 11.301c-1.19-2.922 1.73-5.862 4.667-4.667"/>
            <path d="M13.622 4.415C8.768 2.49 3.29 4.697.61 9.952c.838 1.644 1.993 3.049 3.369 4.106M13.37 8.603c1.188 2.916-1.725 5.864-4.666 4.667"/>
            <path d="M6.484 15.49c4.854 1.923 10.332-.283 13.012-5.538-.838-1.644-1.993-3.048-3.369-4.106M11.628 10.346a1.624 1.624 0 0 1-1.182 1.181M8.704 13.27c2.94 1.196 5.855-1.747 4.667-4.667M9.66 8.377c-.582.145-1.037.6-1.182 1.182M10.447 11.527a1.624 1.624 0 0 0 1.181-1.181"/>
        </g>
    </g>
</svg>
