<svg xmlns="http://www.w3.org/2000/svg" xmlns:xlink="http://www.w3.org/1999/xlink" width="25" height="22" viewBox="0 0 25 22">
    <defs>
        <path id="a" d="M3.969 4h15.687a2 2 0 0 1 2 2v11H1.97V6a2 2 0 0 1 2-2z"/>
        <path id="b" d="M13.036 18.53v.304c0 .24-.192.434-.428.434h-1.583a.431.431 0 0 1-.428-.434v-.304H.5v1.2c0 .442.352.8.787.8h21.058a.794.794 0 0 0 .788-.8v-1.2H13.036z"/>
    </defs>
    <g fill="none" fill-rule="evenodd">
        <path d="M.688 0h23.625v24H.688z"/>
        <g fill-rule="nonzero" transform="translate(.688)">
            <use fill="#0756e4" stroke="#424242" xlink:href="#a"/>
            <use stroke="#0756e4" xlink:href="#a"/>
        </g>
        <path d="M10.532 4.484H3.84a.715.715 0 0 0-.71.72v11.8M21.875 17.021V5.204a.715.715 0 0 0-.708-.72h-6.67"/>
        <g transform="translate(.688)">
            <use fill="#0756e4" stroke="#424242" xlink:href="#b"/>
            <use stroke="#0756e4" xlink:href="#b"/>
        </g>
        <path stroke="#FFF" d="M12.504 13.436V.894M15.475 10.417l-2.971 3.019-2.972-3.019"/>
    </g>
</svg>
