<?xml version="1.0" encoding="utf-8"?>
<!-- Generator: Adobe Illustrator 24.0.1, SVG Export Plug-In . SVG Version: 6.00 Build 0)  -->
<svg version="1.1" id="Camada_1" xmlns="http://www.w3.org/2000/svg" xmlns:xlink="http://www.w3.org/1999/xlink" x="0px" y="0px"
	 viewBox="0 0 30 30" style="enable-background:new 0 0 30 30;" xml:space="preserve">
<style type="text/css">
	.st0{fill:#010202;stroke:#010202;stroke-width:0.2;}
	.st1{fill:none;stroke:#010202;}
	.st2{fill:none;stroke:#020304;}
	.st3{fill:none;stroke:#010202;stroke-linecap:round;stroke-linejoin:round;}
	.st4{fill:none;stroke:#010202;stroke-width:0.5;}
	.st5{fill:none;stroke:#010202;stroke-linecap:round;}
	.st6{fill:none;stroke:#020304;stroke-linecap:round;}
	.st7{fill:#010202;}
</style>
<g>
	<path class="st1" d="M19.6,20.1v4.7"/>
	<path class="st1" d="M17.8,21.8l1.8-1.7l1.8,1.7"/>
	<path class="st2" d="M8.6,12.3h10"/>
	<path class="st2" d="M8.6,10h10"/>
	<path class="st2" d="M8.6,15h4.4"/>
	<path class="st2" d="M18.4,3.5v4h4"/>
	<path class="st2" d="M22.8,16.1V8.9V7.2c0-0.1-3.7-4.1-4-4.1L9.7,3c-0.2,0-1.7,0-2,0H6.6C6.1,3,5.7,3.4,5.7,3.9c0,1.1,0,3,0,3.1
		v15.6c0,0.5,0.4,0.8,0.8,0.8h6.4"/>
	<path class="st2" d="M19.5,27c2.7,0,4.8-2.1,4.8-4.8s-2.1-4.8-4.8-4.8s-4.8,2.1-4.8,4.8S16.8,27,19.5,27z"/>
</g>
</svg>
