<svg xmlns="http://www.w3.org/2000/svg" width="26.769" height="22.287" viewBox="0 0 26.769 22.287">
	<rect id="Retângulo_11" data-name="Retângulo 11" width="25.769" height="21.287" transform="translate(0.5 0.5)" fill="none" stroke="#000" stroke-width="1"/>
	<path id="Caminho_952" data-name="Caminho 952" d="M1168.785,1207H1143.1" transform="translate(-1142.544 -1200.898)" fill="none" stroke="#000" stroke-width="1"/>
	<path id="Caminho_953" data-name="Caminho 953" d="M1152.94,1215h14.6" transform="translate(-1146.872 -1204.416)" fill="none" stroke="#000" stroke-width="1"/>
	<path id="Caminho_954" data-name="Caminho 954" d="M1152.94,1221h14.6" transform="translate(-1146.872 -1207.055)" fill="none" stroke="#000" stroke-width="1"/>
	<path id="Caminho_955" data-name="Caminho 955" d="M1152.94,1227h14.6" transform="translate(-1146.872 -1209.694)" fill="none" stroke="#000" stroke-width="1"/>
	<path id="Caminho_956" data-name="Caminho 956" d="M1148.98,1202.65l6.218-5.54" transform="translate(-1145.13 -1196.548)" fill="none" stroke="#000" stroke-width="1"/>
	<path id="Caminho_957" data-name="Caminho 957" d="M1143.1,1201.474l5.12-4.364" transform="translate(-1142.544 -1196.548)" fill="none" stroke="#000" stroke-width="1"/>
	<path id="Caminho_958" data-name="Caminho 958" d="M1156.82,1202.65l6.218-5.54" transform="translate(-1148.578 -1196.548)" fill="none" stroke="#000" stroke-width="1"/>
	<path id="Caminho_959" data-name="Caminho 959" d="M1164.66,1202.65l6.218-5.54" transform="translate(-1152.026 -1196.548)" fill="none" stroke="#000" stroke-width="1"/>
	<path id="Caminho_960" data-name="Caminho 960" d="M1172.5,1202.65l6.218-5.54" transform="translate(-1155.474 -1196.548)" fill="none" stroke="#000" stroke-width="1"/>
	<path id="Caminho_961" data-name="Caminho 961" d="M1180.34,1203.891l4.823-3.961" transform="translate(-1158.922 -1197.789)" fill="none" stroke="#000" stroke-width="1"/>
</svg>
