<svg xmlns="http://www.w3.org/2000/svg" width="14" height="17" viewBox="0 0 14 17">
    <g fill="none" fill-rule="evenodd">
        <path d="M-1 1h16v16H-1z"/>
        <path stroke="#424242" d="M5.06 1.333c-1.466 0-1.636.87-1.636 1.343 0 .037.062.443.062.443l-.25.02c-1.04.084-1.16.652-1.16 1.073 0 .38.021.55.045.765-.841.318-1.048.416-1.048 1.328 0 .218.082.458.242.712l.095.152s-.743.586-.743 1.13c0 .61.33.853 1.011 1.236 1.16.645 2.59.604 3.465.604 0 0-.38 1.814-.755 2.55-.326.567-.838 1.537-.838 2.192 0 .512.387.998.817 1.38.493.44 1.279.171 1.424-.472.205-.91.65-1.748 1.29-2.428l1.293-1.377c.331-.352 1.791-2.391 2.155-2.654.199-.147.49-.219.892-.219h1.338c.802-1.8.783-3.677.057-5.54h-1.633a.477.477 0 0 1-.352-.154c-.616-.666-1.816-2.053-4.162-2.074-.762-.006-1.535-.01-1.608-.01M3.707 7.055L1.41 7.17m2.718-2.274l-2.007.082M4.437 3.12l-.951-.001"/>
    </g>
</svg>
