<svg xmlns="http://www.w3.org/2000/svg" width="48.01" height="48.009" viewBox="0 0 48.01 48.009"><defs><style>.a,.b{fill:none;stroke:#424242;stroke-width:2px;}.a{fill-rule:evenodd;}</style></defs><g transform="translate(-151.587 -29.996)"><path class="a" d="M1668.53,450.005l-12.54-12.533a1.6,1.6,0,0,0-1.13-.47h-17.73a1.6,1.6,0,0,0-1.13.47l-12.54,12.534a1.6,1.6,0,0,0-.47,1.133V468.87a1.608,1.608,0,0,0,.47,1.134L1636,482.54a1.6,1.6,0,0,0,1.13.471h17.73a1.6,1.6,0,0,0,1.13-.471l12.54-12.535a1.613,1.613,0,0,0,.47-1.135V451.139a1.608,1.608,0,0,0-.47-1.134Z" transform="translate(-1470.403 -406.006)"/><path class="b" d="M1636.58,451.005l18.84,18.835" transform="translate(-1470.403 -406.006)"/><path class="b" d="M1636.58,469.84l18.84-18.835" transform="translate(-1470.403 -406.006)"/></g></svg>