<svg xmlns="http://www.w3.org/2000/svg" width="20" height="20" viewBox="0 0 20 20">
    <g fill="none" fill-rule="evenodd">
        <path d="M.789 0h19.2v19.2H.789z"/>
        <g stroke="#979797">
            <path d="M10.388.526c-4.993 0-9.054 4.061-9.054 9.055 0 4.992 4.061 9.054 9.054 9.054s9.054-4.062 9.054-9.054c0-4.994-4.061-9.055-9.054-9.055zM10.017 14.865v-1.25"/>
            <path d="M10.017 12.496v-1.758c0-.272.175-.513.436-.606 1.587-.563 2.908-1.421 2.908-2.88 0-1.591-1.467-2.88-3.278-2.88-1.219 0-2.282.584-2.847 1.452"/>
        </g>
    </g>
</svg>
