<svg xmlns="http://www.w3.org/2000/svg" width="19" height="20" viewBox="0 0 19 20">
    <g fill="none" fill-rule="evenodd">
        <path d="M0 0h20v20H0z"/>
        <path stroke="#424242" d="M18.386 13.897c-1.006-1.025-3.188-3.757-3.01-8.057.106-2.542-1.334-3.89-2.8-4.602a6.828 6.828 0 0 0-5.917 0c-1.466.712-2.905 2.06-2.8 4.602.179 4.3-2.003 7.032-3.009 8.057"/>
        <g fill="#424242">
            <path d="M10.095 10.86a2.682 2.682 0 0 1-.059.518c-.026.11-.064.215-.115.312-.05.095-.11.18-.182.252a.848.848 0 0 1-.241.171.67.67 0 0 1-.617-.032 1.8 1.8 0 0 1-.354-.291l-.197-.206-.497.609.18.202c.15.168.323.31.513.422.206.122.435.183.682.183.239 0 .463-.056.667-.167.2-.11.375-.262.519-.453.14-.188.25-.41.326-.66.075-.245.113-.512.113-.792V7h-.738v3.86M7.833 10.5a.5.5 0 1 1-1 0 .5.5 0 0 1 1 0"/>
        </g>
        <path stroke="#424242" d="M18.386 13.897c-4.782 3.724-12.76 3.72-17.536 0M7.644 17.979c0 .822.885 1.491 1.974 1.491 1.088 0 1.974-.669 1.974-1.491"/>
    </g>
</svg>
