<svg xmlns="http://www.w3.org/2000/svg" width="88.566" height="88.592" viewBox="0 0 88.566 88.592">
  <g id="Grupo_39389" data-name="Grupo 39389" transform="translate(-3875.943 -921.672)">
    <g id="Font_choices_as_flex" data-name="Font choices as flex">
      <g id="NPS" style="isolation: isolate">
        <text id="NPS-2" data-name="NPS" transform="translate(3892.449 975.335)" fill="#191919" font-size="24.574" font-family="Montserrat-Bold, Montserrat" font-weight="700" style="isolation: isolate"><tspan x="0" y="0">NPS</tspan></text>
      </g>
    </g>
    <g id="Grupo_39388" data-name="Grupo 39388">
      <path id="Caminho_11649" data-name="Caminho 11649" d="M3948.1,931.55a44.285,44.285,0,0,0-46.118-5.947l3.408,7.4a36.247,36.247,0,1,1-15.776,52.466l-7.216,3.558a44.294,44.294,0,1,0,65.7-57.481Z" fill="#191919"/>
      <path id="Caminho_11650" data-name="Caminho 11650" d="M3884.128,966.076a36.139,36.139,0,0,1,2.839-14.087l-7.612-3.134a44.488,44.488,0,0,0,2.169,38.661l7.334-3.545A36.069,36.069,0,0,1,3884.128,966.076Z" fill="#191919"/>
      <path id="Caminho_11651" data-name="Caminho 11651" d="M3903.673,933.909l-3.455-7.463a44.153,44.153,0,0,0-20.136,20.757l7.511,3.4A36.387,36.387,0,0,1,3903.673,933.909Z" fill="#191919"/>
    </g>
  </g>
</svg>