<svg xmlns="http://www.w3.org/2000/svg" width="31" height="30" viewBox="0 0 31 30">
  <g id="Grupo_39369" data-name="Grupo 39369" transform="translate(0.069 0.24)">
    <ellipse id="Elipse_362" data-name="Elipse 362" cx="15.5" cy="15" rx="15.5" ry="15" transform="translate(-0.069 -0.24)" fill="#878787"/>
    <g id="Grupo_39306" data-name="Grupo 39306" transform="translate(1.814 1.443)">
      <g id="Grupo_39301" data-name="Grupo 39301" transform="translate(0 0)">
        <path id="Caminho_10459" data-name="Caminho 10459" d="M576.355,524.542A13.444,13.444,0,1,1,562.911,511.1,13.443,13.443,0,0,1,576.355,524.542Z" transform="translate(-549.467 -511.097)" fill="#dfdfdf"/>
      </g>
      <g id="Grupo_39305" data-name="Grupo 39305" transform="translate(6.565 9.815)">
        <g id="Grupo_39304" data-name="Grupo 39304">
          <g id="Grupo_39302" data-name="Grupo 39302" transform="translate(11.23)">
            <path id="Caminho_10460" data-name="Caminho 10460" d="M609.589,544.836c0,1.183-.635,2.142-1.419,2.142s-1.419-.959-1.419-2.142.636-2.143,1.419-2.143S609.589,543.652,609.589,544.836Z" transform="translate(-606.75 -542.692)" fill="#878787"/>
          </g>
          <g id="Grupo_39303" data-name="Grupo 39303">
            <path id="Caminho_10461" data-name="Caminho 10461" d="M573.438,544.836c0,1.183-.635,2.142-1.419,2.142s-1.419-.959-1.419-2.142.635-2.143,1.419-2.143S573.438,543.652,573.438,544.836Z" transform="translate(-570.599 -542.692)" fill="#878787"/>
          </g>
        </g>
      </g>
    </g>
  </g>
</svg>