<svg xmlns="http://www.w3.org/2000/svg" width="21" height="24" viewBox="0 0 21 24">
    <g fill="none" fill-rule="evenodd">
        <path d="M-1.053 0h23.04v23.04h-23.04z"/>
        <g fill="#0756e4">
            <path stroke="#0756e4" stroke-width="2" d="M8.37 20.676c0 .945.973 1.714 2.17 1.714s2.17-.769 2.17-1.714"/>
            <path d="M20.181 15.981H.898c1.107-1.178 3.506-4.32 3.31-9.265-.117-2.924 1.467-4.474 3.079-5.293a7.212 7.212 0 0 1 6.506 0c1.612.82 3.195 2.37 3.08 5.293-.197 4.944 2.202 8.087 3.308 9.265zm0 0c-5.258 4.283-14.032 4.278-19.283 0h19.283z"/>
        </g>
    </g>
</svg>
