<svg xmlns="http://www.w3.org/2000/svg" width="30" height="30" viewBox="0 0 30 30">
  <g id="Grupo_39368" data-name="Grupo 39368" transform="translate(-0.437 0.24)">
    <circle id="Elipse_362" data-name="Elipse 362" cx="15" cy="15" r="15" transform="translate(0.437 -0.24)" fill="#258133"/>
    <g id="Grupo_39285" data-name="Grupo 39285" transform="translate(1.992 1.443)">
      <path id="Caminho_10448" data-name="Caminho 10448" d="M448.3,211.473a13.444,13.444,0,1,1-13.445-13.444A13.444,13.444,0,0,1,448.3,211.473Z" transform="translate(-421.408 -198.029)" fill="#2ba53e"/>
      <g id="Grupo_39280" data-name="Grupo 39280" transform="translate(0.58 3.67)">
        <g id="Grupo_39277" data-name="Grupo 39277" transform="translate(15.467)">
          <g id="Grupo_39276" data-name="Grupo 39276">
            <path id="Caminho_10449" data-name="Caminho 10449" d="M478.686,211.905c-2.193-4.18-6.25-1.216-5.54,1.908.561,2.455,3.255,5.938,3.255,5.938.388-.137,4.143-1.491,5.933-3.262C484.613,214.237,482.783,209.557,478.686,211.905Z" transform="translate(-473.064 -209.842)" fill="#14cc30"/>
          </g>
        </g>
        <g id="Grupo_39279" data-name="Grupo 39279">
          <g id="Grupo_39278" data-name="Grupo 39278">
            <path id="Caminho_10450" data-name="Caminho 10450" d="M427.914,211.905c2.194-4.18,6.251-1.216,5.54,1.908-.56,2.455-3.255,5.938-3.255,5.938-.388-.137-4.143-1.491-5.933-3.262C421.988,214.237,423.818,209.557,427.914,211.905Z" transform="translate(-423.275 -209.842)" fill="#14cc30"/>
          </g>
        </g>
      </g>
      <g id="Grupo_39282" data-name="Grupo 39282" transform="translate(7.963 16.125)">
        <g id="Grupo_39281" data-name="Grupo 39281">
          <path id="Caminho_10451" data-name="Caminho 10451" d="M447.613,249.957c-.336-.111-.653.253-.555.642a5.728,5.728,0,0,0,10.927,0c.1-.389-.218-.754-.555-.642a16.129,16.129,0,0,1-9.818,0Z" transform="translate(-447.04 -249.937)" fill="#258133"/>
        </g>
      </g>
      <g id="Grupo_39284" data-name="Grupo 39284" transform="translate(10.824 18.461)">
        <g id="Grupo_39283" data-name="Grupo 39283">
          <path id="Caminho_10452" data-name="Caminho 10452" d="M458.871,257.455a2.862,2.862,0,0,0-2.62,1.731,5.991,5.991,0,0,0,5.24,0A2.86,2.86,0,0,0,458.871,257.455Z" transform="translate(-456.251 -257.455)" fill="#14cc30"/>
        </g>
      </g>
    </g>
  </g>
</svg>