<svg xmlns="http://www.w3.org/2000/svg" width="22.693" height="26.711" viewBox="0 0 22.693 26.711">
  <g id="Grupo_3033" data-name="Grupo 3033" transform="translate(0.5 0.5)">
    <path id="Caminho_11315" data-name="Caminho 11315" d="M3721.587,138.439l-1.629,0m2.682-3.029c-2.495,0-2.783,1.475-2.783,2.279,0,.063.1.75.1.75l-.424.036c-1.782.141-1.985,1.106-1.985,1.821a11.252,11.252,0,0,0,.067,1.3c-1.424.54-1.782.706-1.782,2.253a2.307,2.307,0,0,0,.409,1.208l.168.256s-1.273,1-1.273,1.921c0,1.033.561,1.446,1.731,2.1,1.986,1.094,4.429,1.023,5.923,1.023a26.34,26.34,0,0,1-1.291,4.329,9.319,9.319,0,0,0-1.442,3.718,3.441,3.441,0,0,0,1.407,2.345,1.494,1.494,0,0,0,2.428-.8,8.8,8.8,0,0,1,2.205-4.12l2.206-2.337c.559-.6,3.055-4.057,3.682-4.5a2.54,2.54,0,0,1,1.528-.372h2.29a11.83,11.83,0,0,0,.086-9.4h-2.783a.841.841,0,0,1-.61-.26,9.207,9.207,0,0,0-7.111-3.519C3724.1,135.414,3722.775,135.407,3722.64,135.407Zm-2.308,9.709-3.92.193Zm.713-3.665-3.429.139Z" transform="translate(-3715.139 -135.407)" fill="none" stroke="#424242" stroke-width="1"/>
  </g>
</svg>
