<svg width="20" height="22" viewBox="0 0 20 22" fill="none" xmlns="http://www.w3.org/2000/svg">
<path d="M12.9163 3.10941C12.9163 2.17882 12.1546 1.41666 11.2232 1.41666H3.77658C2.84525 1.41666 2.0835 2.17882 2.0835 3.10941V18.92C2.0835 19.8511 2.84525 20.6125 3.77658 20.6125H11.2232C12.1546 20.6125 12.9163 19.8511 12.9163 18.92V13.921" stroke="#424242"/>
<path fill-rule="evenodd" clip-rule="evenodd" d="M7.49966 19.2577C7.89238 19.2577 8.21074 18.9394 8.21074 18.5467C8.21074 18.1539 7.89238 17.8356 7.49966 17.8356C7.10694 17.8356 6.78857 18.1539 6.78857 18.5467C6.78857 18.9394 7.10694 19.2577 7.49966 19.2577Z" stroke="#424242"/>
<path d="M12.9237 16.4385H2.09033V3.93851H9.71725" stroke="#424242"/>
<circle cx="12.9165" cy="8.5" r="4.5" stroke="#424242"/>
<path fill-rule="evenodd" clip-rule="evenodd" d="M13.6096 9.4437C13.6096 9.49296 13.6049 9.56161 13.5957 9.64767C13.5868 9.73004 13.5734 9.80641 13.5557 9.87557C13.5325 9.96718 13.4974 10.0548 13.4514 10.1358C13.4064 10.2147 13.3507 10.2854 13.2853 10.3459C13.2215 10.4051 13.1478 10.453 13.0662 10.4884C12.9899 10.5217 12.9013 10.5384 12.8028 10.5384C12.695 10.5384 12.5978 10.5132 12.5058 10.4614C12.3963 10.3998 12.2882 10.3181 12.1842 10.2187L12.0048 10.047L11.5532 10.5545L11.7173 10.7231C11.8531 10.8627 12.01 10.9812 12.1833 11.0749C12.3701 11.1761 12.5786 11.2273 12.8028 11.2273C13.0201 11.2273 13.2241 11.1805 13.4091 11.0881C13.5915 10.997 13.7501 10.87 13.8809 10.7105C14.0089 10.5541 14.1089 10.3694 14.1779 10.1614C14.246 9.95653 14.2805 9.73425 14.2805 9.50074V6.22729H13.6096V9.4437" fill="#424242"/>
<path fill-rule="evenodd" clip-rule="evenodd" d="M11.5531 9.40907C11.5531 9.66012 11.3496 9.86362 11.0986 9.86362C10.8475 9.86362 10.644 9.66012 10.644 9.40907C10.644 9.15803 10.8475 8.95453 11.0986 8.95453C11.3496 8.95453 11.5531 9.15803 11.5531 9.40907" fill="#424242"/>
</svg>
