<?xml version="1.0" encoding="utf-8"?>
<!-- Generator: Adobe Illustrator 24.0.1, SVG Export Plug-In . SVG Version: 6.00 Build 0)  -->
<svg version="1.1" id="Camada_1" xmlns="http://www.w3.org/2000/svg" xmlns:xlink="http://www.w3.org/1999/xlink" x="0px" y="0px"
	 viewBox="0 0 30 30" style="enable-background:new 0 0 30 30;" xml:space="preserve" width="16px" height="16px">
<style type="text/css">
	.st0{fill:none;stroke:#FF4B54;stroke-width:1.2;}
	.st1{fill:none;stroke:#FF4B54;stroke-width:1.2;}
	.st2{fill:none;stroke:#FF4B54;stroke-width:0.8;}
	.st3{fill:none;stroke:#FF4B54;}
	.st4{fill:none;stroke:#FF4B54;stroke-linecap:round;}
	.st5{fill:none;stroke:#FF4B54;stroke-width:1.2;stroke-linecap:round;}
	.st6{fill:#FF4B54;stroke:#FF4B54;stroke-width:0.2;}
	.st7{fill:none;stroke:#FF4B54;stroke-width:1.2;}
	.st8{fill:none;stroke:#FF4B54;}
</style>
<g>
	<path class="st8" d="M20.5,18c-0.2-0.2-0.6-0.3-0.9,0c0,0-1.8,1.8-2,1.9c0,0-0.1,0.1-0.1,0.1c-1.9,1-8.8-6.3-7.5-7.7l2-1.9
		c0.3-0.2,0.3-0.7,0-0.9L5.6,2.9C5.5,2.8,5.3,2.8,5.1,2.7C5,2.7,4.8,2.8,4.7,2.9C1.4,6.1-3.7,9.2,8.4,21.4c11.9,12,15.4,7.5,18.7,4
		c0.2-0.2,0.2-0.6,0-0.9L20.5,18L20.5,18z"/>
	<path class="st8" d="M22.5,14.1c3.7,0,6.7-2.9,6.7-6.6c0-3.7-3-6.6-6.7-6.6s-6.7,2.9-6.7,6.6C15.8,11.2,18.8,14.1,22.5,14.1z"/>
	<path class="st8" d="M20,7.8h5.7"/>
</g>
</svg>
