<svg xmlns="http://www.w3.org/2000/svg" width="15.967" height="9.961" viewBox="0 0 15.967 9.961">
  <g id="Grupo_39664" data-name="Grupo 39664" transform="translate(-1067.167 -125)">
    <path id="Caminho_13902" data-name="Caminho 13902" d="M169.761,59.812H155.214a.71.71,0,0,1,0-1.42h14.548a.71.71,0,1,1,0,1.42Z" transform="translate(912.663 66.608)" fill="#424242"/>
    <path id="Caminho_13903" data-name="Caminho 13903" d="M169.761,216.27H155.214a.71.71,0,1,1,0-1.42h14.548a.71.71,0,1,1,0,1.42Z" transform="translate(912.663 -85.579)" fill="#424242"/>
    <path id="Caminho_13904" data-name="Caminho 13904" d="M169.761,372.729H155.214a.71.71,0,1,1,0-1.42h14.548a.71.71,0,1,1,0,1.42Z" transform="translate(912.663 -237.767)" fill="#424242"/>
  </g>
</svg>
