<svg xmlns="http://www.w3.org/2000/svg" width="24.362" height="22.229" viewBox="0 0 24.362 22.229">
  <g id="Grupo_3118" data-name="Grupo 3118" transform="translate(0.5 0.519)">
    <g id="Grupo_3034" data-name="Grupo 3034">
      <g id="Grupo_3030" data-name="Grupo 3030" transform="translate(2.753 8.567)">
        <g id="Grupo_3029" data-name="Grupo 3029">
          <path id="Caminho_7084" data-name="Caminho 7084" d="M23.509,8.906a.657.657,0,0,0-.253-.506H3.279c-.253,0-.379.253-.379.506V20.411a.708.708,0,0,0,.759.632H22.75a.711.711,0,0,0,.759-.632Z" transform="translate(-2.9 -8.4)" fill="none" stroke="#424242" stroke-width="1"/>
        </g>
      </g>
      <path id="Caminho_7085" data-name="Caminho 7085" d="M2.9,8.8l10.368,5.816L23.509,8.8" transform="translate(-0.147 1.609)" fill="none" stroke="#424242" stroke-width="1"/>
    </g>
    <path id="Caminho_7086" data-name="Caminho 7086" d="M21.283,9.053a.657.657,0,0,0-.253-.506L11.547,1.72a1.08,1.08,0,0,0-.885,0L1.179,8.547A.678.678,0,0,0,.8,9.053V20.432a.708.708,0,0,0,.759.632h1.77V10.7l.632-.632c.506,0,16.942.126,17.322-.126Z" transform="translate(-0.8 -1.625)" fill="none" stroke="#424242" stroke-width="1"/>
  </g>
</svg>
