<?xml version="1.0" encoding="UTF-8"?>
<svg width="22px" height="22px" viewBox="0 0 22 22" version="1.1" xmlns="http://www.w3.org/2000/svg" xmlns:xlink="http://www.w3.org/1999/xlink">
    <!-- Generator: Sketch 53 (72520) - https://sketchapp.com -->
    <title>ic-open-case</title>
    <desc>Created with Sketch.</desc>
    <g id="Hotsite-Edinalva" stroke="none" stroke-width="1" fill="none" fill-rule="evenodd">
        <g id="Home" transform="translate(-400.000000, -1631.000000)">
            <g id="ic-open-case" transform="translate(401.000000, 1632.000000)">
                <rect id="Rectangle-path" x="0" y="0" width="20" height="20"></rect>
                <g id="Group">
                    <path d="M11.5169167,17.0833333 C13.0984167,17.0833333 13.462,18.2954167 13.9496667,19.2836667 C13.9496667,19.4485 13.7859167,19.5833333 13.5841667,19.5833333 L6.41383333,19.5833333 C6.21208333,19.5833333 6.04833333,19.4201667 6.04833333,19.2553333 C6.54966667,18.2798333 6.93708333,17.0833333 8.48083333,17.0833333 L11.5169167,17.0833333 L11.5169167,17.0833333 Z" id="Shape" stroke="#424242"></path>
                    <path d="M18.2448333,0.416666667 L1.75241667,0.416666667 C0.993666667,0.416666667 0.416666667,1.061 0.416666667,1.81941667 L0.416666667,12.4775 C0.416666667,13.2363333 0.993666667,13.75 1.75241667,13.75 L18.2448333,13.75 C19.0044167,13.75 19.5833333,13.2363333 19.5833333,12.4775 L19.5833333,1.81941667 C19.5833333,1.061 19.0044167,0.416666667 18.2448333,0.416666667 L18.2448333,0.416666667 Z" id="Shape" stroke="#424242"></path>
                    <path d="M10,17.0833333 L10,15.4168333" id="Shape" stroke="#424242"></path>
                    <g id="olho" transform="translate(4.000000, 1.000000)">
                        <rect id="Rectangle-path" x="0" y="0" width="12" height="12"></rect>
                        <g id="Group" transform="translate(0.000000, 2.000000)">
                            <ellipse id="Oval" stroke="#424242" cx="6.0229" cy="4.0046" rx="2.20295" ry="2.27045"></ellipse>
                            <ellipse id="Oval" fill="#424242" cx="6.0229" cy="4.0047" rx="1" ry="1"></ellipse>
                            <path d="M11.55315,4.0048 C10.44185,1.7589 8.382,0.24945 6.02295,0.24945 C3.66375,0.24945 1.604,1.7589 0.4927,4.0048 C1.604,6.25065 3.66375,7.76015 6.02295,7.76015 C8.382,7.76015 10.4418,6.2507 11.55315,4.0048 L11.55315,4.0048 Z" id="Shape" stroke="#424242"></path>
                        </g>
                    </g>
                </g>
            </g>
        </g>
    </g>
</svg>