<svg xmlns="http://www.w3.org/2000/svg" width="24.135" height="22.097" viewBox="0 0 24.135 22.097">
  <g id="options-list" transform="translate(-13 60.5)">
    <path id="Caminho_13856" data-name="Caminho 13856" d="M2.778,24.829a2.778,2.778,0,1,1,2.777-2.778A2.781,2.781,0,0,1,2.778,24.829Zm0-4.136a1.358,1.358,0,1,0,1.358,1.358A1.36,1.36,0,0,0,2.778,20.694Z" transform="translate(13 -79.774)" fill="#424242"/>
    <path id="Caminho_13857" data-name="Caminho 13857" d="M169.761,59.812H155.214a.71.71,0,0,1,0-1.42h14.548a.71.71,0,1,1,0,1.42Z" transform="translate(-133.337 -116.825)" fill="#424242"/>
    <path id="Caminho_13858" data-name="Caminho 13858" d="M2.778,181.289a2.778,2.778,0,1,1,2.777-2.778A2.781,2.781,0,0,1,2.778,181.289Zm0-4.136a1.358,1.358,0,1,0,1.358,1.358A1.36,1.36,0,0,0,2.778,177.154Z" transform="translate(13 -227.964)" fill="#424242"/>
    <path id="Caminho_13859" data-name="Caminho 13859" d="M169.761,216.27H155.214a.71.71,0,1,1,0-1.42h14.548a.71.71,0,1,1,0,1.42Z" transform="translate(-133.337 -265.012)" fill="#424242"/>
    <path id="Caminho_13860" data-name="Caminho 13860" d="M2.778,337.748a2.778,2.778,0,1,1,2.777-2.778A2.781,2.781,0,0,1,2.778,337.748Zm0-4.136a1.358,1.358,0,1,0,1.358,1.358A1.36,1.36,0,0,0,2.778,333.613Z" transform="translate(13 -376.152)" fill="#424242"/>
    <path id="Caminho_13861" data-name="Caminho 13861" d="M169.761,372.729H155.214a.71.71,0,1,1,0-1.42h14.548a.71.71,0,1,1,0,1.42Z" transform="translate(-133.337 -413.2)" fill="#424242"/>
  </g>
</svg>
