<svg xmlns="http://www.w3.org/2000/svg" width="22.177" height="26.487" viewBox="0 0 22.177 26.487">
  <path id="Caminho_11316" data-name="Caminho 11316" d="M3674.672,151.379a4.141,4.141,0,0,1,2.564,1.614.394.394,0,0,1-.151.6c-4.625,2.028-3.637,1.8-6.52,1.8-1.44,0-3.05-.292-3.05-1.733a1.69,1.69,0,0,1,.353-.967l.386-.59m7.927,1.88a5.723,5.723,0,0,1,1.776,1.3c.167.2.318.345.269.58a.4.4,0,0,1-.235.261c-4.509,2-3.854,1.877-5.949,1.877-1.441,0-2.95-.295-2.95-1.723l.3-.962m7.474,1.307c.67.667,2.463,2.031,1.592,2.42l-3.167,1.418a3.881,3.881,0,0,1-3.1-.211c-.837-.565-.72-1.311-.67-2.264m-1.676-8.441.771-.035a7.69,7.69,0,0,1,2.53-.7c1.961,0,3.285,1.78,2.563,2.1l-3.217,1.443c-1.608.716-5.044.593-5.664-2.388-.3-1.424.353-2.467,1.927-3.087a15.549,15.549,0,0,1,5.346-.706h.386a19.292,19.292,0,0,0-1.66-5.38v-.005a5.681,5.681,0,0,1-1.088-2.97c0-3.126,2.949-3.018,3.333-1.265.6,2.822,2.1,4.007,4.794,6.861.017.008.017.017.032.025.369.469,3.067,4.047,3.621,4.3.234.109,3.552.29,3.552.29a12.765,12.765,0,0,1,.855,4.57,12.091,12.091,0,0,1-.788,4.166h-2.715a.841.841,0,0,0-.621.3,15.177,15.177,0,0,1-4.356,3.6,7.38,7.38,0,0,1-3.738-.387" transform="translate(-3666.251 -134.811)" fill="none" stroke="#424242" stroke-width="1"/>
</svg>
