<svg xmlns="http://www.w3.org/2000/svg" width="70" height="70" viewBox="0 0 70 70">
    <g fill="none" fill-rule="evenodd">
        <path d="M-15-15H85V85H-15z"/>
        <path d="M0 0h70v70H0z"/>
        <g stroke="#0756e4" stroke-width="2">
            <path d="M8.653 46.392c-.198.198-6.838 18.93-6.838 18.93-.671 1.622 1.136 3.601 2.885 2.886 0 0 18.832-6.54 19.03-6.738M3.163 61.576l5.303 5.304"/>
            <path d="M66.971 11.677L58.446 3.15a4.633 4.633 0 0 0-6.552 0L8.653 46.392 23.73 61.47 66.97 18.228a4.633 4.633 0 0 0 0-6.551zM17.782 55.521L53.074 20.23"/>
        </g>
    </g>
</svg>
