<svg width="48" height="47" viewBox="0 0 48 47" fill="none" xmlns="http://www.w3.org/2000/svg">
<path d="M37.1307 37.8074L40.2879 35.8688L42.2612 39.0827" stroke="black" stroke-width="2"/>
<path d="M40.288 35.8687C39.8465 41.0551 35.3071 44.8557 30.1209 44.414C24.9345 43.9725 21.0884 39.41 21.5299 34.2239C21.9714 29.0377 26.5335 25.1914 31.7199 25.6329C34.2658 25.8498 36.4885 27.0591 38.04 28.8478" stroke="black" stroke-width="2"/>
<path d="M41.7818 5.72046L25.928 19.9759C24.7276 21.0553 22.8286 21.0553 21.6282 19.9759L5.77417 5.72046" stroke="black" stroke-width="2"/>
<path d="M16.3952 21.451L5.77478 30.2852" stroke="black" stroke-width="2"/>
<path d="M44.0066 34.7418C45.8054 34.1158 46.9998 32.4198 46.9998 30.4242V5.58136C46.9998 3.053 44.9348 1 42.3006 1H5.6846C3.05 1 1 3.0532 1 5.58136V30.4244C1 32.9526 3.05 35 5.6846 35H18.9498" stroke="black" stroke-width="2"/>
</svg>
