<?xml version="1.0" encoding="utf-8"?>
<!-- Generator: Adobe Illustrator 24.0.1, SVG Export Plug-In . SVG Version: 6.00 Build 0)  -->
<svg version="1.1" id="Camada_1" xmlns="http://www.w3.org/2000/svg" xmlns:xlink="http://www.w3.org/1999/xlink" x="0px" y="0px"
	 viewBox="0 0 30 30" style="enable-background:new 0 0 30 30;" xml:space="preserve">
<style type="text/css">
	.st0{fill:none;stroke:#020304;stroke-width:1.2;}
	.st1{fill:none;stroke:#010202;stroke-width:1.2;}
	.st2{fill:none;stroke:#020304;stroke-width:0.8;}
	.st3{fill:none;stroke:#020304;}
	.st4{fill:none;stroke:#020304;stroke-linecap:round;}
	.st5{fill:none;stroke:#010202;stroke-width:1.2;stroke-linecap:round;}
</style>
<g>
	<g>
		<g>
			<path class="st0" d="M6.9,11.1h10.4"/>
			<path class="st0" d="M6.9,8.5h10.4"/>
			<path class="st0" d="M6.9,14h4.6"/>
		</g>
		<path class="st0" d="M17.2,1.5v4.3h4.2"/>
		<path class="st0" d="M21.8,15.1V7.4V5.5c0-0.1-3.9-4.4-4.2-4.4C17.6,1.1,7,1,6.1,1C5.4,1,4.9,1,4.9,1C4.4,1,3.9,1.4,3.9,1.9
			c0,1.3,0,3.2,0,3.4v16.8c0,0.5,0.4,0.8,0.8,0.8h6.7"/>
	</g>
</g>
<g>
	<path class="st0" d="M15.8,25.1c-1.5-0.4-2.9-2.1-2.9-4.4c0-2.4,1.8-4.4,3.8-4.4h3.7c2,0,3.7,2,3.7,4.4c0,2.3-1.7,4.4-3.7,4.4h-1.2
		l-2.7,2.4c-0.3,0.2-0.7,0-0.7-0.3V25.1z"/>
	<path class="st2" d="M15.9,21.8c0.4,0,0.7-0.3,0.7-0.8c0-0.4-0.3-0.8-0.7-0.8c-0.4,0-0.7,0.3-0.7,0.8
		C15.1,21.4,15.4,21.8,15.9,21.8z"/>
	<path class="st2" d="M18.5,21.8c0.4,0,0.7-0.3,0.7-0.8c0-0.4-0.3-0.8-0.7-0.8s-0.7,0.3-0.7,0.8C17.8,21.4,18.1,21.8,18.5,21.8z"/>
	<path class="st2" d="M21.1,21.8c0.4,0,0.7-0.3,0.7-0.8c0-0.4-0.3-0.8-0.7-0.8c-0.4,0-0.7,0.3-0.7,0.8
		C20.4,21.4,20.7,21.8,21.1,21.8z"/>
</g>
</svg>
