<svg xmlns="http://www.w3.org/2000/svg" width="40" height="40" viewBox="0 0 40 40">
    <g fill="none" fill-rule="evenodd">
        <rect width="40" height="40" fill="#E0E0E0" fill-rule="nonzero" rx="6"/>
        <path d="M10 10h19.2v19.2H10z"/>
        <path stroke="#424242" d="M28.38 25.208c-2.962-1.145-6.25-2.566-6.527-3.452v-.93c.615-.628 1.1-1.505 1.386-2.531.684-.48.864-1.477.29-2.183v-2.08c0-2.148-1.195-3.618-3.93-3.618-2.662 0-3.93 1.47-3.93 3.618v2.08c-.572.704-.394 1.701.29 2.183.287 1.026.772 1.903 1.387 2.532v.929c-.276.885-3.565 2.306-6.527 3.452a.662.662 0 0 0-.42.618v2.324c0 .365.292.662.652.662h17.097c.36 0 .652-.297.652-.662v-2.324a.66.66 0 0 0-.42-.618z"/>
    </g>
</svg>
