<?xml version="1.0" encoding="utf-8"?>
<!-- Generator: Adobe Illustrator 24.0.0, SVG Export Plug-In . SVG Version: 6.00 Build 0)  -->
<svg version="1.1" id="Camada_1" xmlns="http://www.w3.org/2000/svg" xmlns:xlink="http://www.w3.org/1999/xlink" x="0px" y="0px"
	 viewBox="0 0 20 20" style="enable-background:new 0 0 20 20;" xml:space="preserve">
<style type="text/css">
	.st0{fill:#9E9E9E;}
	.st1{fill:#E3D5EA;}
	.st2{fill:#FDE2CB;}
	.st3{fill:none;stroke:#434342;stroke-miterlimit:10;}
	.st4{fill:none;}
	.st5{fill:#434342;}
	.st6{fill-rule:evenodd;clip-rule:evenodd;fill:#434342;}
	.st7{fill:none;stroke:#010202;stroke-width:2;}
	.st8{fill:none;stroke:#010202;}
</style>
<g>
	<path class="st8" d="M19.2,8.8c0-0.2-0.1-0.3-0.2-0.4l-15.8,0C3,8.4,2.9,8.6,2.9,8.8v9.1c0,0.3,0.3,0.5,0.6,0.5h15.1
		c0.4,0,0.6-0.3,0.6-0.5L19.2,8.8z"/>
	<path class="st8" d="M2.9,8.8l8.2,4.6l8.1-4.6"/>
	<path class="st8" d="M17,7.5c0-0.2-0.1-0.3-0.2-0.4L9.3,1.7c-0.2-0.1-0.5-0.1-0.7,0L1.1,7.1C0.9,7.2,0.8,7.4,0.8,7.5v9
		c0,0.3,0.3,0.5,0.6,0.5h1.4V8.8l0.5-0.5c0.4,0,13.4,0.1,13.7-0.1L17,7.5z"/>
	<path class="st8" d="M0.8,7.6l2.1,1"/>
</g>
</svg>
