<svg xmlns="http://www.w3.org/2000/svg" width="18.323" height="18.729" viewBox="0 0 18.323 18.729">
  <g id="Grupo_1926" data-name="Grupo 1926" transform="translate(0 0.5)">
    <path id="Caminho_12400" data-name="Caminho 12400" d="M1421.05,605.01v3.083h3.083" transform="translate(-1406.311 -605.01)" fill="none" stroke="#8652ff" stroke-width="1"/>
    <path id="Caminho_12401" data-name="Caminho 12401" d="M1395.05,611.555v-5.924a.616.616,0,0,1,.605-.621h9.416a.445.445,0,0,1,.347.181l2.555,2.52a.5.5,0,0,1,.181.383v14.03a.616.616,0,0,1-.609.617h-11.89a.613.613,0,0,1-.605-.617v-5.135" transform="translate(-1390.331 -605.01)" fill="none" stroke="#8652ff" stroke-width="1"/>
    <path id="Caminho_12402" data-name="Caminho 12402" d="M1392.974,629.071H1382.81" transform="translate(-1382.81 -619.797)" fill="none" stroke="#8652ff" stroke-width="1"/>
    <path id="Caminho_12403" data-name="Caminho 12403" d="M1402.83,622.451l2.448,2.552-2.448,2.551" transform="translate(-1395.114 -615.728)" fill="none" stroke="#8652ff" stroke-width="1"/>
  </g>
</svg>
