<svg xmlns="http://www.w3.org/2000/svg" width="14" height="17" viewBox="0 0 14 17">
    <g fill="none" fill-rule="evenodd">
        <path d="M-.981.64h15.36V16H-.981z"/>
        <path stroke="#424242" d="M5.18 10.224c.64.217.997.306 1.458.925a.227.227 0 0 1-.09.343c-2.626 1.162-2.063 1.034-3.702 1.034-.822 0-1.738-.167-1.738-.993 0-.178.068-.364.202-.554l.216-.338m4.51 1.078c.437.266.67.343 1.016.741.088.113.18.198.145.333a.227.227 0 0 1-.127.15c-2.57 1.146-2.196 1.074-3.389 1.074-.82 0-1.679-.168-1.679-.986l.173-.551m4.253.748c.38.383 1.4 1.163.906 1.386l-1.802.813c-.437.197-1.331.179-1.768-.12-.472-.325-.403-.752-.374-1.298m-.958-4.836l.441-.02c.411-.168.993-.399 1.439-.399 1.112 0 1.867 1.02 1.46 1.203l-1.834.827c-.91.41-2.866.34-3.225-1.368-.172-.816.2-1.413 1.097-1.768.687-.269 1.712-.404 3.047-.404h.214s-.32-2.05-.942-3.082l-.002-.003c-.325-.557-.614-1.035-.614-1.7 0-1.791 1.674-1.73 1.89-.726.349 1.617 1.2 2.295 2.735 3.93l.012.015c.215.269 1.75 2.318 2.064 2.462.133.062 2.02.165 2.02.165.296.823.49 1.616.49 2.618 0 .883-.188 1.625-.45 2.387H10.73a.455.455 0 0 0-.351.17c-.664.813-1.46 1.474-2.482 2.063-.679.198-1.496-.05-2.132-.222"/>
    </g>
</svg>
