<svg xmlns="http://www.w3.org/2000/svg" width="43.955" height="38.685" viewBox="0 0 43.955 38.685">
    <g id="Grupo_3068" data-name="Grupo 3068" transform="translate(-876.507 -370.09)">
        <path id="Caminho_3684" data-name="Caminho 3684"
            d="M930.218,3480.682l-5.822-4.543a.855.855,0,0,0-1.383.677v9.086a.855.855,0,0,0,1.382.677l5.823-4.544a.861.861,0,0,0,0-1.354Z"
            transform="translate(-33.943 -3086.71)" fill="none" stroke="#000" stroke-width="1" fill-rule="evenodd" />
        <path id="Caminho_3685" data-name="Caminho 3685"
            d="M905.011,3461h24.813l1.524,3.314-.973,3.941,4.139-.725,1.285.549.036,20.2H905.011Z"
            transform="translate(-28.004 -3080)" fill="none" stroke="#000" stroke-width="1" fill-rule="evenodd" />
        <path id="Caminho_3686" data-name="Caminho 3686" d="M904.993,3471h26.053"
            transform="translate(-27.998 -3084.071)" fill="none" stroke="#000" stroke-width="1" />
        <path id="Caminho_3687" data-name="Caminho 3687" d="M904.993,3497h30.815"
            transform="translate(-27.998 -3094.655)" fill="none" stroke="#000" stroke-width="1" />
        <path id="Caminho_3688" data-name="Caminho 3688" d="M911.012,3501v1.34" transform="translate(-29.984 -3096.745)"
            fill="none" stroke="#000" stroke-width="1" />
        <path id="Caminho_3689" data-name="Caminho 3689" d="M917.012,3501v1.34" transform="translate(-31.963 -3096.745)"
            fill="none" stroke="#000" stroke-width="1" />
        <path id="Caminho_3690" data-name="Caminho 3690" d="M923.013,3501v1.34" transform="translate(-33.943 -3096.745)"
            fill="none" stroke="#000" stroke-width="1" />
        <path id="Caminho_3691" data-name="Caminho 3691" d="M929.014,3501v1.34" transform="translate(-35.923 -3096.745)"
            fill="none" stroke="#000" stroke-width="1" />
        <path id="Caminho_3692" data-name="Caminho 3692" d="M935.014,3501v1.34" transform="translate(-37.903 -3096.745)"
            fill="none" stroke="#000" stroke-width="1" />
        <path id="Caminho_3693" data-name="Caminho 3693" d="M941.015,3501v1.34" transform="translate(-39.883 -3096.745)"
            fill="none" stroke="#000" stroke-width="1" />
        <path id="Caminho_3694" data-name="Caminho 3694" d="M947.015,3501v1.34" transform="translate(-41.862 -3096.745)"
            fill="none" stroke="#000" stroke-width="1" />
        <path id="Caminho_3695" data-name="Caminho 3695" d="M909.012,3465v1.34" transform="translate(-29.324 -3081.319)"
            fill="none" stroke="#000" stroke-width="1" />
        <path id="Caminho_3696" data-name="Caminho 3696" d="M915.012,3465v1.34" transform="translate(-31.304 -3081.319)"
            fill="none" stroke="#000" stroke-width="1" />
        <path id="Caminho_3697" data-name="Caminho 3697" d="M921.013,3465v1.34" transform="translate(-33.283 -3081.319)"
            fill="none" stroke="#000" stroke-width="1" />
        <path id="Caminho_3698" data-name="Caminho 3698" d="M927.013,3465v1.34" transform="translate(-35.263 -3081.319)"
            fill="none" stroke="#000" stroke-width="1" />
        <path id="Caminho_3699" data-name="Caminho 3699" d="M933.014,3465v1.34" transform="translate(-37.243 -3081.319)"
            fill="none" stroke="#000" stroke-width="1" />
        <path id="Caminho_3700" data-name="Caminho 3700" d="M939.015,3465v1.34" transform="translate(-39.223 -3081.319)"
            fill="none" stroke="#000" stroke-width="1" />
    </g>
    <path id="icons8-whatsapp"
        d="M11.455,2A9.415,9.415,0,0,0,3.227,16.063L2.015,20.388a.411.411,0,0,0,.495.51L7.02,19.78A9.446,9.446,0,1,0,11.455,2Zm0,.822A8.633,8.633,0,1,1,7.246,18.992a.411.411,0,0,0-.3-.04L3,19.93l1.059-3.778a.411.411,0,0,0-.041-.32,8.631,8.631,0,0,1,7.44-13.009Zm-3.436,3.7a1.307,1.307,0,0,0-.949.431,3.2,3.2,0,0,0-.959,2.279A4.848,4.848,0,0,0,7.185,11.96h0c-.011-.014.147.214.358.489a13.019,13.019,0,0,0,.877,1.025A9.519,9.519,0,0,0,11.5,15.709a14.65,14.65,0,0,0,1.422.519,3.789,3.789,0,0,0,1.713.109,2.89,2.89,0,0,0,1.077-.445,2,2,0,0,0,.887-.962,3.392,3.392,0,0,0,.193-.846,1.94,1.94,0,0,0,0-.324.563.563,0,0,0-.091-.323c-.191-.314-.408-.322-.634-.434-.126-.062-.483-.237-.842-.408s-.669-.322-.86-.39a.969.969,0,0,0-.481-.082.818.818,0,0,0-.545.359c-.116.172-.583.723-.725.885l-.046-.023c-.176-.087-.391-.161-.71-.329a5.872,5.872,0,0,1-1.153-.8h0a6.788,6.788,0,0,1-1.247-1.53c.01-.011,0,0,.019-.018h0c.147-.144.276-.317.386-.443a2.05,2.05,0,0,0,.3-.485.909.909,0,0,0-.02-.788h0c.006.012-.046-.1-.1-.237S9.914,8.4,9.837,8.22c-.154-.369-.326-.783-.428-1.026h0a1.07,1.07,0,0,0-.5-.591A.8.8,0,0,0,8.5,6.531h0C8.351,6.524,8.185,6.522,8.019,6.522Zm0,.822c.158,0,.315,0,.446.008s.126.007.1,0,.009-.016.086.165c.1.238.273.653.427,1.024.077.185.149.359.207.5s.089.212.125.285h0c.036.07.032.025.02.05a1.2,1.2,0,0,1-.186.316c-.134.154-.27.326-.342.4a.884.884,0,0,0-.248.348.8.8,0,0,0,.076.643,7.522,7.522,0,0,0,1.432,1.76,6.721,6.721,0,0,0,1.313.911c.365.193.662.305.729.338a.924.924,0,0,0,.532.115.8.8,0,0,0,.484-.271h0c.147-.166.583-.664.792-.971.009,0,.006,0,.075.026h0c.032.011.429.189.784.358s.714.344.831.4c.169.083.248.138.269.138a.966.966,0,0,1,0,.135,2.617,2.617,0,0,1-.147.638,1.55,1.55,0,0,1-.553.547,2.557,2.557,0,0,1-.759.326,2.947,2.947,0,0,1-1.346-.08,13.739,13.739,0,0,1-1.346-.491,8.786,8.786,0,0,1-2.8-2.044,12.215,12.215,0,0,1-.821-.961c-.2-.256-.283-.39-.355-.484h0a4.441,4.441,0,0,1-.907-2.23,2.167,2.167,0,0,1,.74-1.72A.487.487,0,0,1,8.019,7.344Z"
        transform="translate(23.046 -2)" />
</svg>