<svg xmlns="http://www.w3.org/2000/svg" width="20" height="20" viewBox="0 0 20 20">
    <g fill="none" fill-rule="evenodd">
        <path d="M0 0h20v20H0z"/>
        <g stroke="#979797">
            <path d="M5.373 17.721l-4.23.845.878-4.399a9 9 0 1 1 3.353 3.554z"/>
            <path d="M12.01 10.848a.219.219 0 0 0-.32-.006s-.652.681-.696.724a.14.14 0 0 1-.035.027c-.68.367-3.13-2.432-2.663-2.958l.699-.73c.09-.095.09-.25.003-.345L6.712 5.073A.221.221 0 0 0 6.55 5a.223.223 0 0 0-.163.07c-1.145 1.199-2.98 2.405 1.308 7.07 4.232 4.603 5.445 2.858 6.613 1.519a.256.256 0 0 0-.004-.338l-2.295-2.473z"/>
        </g>
    </g>
</svg>
