<?xml version="1.0" encoding="UTF-8"?>
<svg id="Camada_1" data-name="Camada 1" xmlns="http://www.w3.org/2000/svg" xmlns:xlink="http://www.w3.org/1999/xlink" viewBox="0 0 1786.49 828.14">
  <defs>
    <style>
      .cls-1, .cls-2 {
        fill: #fff;
      }

      .cls-3 {
        letter-spacing: .12em;
      }

      .cls-4 {
        fill: url(#Gradiente_sem_nome_3);
      }

      .cls-5 {
        fill: url(#Gradiente_sem_nome_4);
      }

      .cls-2 {
        font-family: Muller-Light, Muller;
        font-size: 90.89px;
        font-weight: 300;
      }

      .cls-6 {
        fill: url(#Gradiente_sem_nome_2);
      }

      .cls-7 {
        letter-spacing: .15em;
      }

      .cls-8 {
        fill: url(#Gradiente_sem_nome_4-2);
      }

      .cls-9 {
        letter-spacing: .15em;
      }

      .cls-10 {
        letter-spacing: .13em;
      }
    </style>
    <linearGradient id="Gradiente_sem_nome_2" data-name="Gradiente sem nome 2" x1="684.41" y1="-1641.38" x2="684.41" y2="-1365.5" gradientTransform="translate(-358.63 -1100.01) scale(1 -1)" gradientUnits="userSpaceOnUse">
      <stop offset="0" stop-color="#ffffff"/>
      <stop offset="1" stop-color="#ffffff"/>
    </linearGradient>
    <linearGradient id="Gradiente_sem_nome_4" data-name="Gradiente sem nome 4" x1="684.4" y1="-1581.09" x2="684.4" y2="-1425.77" gradientTransform="translate(-358.63 -1100.01) scale(1 -1)" gradientUnits="userSpaceOnUse">
      <stop offset="0" stop-color="#ffffff"/>
      <stop offset="1" stop-color="#ffffff"/>
    </linearGradient>
    <linearGradient id="Gradiente_sem_nome_3" data-name="Gradiente sem nome 3" x1="546.46" y1="-1563.72" x2="641.49" y2="-1563.72" gradientTransform="translate(-358.63 -1100.01) scale(1 -1)" gradientUnits="userSpaceOnUse">
      <stop offset="0" stop-color="#ffffff"/>
      <stop offset="1" stop-color="#ffffff"/>
    </linearGradient>
    <linearGradient id="Gradiente_sem_nome_4-2" data-name="Gradiente sem nome 4" x1="624.11" y1="-1641.38" x2="624.11" y2="-1546.34" xlink:href="#Gradiente_sem_nome_4"/>
  </defs>
  <g id="Marcas">
    <path class="cls-6" d="m325.76,541.38h-13.41v-34.77h13.41c56.98.05,103.21-46.11,103.26-103.08.05-56.98-46.11-103.21-103.08-103.26-56.98-.05-103.21,46.11-103.26,103.08,0,.03,0,.06,0,.09v13.79h-34.84v-13.79c0-76.18,61.76-137.94,137.94-137.94s137.94,61.76,137.94,137.94-61.76,137.94-137.94,137.94h-.02Z"/>
    <path class="cls-5" d="m403.43,403.43c.64-42.89-33.62-78.18-76.51-78.81-42.89-.64-78.18,33.62-78.81,76.51-.01.77-.01,1.54,0,2.31v13.79h34.75v-13.79c0-23.69,19.21-42.9,42.9-42.9s42.9,19.21,42.9,42.9-19.21,42.9-42.9,42.9h-13.41v34.75h13.41c42.87-.04,77.62-34.78,77.67-77.65Z"/>
    <polygon class="cls-4" points="282.86 446.33 187.84 446.33 187.84 481.08 248.11 481.08 282.86 446.33"/>
    <polygon class="cls-8" points="282.86 541.38 248.11 541.38 248.11 481.08 282.86 446.33 282.86 541.38"/>
    <path class="cls-1" d="m536.55,279.84h56.36c36.09,0,64.48,11.53,64.48,50.17s-28.39,50.18-64.48,50.18h-24.34v49.09h-32.02v-149.44Zm57.85,72.16c16.23,0,30.1-4.48,30.1-22s-13.87-22-30.1-22h-25.83v43.99h25.83Zm84.32-72.16h61.49c29.08,0,59.37,10.88,59.37,48.68,0,25.66-14.52,38.64-32.5,44.47l44.47,56.44h-36.94l-40.36-52.46h-23.48v52.3h-32.04v-149.44Zm62.77,70.45c13.68,0,25.19-5.99,25.19-21.14s-11.53-21.14-25.19-21.14h-30.79v42.28h30.79Zm77.27,4.28c0-40.57,26.27-77.72,79.43-77.72s79.41,37.15,79.41,77.72-26.46,77.65-79.33,77.65-79.52-37.1-79.52-77.65h0Zm125.97,0c0-26.27-15.8-48.04-46.54-48.04s-46.54,21.77-46.54,48.04,15.58,48.03,46.54,48.03,46.54-21.69,46.54-48.03h0Zm43.97,67.66v-17.92c9.39,6.62,21.98,10.04,35.22,10.04,19.65,0,34.38-6.41,34.38-27.98v-89.45h-43.97v-17.1h61.92v107.21c0,31.39-21.79,44.47-49.12,44.47-14.93-.07-28.8-3.27-38.42-9.25h0Zm123.81-47.6v-94.79h17.94v93.93c0,30.33,18.81,41.05,44.61,41.05s44.47-10.67,44.47-41.05v-93.93h17.92v94.79c0,42.76-29.25,57.21-62.34,57.21s-62.6-14.52-62.6-57.21h0Zm162.49-94.79h58.5c26.9,0,55.93,11.1,55.93,45.26,0,27.54-18.81,39.92-39.92,43.77l50.59,60.41h-22.41l-48.92-58.92h-35.92v58.92h-17.87l.02-149.44Zm59.42,73.44c17.92,0,36.93-5.99,36.93-28.19s-19.09-28.19-36.93-28.19h-41.51v56.44l41.51-.07Zm88.94-73.44h17.92v149.44h-17.92v-149.44Zm48.88,139.19v-17.92c15.06,9.1,32.36,13.84,49.96,13.68,20.7,0,38.43-5.34,38.43-22.23,0-40.13-89.04-23.26-89.04-75.79,0-26.68,24.13-39.49,51.31-39.49,16.44,0,33.3,4.05,45.26,10.9v17.92c-11.97-7.68-28.6-11.97-43.97-11.73-19.64,0-34.38,5.76-34.38,21.77,0,37.78,89.03,21.55,89.03,75.15,0,29.68-26.68,40.78-55.3,40.55-17.92.22-35.58-4.19-51.29-12.81Z"/>
    <text class="cls-2" transform="translate(1052.02 541.38)"><tspan class="cls-3" x="0" y="0">A</tspan><tspan class="cls-10" x="75.9" y="0">C</tspan><tspan class="cls-7" x="147.34" y="0">ORD</tspan><tspan class="cls-9" x="392.47" y="0">O</tspan><tspan class="cls-7" x="480.73" y="0">S</tspan></text>
  </g>
</svg>