<svg xmlns="http://www.w3.org/2000/svg" width="11" height="15" viewBox="0 0 11 15">
    <g fill="#FF9300" fill-rule="evenodd">
        <path d="M9.032 9.65c0 .147-.014.353-.04.611a5.006 5.006 0 0 1-.118.684 3.191 3.191 0 0 1-.306.78 2.622 2.622 0 0 1-.487.63 2.266 2.266 0 0 1-.643.428c-.224.1-.484.15-.773.15a1.7 1.7 0 0 1-.87-.23 4.75 4.75 0 0 1-.944-.729l-.526-.515L3 12.982l.481.505a5.68 5.68 0 0 0 1.367 1.056c.548.303 1.16.457 1.817.457.638 0 1.236-.14 1.779-.418.535-.273 1-.654 1.384-1.133a5.171 5.171 0 0 0 .871-1.647c.2-.614.301-1.281.301-1.982V0H9.032v9.65M3 7.969c0 .776-.672 1.406-1.5 1.406S0 8.745 0 7.969c0-.777.672-1.407 1.5-1.407S3 7.192 3 7.97"/>
    </g>
</svg>
